  0
SECTION
  2
HEADER
  9
$ACADVER
  1
AC1009
  9
$INSBASE
 10
0.0
 20
0.0
 30
0.0
  9
$EXTMIN
 10
0.0
 20
0.0
 30
0.0
  9
$EXTMAX
 10
0.0
 20
0.0
 30
0.0
  0
ENDSEC
  0
SECTION
  2
TABLES
  0
TABLE
  2
VPORT
 70
1
  0
VPORT
  2
*ACTIVE
 70
0
 10
0.0
 20
0.0
 11
1.0
 21
1.0
 12
-5.0
 22
1.0
 13
0.0
 23
0.0
 14
0.1
 24
0.1
 15
0.1
 25
0.1
 16
0.0
 26
0.0
 36
1.0
 17
0.0
 27
0.0
 37
0.0
 40
10.0
 41
1.0
 42
50.0
 43
0.0
 44
0.0
 50
0.0
 51
0.0
 71
0
 72
100
 73
1
 74
1
 75
0
 76
0
 77
0
 78
0
  0
ENDTAB
  0
TABLE
  2
LTYPE
 70
8
  0
LTYPE
  2
CONTINUOUS
 70
0
  3
Solid line
 72
65
 73
0
 40
0.0
  0
LTYPE
  2
DOT
 70
0
  3
. . . . . . .
 72
65
 73
2
 40
0.25
 49
0.0
 49
-0.25
  0
LTYPE
  2
DASHED
 70
0
  3
__ __ __ __ __
 72
65
 73
2
 40
0.8
 49
0.5
 49
-0.3
  0
LTYPE
  2
DASHDOT
 70
0
  3
__ . __ . __ .
 72
65
 73
4
 40
1.0
 49
0.5
 49
-0.25
 49
0.0
 49
-0.25
  0
LTYPE
  2
DIVIDE
 70
0
  3
____ . . ____ . . 
 72
65
 73
6
 40
1.25
 49
0.5
 49
-0.25
 49
0.0
 49
-0.25
 49
0.0
 49
-0.25
  0
LTYPE
  2
BORDER
 70
0
  3
__ __ . __ __ . 
 72
65
 73
6
 40
1.75
 49
0.5
 49
-0.25
 49
0.5
 49
-0.25
 49
0.0
 49
-0.25
  0
LTYPE
  2
HIDDEN
 70
0
  3
__ __ __ __ __
 72
65
 73
2
 40
0.4
 49
0.25
 49
-0.25
  0
LTYPE
  2
CENTER
 70
0
  3
____ _ ____ _ __
 72
65
 73
4
 40
2.0
 49
1.25
 49
-0.25
 49
0.25
 49
-0.25
  0
ENDTAB
  0
TABLE
  2
LAYER
 70
1
  0
LAYER
  2
PYDXF
 70
64
 62
7
  6
continuous
  0
ENDTAB
  0
TABLE
  2
STYLE
 70
1
  0
STYLE
  2
STANDARD
 70
0
 40
0
 41
1.0
 50
0.0
 71
0
 42
1
 3
ARIAL.TTF
 4

  0
ENDTAB
  0
TABLE
  2
VIEW
 70
1
  0
VIEW
  2
BF_TOPVIEW
 70
0
 40
120.0
 10
0.0
 20
0.0
 41
200.0
 11
0.0
 21
0.0
 31
1.0
 12
0.0
 22
0.0
 32
0.0
 42
50.0
 43
0.0
 44
0.0
 50
0.0
 71
0
  0
ENDTAB
  0
ENDSEC
  0
SECTION
  2
BLOCKS
  0
ENDSEC
  0
SECTION
  2
ENTITIES
  0
POLYLINE
  8
0
 70
64
 66
1
 10
0.0
 20
0.0
 30
0.0
 71
24
 72
22
  0
VERTEX
  8
0
 10
6.474122047424316
 20
-344.9999694824219
 30
377.54620361328125
 70
192
  0
VERTEX
  8
0
 10
6.474122047424316
 20
-344.9999694824219
 30
377.54620361328125
 70
192
  0
VERTEX
  8
0
 10
10.474122047424316
 20
-344.9999694824219
 30
377.54620361328125
 70
192
  0
VERTEX
  8
0
 10
10.474122047424316
 20
-344.9999694824219
 30
377.54620361328125
 70
192
  0
VERTEX
  8
0
 10
6.474122047424316
 20
-344.9999694824219
 30
505.0982360839844
 70
192
  0
VERTEX
  8
0
 10
6.474122047424316
 20
-344.9999694824219
 30
505.0982360839844
 70
192
  0
VERTEX
  8
0
 10
10.474122047424316
 20
-344.9999694824219
 30
505.0982360839844
 70
192
  0
VERTEX
  8
0
 10
10.474122047424316
 20
-344.9999694824219
 30
505.0982360839844
 70
192
  0
VERTEX
  8
0
 10
6.474122047424316
 20
-344.9999694824219
 30
505.0982360839844
 70
192
  0
VERTEX
  8
0
 10
6.474122047424316
 20
-344.9999694824219
 30
377.54620361328125
 70
192
  0
VERTEX
  8
0
 10
10.474122047424316
 20
-344.9999694824219
 30
505.0982360839844
 70
192
  0
VERTEX
  8
0
 10
10.474122047424316
 20
-344.9999694824219
 30
377.54620361328125
 70
192
  0
VERTEX
  8
0
 10
6.474122047424316
 20
-344.9999694824219
 30
425.9962158203125
 70
192
  0
VERTEX
  8
0
 10
6.474122047424316
 20
-344.9999694824219
 30
425.9962158203125
 70
192
  0
VERTEX
  8
0
 10
10.474122047424316
 20
-344.9999694824219
 30
425.9962158203125
 70
192
  0
VERTEX
  8
0
 10
10.474122047424316
 20
-344.9999694824219
 30
425.9962158203125
 70
192
  0
VERTEX
  8
0
 10
6.474122047424316
 20
-344.9999694824219
 30
425.9962158203125
 70
192
  0
VERTEX
  8
0
 10
10.474122047424316
 20
-344.9999694824219
 30
425.9962158203125
 70
192
  0
VERTEX
  8
0
 10
6.474122047424316
 20
-344.9999694824219
 30
417.19940185546875
 70
192
  0
VERTEX
  8
0
 10
10.474122047424316
 20
-344.9999694824219
 30
417.19940185546875
 70
192
  0
VERTEX
  8
0
 10
10.474122047424316
 20
-344.9999694824219
 30
417.19940185546875
 70
192
  0
VERTEX
  8
0
 10
6.474122047424316
 20
-344.9999694824219
 30
417.19940185546875
 70
192
  0
VERTEX
  8
0
 10
10.474122047424316
 20
-344.9999694824219
 30
417.19940185546875
 70
192
  0
VERTEX
  8
0
 10
6.474122047424316
 20
-344.9999694824219
 30
417.19940185546875
 70
192
  0
VERTEX
  8
0
 10
0.0
 20
0.0
 30
0.0
 70
128
 71
22
 72
19
 73
2
 74
10
  0
VERTEX
  8
0
 10
0.0
 20
0.0
 30
0.0
 70
128
 71
19
 72
20
 73
3
 74
2
  0
VERTEX
  8
0
 10
0.0
 20
0.0
 30
0.0
 70
128
 71
23
 72
21
 73
4
 74
12
  0
VERTEX
  8
0
 10
0.0
 20
0.0
 30
0.0
 70
128
 71
1
 72
4
 73
21
 74
24
  0
VERTEX
  8
0
 10
0.0
 20
0.0
 30
0.0
 70
128
 71
10
 72
2
 73
3
 74
12
  0
VERTEX
  8
0
 10
0.0
 20
0.0
 30
0.0
 70
128
 71
11
 72
7
 73
6
 74
9
  0
VERTEX
  8
0
 10
0.0
 20
0.0
 30
0.0
 70
128
 71
10
 72
1
 73
24
 74
22
  0
VERTEX
  8
0
 10
0.0
 20
0.0
 30
0.0
 70
128
 71
20
 72
23
 73
12
 74
3
  0
VERTEX
  8
0
 10
0.0
 20
0.0
 30
0.0
 70
128
 71
1
 72
10
 73
12
 74
4
  0
VERTEX
  8
0
 10
0.0
 20
0.0
 30
0.0
 70
128
 71
8
 72
11
 73
9
 74
5
  0
VERTEX
  8
0
 10
0.0
 20
0.0
 30
0.0
 70
128
 71
9
 72
6
 73
14
 74
17
  0
VERTEX
  8
0
 10
0.0
 20
0.0
 30
0.0
 70
128
 71
6
 72
7
 73
15
 74
14
  0
VERTEX
  8
0
 10
0.0
 20
0.0
 30
0.0
 70
128
 71
11
 72
8
 73
16
 74
18
  0
VERTEX
  8
0
 10
0.0
 20
0.0
 30
0.0
 70
128
 71
8
 72
5
 73
13
 74
16
  0
VERTEX
  8
0
 10
0.0
 20
0.0
 30
0.0
 70
128
 71
5
 72
9
 73
17
 74
13
  0
VERTEX
  8
0
 10
0.0
 20
0.0
 30
0.0
 70
128
 71
7
 72
11
 73
18
 74
15
  0
VERTEX
  8
0
 10
0.0
 20
0.0
 30
0.0
 70
128
 71
17
 72
14
 73
19
 74
22
  0
VERTEX
  8
0
 10
0.0
 20
0.0
 30
0.0
 70
128
 71
14
 72
15
 73
20
 74
19
  0
VERTEX
  8
0
 10
0.0
 20
0.0
 30
0.0
 70
128
 71
18
 72
16
 73
21
 74
23
  0
VERTEX
  8
0
 10
0.0
 20
0.0
 30
0.0
 70
128
 71
16
 72
13
 73
24
 74
21
  0
VERTEX
  8
0
 10
0.0
 20
0.0
 30
0.0
 70
128
 71
13
 72
17
 73
22
 74
24
  0
VERTEX
  8
0
 10
0.0
 20
0.0
 30
0.0
 70
128
 71
15
 72
18
 73
23
 74
20
  0
SEQEND
  8
0
  0
ENDSEC
  0
EOF
