<?xml version="1.0" encoding="UTF-8"?>
<!-- 2014-11-23 22:43:48 Generated by QCAD SVG Exporter -->
<svg width="320.49905675158607mm" height="320.49905675178843mm" viewBox="88.36536668082384 -410.60310863617553 320.49905675158607 320.49905675178843" version="1.1" xmlns="http://www.w3.org/2000/svg" style="stroke-linecap:round;stroke-linejoin:round;fill:none">
    <g transform="scale(1,-1)">
        <!-- Polyline -->
        <path d="M276.42566102833405,260.67910141505183 A5.999987988588621,5.999987988588621 0 0,0 278.1830168999917,264.9217336856585 M278.1830168999917,264.9217336856585 L337.65586946710175,324.39458410394434 M337.65586946710175,324.39458410394434 A5.999987988681587,5.999987988681587 0 0,0 341.9000913332082,326.15353016696315 M341.9000913332082,326.15353016696315 L356.9294984968768,326.15353016696315 M356.9294984968768,326.15353016696315 A5.999987988318246,5.999987988318246 0 0,0 361.1721311147041,324.396173947864 M361.1721311147041,324.396173947864 L377.6536380703586,307.9146636958118 M377.6536380703586,307.9146636958118 A5.999987988529388,5.999987988529388 0 0,0 379.41473306832995,303.67292599084357 M379.41473306832995,303.67292599084396 L379.41473306832995,197.04349880464216 M379.41473306832995,197.04349880464176 A5.999987987860104,5.999987987860104 0 0,0 377.66111783694396,192.79997650248842 M377.66111783694396,192.79997650248842 L361.17213111419585,176.31098648228 M361.17213111419585,176.31098648228 A5.999987988377217,5.999987988377217 0 0,0 356.92949849636864,174.55363026327325 M356.92949849636864,174.55363026327325 L341.9000913329772,174.55363026327325 M341.9000913329772,174.55363026327322 A5.999987988564122,5.999987988564122 0 0,0 337.65905007515283,176.30939571837953 M337.65905007515283,176.30939571837953 L278.1830168999917,235.78542674328418 M278.1830168999917,235.78542674328418 A5.999987988843036,5.999987988843036 0 0,0 276.42566102833405,240.02805901399626 M276.42566102833405,240.02805901390093 L276.42566102833405,260.679101415319 " style="stroke:#000000;stroke-width:0.25;"/>
        <!-- Polyline -->
        <path d="M389.4147148369226,303.6682914268312 A5.9999989607535555,5.9999989607535555 0 0,0 391.17207419191254,307.9109319255098 M391.17207419191254,307.9109319255098 L405.6573226615368,322.39617802962096 M405.6573226615368,322.39617802962096 A5.999987988220111,5.999987988220111 0 0,1 407.41467880264645,326.63881056952704 M407.41467880264645,326.63881056950487 L407.4146788029236,343.6682137288517 M407.4146788029236,343.66821372885425 A5.999987988718353,5.999987988718353 0 0,1 405.6573230080081,347.9108459227726 M405.6573230080081,347.9108459227726 L391.1720706318381,362.39609829894255 M391.1720706318381,362.39609829894255 A5.999987988190124,5.999987988190124 0 0,0 389.4147184135374,366.6321794218662 M389.4147184135374,366.632179421866 L389.4147184135374,381.66158597206015 M389.41471841353746,381.6615859720599 A5.999991306520156,5.999991306520156 0 0,0 391.17207160365797,385.9107715361912 M391.17207160365797,385.9107715361912 L407.41626069329686,402.1549606257838 M407.41626069329686,402.1549606257838 A4.949737559272694,4.949737559272694 0 0,1 400.41311105297757,409.15178152802184 M400.41311105297757,409.15178152802184 L379.1720945835681,387.91076577387065 M379.1720945835681,387.9107657738706 A5.9999879882324745,5.9999879882324745 0 0,0 374.93273799856144,386.1534109447224 M374.93273799856144,386.1534109447224 L299.41817055858667,386.1534109447224 M299.41817055858667,386.1534109447224 L248.61489501116776,386.1534109447224 M248.61489501116776,386.1534109447224 L197.81161946374885,386.1534109447224 M197.81161946374885,386.1534109447224 L122.30360309809804,386.1534109447224 M122.30360309809804,386.1534109447224 A5.9999879880402816,5.9999879880402816 0 0,0 118.05769543927563,387.91076577387065 M118.05769543927565,387.91076577387065 L96.81351448222412,409.154946015479 M96.81351448222414,409.154946015479 A4.949737559392235,4.949737559392235 0 0,1 89.81669369840277,402.15179625651217 M89.81669369840276,402.15179625651217 L106.05771841895475,385.9107715361912 M106.05771841895475,385.9107715361912 A5.999991306162669,5.999991306162669 0 0,0 107.81507160912153,381.6746880205416 M107.81507160912153,381.67468802054134 L107.81507160912153,366.64528156302913 M107.81507160912153,366.6452815630293 A5.999987988226018,5.999987988226018 0 0,0 106.0577193907746,362.39609829894255 M106.0577193907746,362.39609829894255 L91.57246701460463,347.9108459227726 M91.57246701460464,347.9108459227726 A5.999987988698669,5.999987988698669 0 0,1 89.81511121973529,343.66821372890854 M89.81511121973529,343.6682137288517 L89.8151112199663,326.63881056950487 M89.8151112199663,326.6388105695351 A5.999987988239684,5.999987988239684 0 0,1 91.57246736107592,322.39617802962096 M91.57246736107592,322.39617802962096 L106.05771583070018,307.9109319255098 M106.05771583070016,307.9109319255098 A5.999998960755003,5.999998960755003 0 0,0 107.81507518569015,303.6682914268306 M107.81507518569015,303.6682914256111 L107.81507160962974,197.04541722318316 M107.81507160962974,197.04541722318302 A5.999987988125776,5.999987988125776 0 0,0 106.0577193907746,192.79623443045276 M106.0577193907746,192.79623443045276 L91.57246701460463,178.31098205428282 M91.57246701460463,178.31098205428282 A5.999987988468186,5.999987988468186 0 0,1 89.81511121996628,174.0683498607453 M89.8151112199663,174.06834986063916 L89.81511121973529,157.03894670184673 M89.81511121973529,157.0389467019164 A5.999987988892747,5.999987988892747 0 0,1 91.57246743370597,152.7963140888707 M91.57246743370598,152.7963140888707 L106.05771508444013,138.31106929866147 M106.05771508444013,138.31106929866147 A6.000001260125888,6.000001260125888 0 0,0 107.81507160912153,134.07497833427146 M107.81507160912153,134.07497833427186 L107.81507160912153,119.04557380228798 M107.81507160912153,119.04557380228718 A5.999987988145623,5.999987988145623 0 0,0 106.0577194840109,114.79639067431344 M106.0577194840109,114.79639067431344 L89.81352949541326,98.55219997050372 M89.81352949541326,98.55219997050372 A4.949737559400178,4.949737559400178 0 1,1 96.8166794834975,91.5553794159845 M96.8166794834975,91.5553794159845 L118.05769543876741,112.79639465599612 M118.05769543876741,112.79639465599612 A5.99998798831189,5.99998798831189 0 0,0 122.29705219375246,114.55374948523678 M122.29705219375246,114.55374948523678 L197.8181703889317,114.55374948523678 M197.8181703889317,114.55374948523678 L248.61489501116776,114.55374948523678 M248.61489501116776,114.55374948523678 L299.41161963345,114.55374948523678 M299.41161963345,114.55374948523678 L374.92618709421583,114.55374948523678 M374.92618709421583,114.55374948523678 A5.999987988406485,5.999987988406485 0 0,0 379.1720945838453,112.7963946559961 M379.1720945838453,112.79639465599612 L400.41627565672604,91.55221429860467 M400.41627565672604,91.55221429860464 A4.949737559372093,4.949737559372093 0 0,1 407.4130962480223,98.55536424986565 M407.4130962480223,98.55536424986568 L391.17207053864803,114.79639067431344 M391.17207053864803,114.79639067431346 A5.999987988259613,5.999987988259613 0 0,0 389.4147184135374,119.03247174622895 M389.4147184135374,119.03247174622956 L389.4147184135374,134.06187626869578 M389.4147184135374,134.06187626869564 A6.000001260373436,6.000001260373436 0 0,0 391.1720749381726,138.31106929866147 M391.1720749381726,138.31106929866147 L405.6573225891377,152.7963140885935 M405.6573225891377,152.7963140885935 A5.999987988785441,5.999987988785441 0 0,1 407.4146788029236,157.03894670140997 M407.4146788029236,157.0389467015695 L407.41467880264645,174.06834986063916 M407.41467880264645,174.06834986076302 A5.999987988425431,5.999987988425431 0 0,1 405.6573230080081,178.31098205428285 M405.6573230080081,178.31098205428282 L391.1720706318381,192.79623443017553 M391.1720706318381,192.79623443017556 A5.9999879881876135,5.9999879881876135 0 0,0 389.41471841353746,197.0323156220324 M389.4147184135374,197.0323156220329 L389.4147148369226,303.6682914256111 " style="stroke:#000000;stroke-width:0.25;"/>
        <!-- Polyline -->
        <path d="M91.7151074163965,405.65337101277396 A1.5999967969537465,1.5999967969537465 0 0,0 94.915101010304,405.65337101277396 M94.915101010304,405.65337101277396 A1.5999967969537465,1.5999967969537465 0 0,0 91.7151074163965,405.65337101277396 " style="stroke:#000000;stroke-width:0.25;"/>
        <!-- Polyline -->
        <path d="M94.915101010304,95.05378941690799 A1.5999967969537465,1.5999967969537465 0 0,0 91.7151074163965,95.05378941690799 M91.7151074163965,95.05378941690799 A1.5999967969537465,1.5999967969537465 0 0,0 94.915101010304,95.05378941690799 " style="stroke:#000000;stroke-width:0.25;"/>
        <!-- Polyline -->
        <path d="M402.3146890120315,405.65337101277396 A1.5999967969537465,1.5999967969537465 0 0,0 405.514682605939,405.65337101277396 M405.514682605939,405.65337101277396 A1.5999967969537465,1.5999967969537465 0 0,0 402.3146890120315,405.65337101277396 " style="stroke:#000000;stroke-width:0.25;"/>
        <!-- Polyline -->
        <path d="M405.514682605939,95.05378941690799 A1.5999967969537465,1.5999967969537465 0 0,0 402.3146890120315,95.05378941690799 M402.3146890120315,95.05378941690799 A1.5999967969537465,1.5999967969537465 0 0,0 405.514682605939,95.05378941690799 " style="stroke:#000000;stroke-width:0.25;"/>
        <!-- Polyline -->
        <path d="M96.21509840750406,336.1535101471098 A1.5999967969537465,1.5999967969537465 0 0,0 99.41509200141155,336.1535101471098 M99.41509200141155,336.1535101471098 A1.5999967969537465,1.5999967969537465 0 0,0 96.21509840750406,336.1535101471098 " style="stroke:#000000;stroke-width:0.25;"/>
        <!-- Polyline -->
        <path d="M99.41509200141155,164.55365028257222 A1.5999967969537465,1.5999967969537465 0 0,0 96.21509840750406,164.55365028257222 M96.21509840750406,164.55365028257222 A1.5999967969537465,1.5999967969537465 0 0,0 99.41509200141155,164.55365028257222 " style="stroke:#000000;stroke-width:0.25;"/>
        <!-- Polyline -->
        <path d="M126.21503834988437,336.1535101471098 A1.599996796815141,1.599996796815141 0 0,0 129.41503194351463,336.1535101471098 M129.41503194351463,336.1535101471098 A1.599996796815141,1.599996796815141 0 0,0 126.21503834988437,336.1535101471098 " style="stroke:#000000;stroke-width:0.25;"/>
        <!-- Polyline -->
        <path d="M129.41503194351463,164.55365028257222 A1.599996796815141,1.599996796815141 0 0,0 126.21503834988437,164.55365028257222 M126.21503834988437,164.55365028257222 A1.599996796815141,1.599996796815141 0 0,0 129.41503194351463,164.55365028257222 " style="stroke:#000000;stroke-width:0.25;"/>
        <!-- Polyline -->
        <path d="M397.81469802120114,336.1535101471098 A1.5999967969537465,1.5999967969537465 0 0,0 401.01469161510863,336.1535101471098 M401.01469161510863,336.1535101471098 A1.5999967969537465,1.5999967969537465 0 0,0 397.81469802120114,336.1535101471098 " style="stroke:#000000;stroke-width:0.25;"/>
        <!-- Polyline -->
        <path d="M401.01469161510863,164.55365028257222 A1.5999967969537465,1.5999967969537465 0 0,0 397.81469802120114,164.55365028257222 M397.81469802120114,164.55365028257222 A1.5999967969537465,1.5999967969537465 0 0,0 401.01469161510863,164.55365028257222 " style="stroke:#000000;stroke-width:0.25;"/>
        <!-- Polyline -->
        <path d="M367.8147580790981,336.1535101471098 A1.5999967968382407,1.5999967968382407 0 0,0 371.0147516727746,336.1535101471098 M371.0147516727746,336.1535101471098 A1.5999967968382407,1.5999967968382407 0 0,0 367.8147580790981,336.1535101471098 " style="stroke:#000000;stroke-width:0.25;"/>
        <!-- Polyline -->
        <path d="M371.0147516727746,164.55365028257222 A1.5999967968382407,1.5999967968382407 0 0,0 367.8147580790981,164.55365028257222 M367.8147580790981,164.55365028257222 A1.5999967968382407,1.5999967968382407 0 0,0 371.0147516727746,164.55365028257222 " style="stroke:#000000;stroke-width:0.25;"/>
        <!-- Polyline -->
        <path d="M220.80412899427864,240.02805901393526 A5.99998798880734,5.99998798880734 0 0,0 219.04677312266722,235.78542674328418 M219.04677312266722,235.78542674328418 L159.57392106937334,176.31257684061637 M159.57392106937334,176.31257684061637 A5.999987988299151,5.999987988299151 0 0,0 155.32969868963556,174.55363026327325 M155.32969868963556,174.55363026327325 L140.30029152629032,174.55363026327325 M140.30029152629032,174.55363026327325 A5.999987988115001,5.999987988115001 0 0,0 136.05765890869407,176.31098648228 M136.05765890869407,176.31098648228 L119.57615218391257,192.79249650267374 M119.57615218391257,192.79249650267374 A5.999987988064877,5.999987988064877 0 0,0 117.81505695405176,197.0342344418871 M117.81505695405176,197.03423444188738 L117.81505695405176,303.66366162152843 M117.81505695405176,303.6636616215281 A5.999987988704979,5.999987988704979 0 0,0 119.56867241681903,307.90718415912926 M119.56867241681903,307.90718415912926 L136.05765890790863,324.396173947864 M136.0576589079086,324.396173947864 A5.999987988387962,5.999987988387962 0 0,0 140.3002915257821,326.15353016696315 M140.3002915257821,326.15353016696315 L155.3296986899128,326.15353016696315 M155.3296986899128,326.15353016696315 A5.99998798817261,5.99998798817261 0 0,0 159.5707404615532,324.3977641979021 M159.5707404615532,324.3977641979021 L219.04677312289823,264.9217336856585 M219.04677312289823,264.9217336856585 A5.999987988465391,5.999987988465391 0 0,0 220.80412899427864,260.6791014153801 M220.80412899427864,260.679101415319 L220.80412899427864,240.02805901390093 " style="stroke:#000000;stroke-width:0.25;"/>
        <!-- Polyline -->
        <path d="M235.0129840398218,267.66154310950225 A1.5999967969306539,1.5999967969306539 0 0,0 238.21297763368312,267.66154310950225 M238.21297763368312,267.66154310950225 A1.5999967969306539,1.5999967969306539 0 0,0 235.0129840398218,267.66154310950225 " style="stroke:#000000;stroke-width:0.25;"/>
        <!-- Polyline -->
        <path d="M238.21491583125717,233.04561732045696 A1.5999967968382407,1.5999967968382407 0 0,0 235.0149222375807,233.04561732045696 M235.0149222375807,233.04561732045696 A1.5999967968382407,1.5999967968382407 0 0,0 238.21491583125717,233.04561732045696 " style="stroke:#000000;stroke-width:0.25;"/>
        <!-- Polyline -->
        <path d="M261.212595444376,272.43653990541645 L236.01719457823674,272.43653990541645 M236.01719457823674,272.43653990541645 A5.999987902402245,5.999987902402245 0 0,0 231.77456230429345,274.1938958161612 M231.77456230429343,274.1938958161612 L140.06122618550654,365.9072380365666 M140.06122618550654,365.9072380365666 A5.999987988485885,5.999987988485885 0 0,0 144.3002835181549,376.1534300701911 M144.3002835181549,376.1534300701911 L248.61489501116776,376.1534300699139 M248.61489501116776,376.1534300699139 L352.92950650445783,376.1534300701911 M352.92950650445783,376.1534300701911 A5.9999879883523874,5.9999879883523874 0 0,0 357.17571083144975,365.9143850316956 M357.17571083144975,365.9143850316956 L265.4552277183193,274.1938958161612 M265.4552277183193,274.1938958161612 A5.999987902388464,5.999987902388464 0 0,0 261.212595444376,272.43653990541645 " style="stroke:#000000;stroke-width:0.25;"/>
        <!-- Polyline -->
        <path d="M259.0129359938277,267.66154310950225 A1.5999967968151623,1.5999967968151623 0 0,0 262.212929587458,267.66154310950225 M262.212929587458,267.66154310950225 A1.5999967968151623,1.5999967968151623 0 0,0 259.0129359938277,267.66154310950225 " style="stroke:#000000;stroke-width:0.25;"/>
        <!-- Polyline -->
        <path d="M265.4552277183193,226.5132646129663 L357.16856371162066,134.79992251860097 M357.16856371162066,134.79992251860097 A5.9999879883770655,5.9999879883770655 0 0,0 352.92950650445783,124.5537303600453 M352.92950650445783,124.55373036004531 L248.61489501116776,124.55373036004531 M248.61489501116776,124.55373036004531 L144.3002835181549,124.55373036004531 M144.3002835181549,124.55373036004531 A5.999987988354661,5.999987988354661 0 0,0 140.05407906646286,134.79277527351735 M140.05407906646286,134.79277527351735 L231.77456230429343,226.5132646129663 M231.77456230429343,226.5132646129663 A5.999987902435646,5.999987902435646 0 0,0 236.01719457823674,228.2706205237111 M236.01719457823674,228.2706205237111 L261.212595444376,228.2706205237111 M261.212595444376,228.27062052371113 A5.999987902426908,5.999987902426908 0 0,0 265.4552277183193,226.51326461296634 " style="stroke:#000000;stroke-width:0.25;"/>
        <!-- Polyline -->
        <path d="M262.214867785032,233.04561732045696 A1.5999967968382407,1.5999967968382407 0 0,0 259.01487419135555,233.04561732045696 M259.01487419135555,233.04561732045696 A1.5999967968382407,1.5999967968382407 0 0,0 262.214867785032,233.04561732045696 " style="stroke:#000000;stroke-width:0.25;"/>
    </g>
</svg>
