<?xml version="1.0" encoding="UTF-8"?>
<!-- 2014-11-23 22:52:42 Generated by QCAD SVG Exporter -->
<svg width="66.06317624206828mm" height="73.5287177806388mm" viewBox="-0.26173852103418915 -73.94691249031939 66.06317624206828 73.5287177806388" version="1.1" xmlns="http://www.w3.org/2000/svg" style="stroke-linecap:round;stroke-linejoin:round;fill:none">
    <g transform="scale(1,-1)">
        <!-- Arc -->
        <path d="M37.49269733081216,64.10242989891313 A1.03536967571739,1.03536967571739 0 0,1 37.40257711036817,64.60963279546435 " style="stroke:#000000;stroke-width:0.25;"/>
        <!-- Line -->
        <path d="M20.785142894741895,18.541062906789193 L20.785145894741802,11.27310190678918 " style="stroke:#000000;stroke-width:1e-9;"/>
        <!-- Line -->
        <path d="M21.611028543220996,10.396949505840183 L43.9789815432209,10.396949505840183 " style="stroke:#000000;stroke-width:1e-9;"/>
        <!-- Line -->
        <path d="M43.97897954322079,19.396962505840094 L21.611030543220892,19.396962505840094 " style="stroke:#000000;stroke-width:1e-9;"/>
        <!-- Line -->
        <path d="M44.845004543220995,11.262978505840294 L44.84500754322079,18.53093950584028 " style="stroke:#000000;stroke-width:1e-9;"/>
        <!-- Arc -->
        <path d="M21.17801724511309,19.646962505839976 A0.5,0.5 0 1,1 20.49500304683781,18.963950667888444 " style="stroke:#000000;stroke-width:1e-9;"/>
        <!-- Arc -->
        <path d="M20.4950045432208,10.82996520773231 A0.5,0.5 0 1,1 21.17801638117245,10.1469510094571 " style="stroke:#000000;stroke-width:1e-9;"/>
        <!-- Arc -->
        <path d="M21.611028543220996,10.396949505840183 A0.5,0.5 0 0,1 21.178016705269346,10.146951002223174 " style="stroke:#000000;stroke-width:1e-9;"/>
        <!-- Arc -->
        <path d="M43.97897954322099,19.396962505840094 A0.5,0.5 0 0,1 44.411992245113204,19.64696250584009 " style="stroke:#000000;stroke-width:1e-9;"/>
        <!-- Arc -->
        <path d="M44.41199270526934,10.146951009457101 A0.5,0.5 0 1,1 45.095004543220995,10.82996520773231 " style="stroke:#000000;stroke-width:1e-9;"/>
        <!-- Arc -->
        <path d="M45.09500603960399,18.963950667888444 A0.5,0.5 0 1,1 44.41199184132871,19.646962505839976 " style="stroke:#000000;stroke-width:1e-9;"/>
        <!-- Arc -->
        <path d="M45.095006046837796,18.96395134379193 A0.5,0.5 0 0,1 44.84500754322079,18.53093950584028 " style="stroke:#000000;stroke-width:1e-9;"/>
        <!-- Arc -->
        <path d="M44.84500454322091,11.262978505840294 A0.5,0.5 0 0,1 45.09500454322091,10.829965803948076 " style="stroke:#000000;stroke-width:1e-9;"/>
        <!-- Arc -->
        <path d="M44.41199338117254,10.146951002223174 A0.5,0.5 0 0,1 43.9789815432209,10.396949505840183 " style="stroke:#000000;stroke-width:1e-9;"/>
        <!-- Arc -->
        <path d="M21.178017841328604,19.64696250584021 A0.5,0.5 0 0,1 21.611030543220892,19.396962505840094 " style="stroke:#000000;stroke-width:1e-9;"/>
        <!-- Arc -->
        <path d="M20.78514286017751,18.541062903621008 A0.512852161331125,0.512852161331125 0 0,1 20.49500300611756,18.963951340627837 " style="stroke:#000000;stroke-width:1e-9;"/>
        <!-- Arc -->
        <path d="M20.495004509725604,10.829965800770855 A0.5296712271699562,0.5296712271699562 0 0,1 20.785145860177522,11.273101903620955 " style="stroke:#000000;stroke-width:1e-9;"/>
        <!-- Line -->
        <path d="M31.35439746385609,4.845546647055301 L34.35439746385609,4.845546647055301 " style="stroke:#000000;stroke-width:0.25;"/>
        <!-- Line -->
        <path d="M31.35439746385609,6.845546647055301 L34.35439746385609,6.845546647055301 " style="stroke:#000000;stroke-width:0.25;"/>
        <!-- Arc -->
        <path d="M34.35439746385609,4.845546647055187 A1,1 0 0,1 34.35439746385609,6.845546647055187 " style="stroke:#000000;stroke-width:0.25;"/>
        <!-- Arc -->
        <path d="M31.35439746385606,6.845546647055441 A1.000000000000055,1.000000000000055 0 0,1 31.35439746385606,4.845546647055331 " style="stroke:#000000;stroke-width:0.25;"/>
        <!-- Arc -->
        <path d="M1.8232839345568026,73.94196782024774 A1.946372222306877,1.946372222306877 0 0,1 -0.26106247621407097,71.94924492045324 " style="stroke:#000000;stroke-width:0.25;"/>
        <!-- Arc -->
        <path d="M65.72262416830189,71.97409997516635 A1.88594978725655,1.88594978725655 0 0,1 63.76078373730257,73.93594040616559 " style="stroke:#000000;stroke-width:0.25;"/>
        <!-- Polyline -->
        <path d="M17.820517505544302,0.41819470968059136 L47.82051750554419,0.41819470968059136 " style="stroke:#000000;stroke-width:0.25;"/>
        <!-- Polyline -->
        <path d="M47.8205175055443,0.41819470968059136 L65.80143772103409,26.93073000529938 M65.80143772103409,26.93073000529938 L47.8205175055443,0.41819470968059136 " style="stroke:#000000;stroke-width:0.25;"/>
        <!-- Polyline -->
        <path d="M-0.18224892348163735,26.924222123762092 L17.820517505544302,0.41819470968059136 " style="stroke:#000000;stroke-width:0.25;"/>
        <!-- Polyline -->
        <path d="M1.8232839345700995,73.94196782024676 L63.760783737321105,73.93594040616637 " style="stroke:#000000;stroke-width:0.25;"/>
        <!-- Arc -->
        <path d="M21.472825021340597,27.576040110380404 A0.5,0.5 0 0,1 21.905836859292247,27.826038613997415 " style="stroke:#000000;stroke-width:1e-9;"/>
        <!-- Arc -->
        <path d="M16.571862723232837,27.826040110380376 A0.5,0.5 0 1,1 15.888848524957613,27.143028272428754 " style="stroke:#000000;stroke-width:1e-9;"/>
        <!-- Arc -->
        <path d="M22.588849021340597,27.143024408488195 A0.5,0.5 0 1,1 21.905837183388943,27.8260386067634 " style="stroke:#000000;stroke-width:1e-9;"/>
        <!-- Arc -->
        <path d="M22.58884902134059,27.14302381227248 A0.5,0.5 0 0,1 22.338849021340593,26.710011110380265 " style="stroke:#000000;stroke-width:1e-9;"/>
        <!-- Arc -->
        <path d="M15.888850021340605,24.709133408488064 A0.5,0.5 0 0,1 16.138850021340602,25.14214611038028 " style="stroke:#000000;stroke-width:1e-9;"/>
        <!-- Arc -->
        <path d="M15.888850021340598,24.70913281227258 A0.5,0.5 0 1,1 16.57186185929225,24.026118613997372 " style="stroke:#000000;stroke-width:1e-9;"/>
        <!-- Arc -->
        <path d="M21.90583631944836,24.02612011038039 A0.5,0.5 0 1,1 22.588850517723582,24.70913194833201 " style="stroke:#000000;stroke-width:1e-9;"/>
        <!-- Arc -->
        <path d="M17.004874021340598,24.27611711038037 A0.5,0.5 0 0,1 16.571862183388948,24.026118606763358 " style="stroke:#000000;stroke-width:1e-9;"/>
        <!-- Line -->
        <path d="M21.472825021340597,27.576040110380404 L17.004875021340595,27.576040110380404 " style="stroke:#000000;stroke-width:1e-9;"/>
        <!-- Line -->
        <path d="M17.004874021340598,24.27611711038037 L21.472823021340602,24.27612011038036 " style="stroke:#000000;stroke-width:1e-9;"/>
        <!-- Line -->
        <path d="M16.138847021340595,26.71001611038031 L16.138850021340602,25.14214611038028 " style="stroke:#000000;stroke-width:1e-9;"/>
        <!-- Line -->
        <path d="M22.3388520213406,25.1421441103804 L22.338849021340593,26.710011110380265 " style="stroke:#000000;stroke-width:1e-9;"/>
        <!-- Arc -->
        <path d="M16.57186231944836,27.826040110380433 A0.5,0.5 0 0,1 17.004875021340595,27.576040110380404 " style="stroke:#000000;stroke-width:1e-9;"/>
        <!-- Circle -->
        <circle cx="17.781110729177698" cy="37.433335205732874" r="2.236067977499786" style="stroke:#000000;stroke-width:0.25;"/>
        <!-- Arc -->
        <path d="M21.905835723232837,24.026120110380333 A0.5,0.5 0 0,1 21.472823021340602,24.27612011038036 " style="stroke:#000000;stroke-width:1e-9;"/>
        <!-- Circle -->
        <circle cx="47.7811107291777" cy="37.433335205732874" r="2.236067977499786" style="stroke:#000000;stroke-width:0.25;"/>
        <!-- Arc -->
        <path d="M22.3388520213406,25.1421441103804 A0.5,0.5 0 0,1 22.58885052495761,24.70913227242875 " style="stroke:#000000;stroke-width:1e-9;"/>
        <!-- Arc -->
        <path d="M16.138847021340595,26.71001611038031 A0.5,0.5 0 0,1 15.888848517723586,27.14302794833196 " style="stroke:#000000;stroke-width:1e-9;"/>
        <!-- Line -->
        <path d="M44.235969906371594,27.576040110380404 L48.703919906371596,27.576040110380404 " style="stroke:#000000;stroke-width:1e-9;"/>
        <!-- Line -->
        <path d="M48.70392090637159,24.27611711038037 L44.23597190637159,24.27612011038036 " style="stroke:#000000;stroke-width:1e-9;"/>
        <!-- Line -->
        <path d="M49.569947906371596,26.71001611038031 L49.5699449063716,25.14214611038028 " style="stroke:#000000;stroke-width:1e-9;"/>
        <!-- Line -->
        <path d="M43.36994290637159,25.1421441103804 L43.36994590637161,26.710011110380265 " style="stroke:#000000;stroke-width:1e-9;"/>
        <!-- Arc -->
        <path d="M43.80295806841994,27.826038613997415 A0.5,0.5 0 0,1 44.235969906371594,27.576040110380404 " style="stroke:#000000;stroke-width:1e-9;"/>
        <!-- Arc -->
        <path d="M49.819946402754596,27.143028272428754 A0.5,0.5 0 1,1 49.136932204479365,27.826040110380372 " style="stroke:#000000;stroke-width:1e-9;"/>
        <!-- Arc -->
        <path d="M43.802957744323265,27.8260386067634 A0.5,0.5 0 1,1 43.11994590637161,27.143024408488195 " style="stroke:#000000;stroke-width:1e-9;"/>
        <!-- Arc -->
        <path d="M43.36994590637161,26.710011110380265 A0.5,0.5 0 0,1 43.11994590637161,27.14302381227248 " style="stroke:#000000;stroke-width:1e-9;"/>
        <!-- Arc -->
        <path d="M49.5699449063716,25.14214611038028 A0.5,0.5 0 0,1 49.8199449063716,24.709133408488064 " style="stroke:#000000;stroke-width:1e-9;"/>
        <!-- Arc -->
        <path d="M49.13693306841995,24.026118613997372 A0.5,0.5 0 1,1 49.8199449063716,24.70913281227258 " style="stroke:#000000;stroke-width:1e-9;"/>
        <!-- Arc -->
        <path d="M43.11994440998862,24.70913194833201 A0.5,0.5 0 1,1 43.80295860826385,24.02612011038039 " style="stroke:#000000;stroke-width:1e-9;"/>
        <!-- Arc -->
        <path d="M49.136932744323246,24.026118606763358 A0.5,0.5 0 0,1 48.70392090637159,24.27611711038037 " style="stroke:#000000;stroke-width:1e-9;"/>
        <!-- Arc -->
        <path d="M48.703919906371596,27.576040110380404 A0.5,0.5 0 0,1 49.136932608263834,27.826040110380433 " style="stroke:#000000;stroke-width:1e-9;"/>
        <!-- Arc -->
        <path d="M44.23597190637159,24.27612011038036 A0.5,0.5 0 0,1 43.80295920447935,24.02612011038033 " style="stroke:#000000;stroke-width:1e-9;"/>
        <!-- Arc -->
        <path d="M43.119944402754584,24.70913227242875 A0.5,0.5 0 0,1 43.36994290637159,25.1421441103804 " style="stroke:#000000;stroke-width:1e-9;"/>
        <!-- Arc -->
        <path d="M49.8199464099886,27.14302794833196 A0.5,0.5 0 0,1 49.569947906371596,26.71001611038031 " style="stroke:#000000;stroke-width:1e-9;"/>
        <!-- Circle -->
        <circle cx="6.252314037758794" cy="25.962853032396595" r="1.631840977866119" style="stroke:#000000;stroke-width:0.25;"/>
        <!-- Circle -->
        <circle cx="59.28572054151411" cy="25.962853032395685" r="1.631840977866119" style="stroke:#000000;stroke-width:0.25;"/>
        <!-- Line -->
        <path d="M65.72262416830179,71.97409997516627 L65.80143772103409,26.93073000529938 " style="stroke:#000000;stroke-width:0.25;"/>
        <!-- Line -->
        <path d="M3.583353950293599,56.83158551944416 L3.5833569502933926,64.09954651944429 " style="stroke:#000000;stroke-width:1e-9;"/>
        <!-- Line -->
        <path d="M4.5971347626663,64.9756989203932 L26.9650877626662,64.9756989203932 " style="stroke:#000000;stroke-width:1e-9;"/>
        <!-- Line -->
        <path d="M26.96508576266619,55.9756859203934 L4.597136762666295,55.9756859203934 " style="stroke:#000000;stroke-width:1e-9;"/>
        <!-- Line -->
        <path d="M27.8311107626664,64.10966992039317 L27.831113762666092,56.84170892039316 " style="stroke:#000000;stroke-width:1e-9;"/>
        <!-- Line -->
        <path d="M37.49269736430199,64.1024299021073 L37.492700364301896,56.834468902107176 " style="stroke:#000000;stroke-width:1e-9;"/>
        <!-- Line -->
        <path d="M38.59713476266609,55.96414000207841 L60.965087762666286,55.96414000207841 " style="stroke:#000000;stroke-width:1e-9;"/>
        <!-- Line -->
        <path d="M60.96508576266629,64.9641530020782 L38.597136762666196,64.9641530020782 " style="stroke:#000000;stroke-width:1e-9;"/>
        <!-- Line -->
        <path d="M61.831110762666384,56.830169002078264 L61.83111376266629,64.09813000207828 " style="stroke:#000000;stroke-width:1e-9;"/>
        <!-- Line -->
        <path d="M48.210126996403204,70.43333520573321 L51.210126996403204,70.43333520573321 " style="stroke:#000000;stroke-width:0.25;"/>
        <!-- Line -->
        <path d="M48.210126996403204,68.43333520573321 L51.210126996403204,68.43333520573321 " style="stroke:#000000;stroke-width:0.25;"/>
        <!-- Line -->
        <path d="M48.210126996403204,50.43333520573299 L51.210126996403204,50.43333520573299 " style="stroke:#000000;stroke-width:0.25;"/>
        <!-- Line -->
        <path d="M48.210126996403204,52.43333520573299 L51.210126996403204,52.43333520573299 " style="stroke:#000000;stroke-width:0.25;"/>
        <!-- Line -->
        <path d="M17.325220607544097,70.43333520573287 L14.325220607543898,70.43333520573287 " style="stroke:#000000;stroke-width:0.25;"/>
        <!-- Arc -->
        <path d="M31.35439746385606,25.052920063405622 A1.000000000000055,1.000000000000055 0 0,1 31.354397463856063,23.05292006340551 " style="stroke:#000000;stroke-width:0.25;"/>
        <!-- Line -->
        <path d="M17.325220607544097,68.43333520573287 L14.325220607543898,68.43333520573287 " style="stroke:#000000;stroke-width:0.25;"/>
        <!-- Arc -->
        <path d="M34.35439746385609,23.052920063405793 A1,1 0 0,1 34.35439746385609,25.052920063405793 " style="stroke:#000000;stroke-width:0.25;"/>
        <!-- Line -->
        <path d="M17.325220607544594,50.4333352057327 L14.325220607544594,50.4333352057327 " style="stroke:#000000;stroke-width:0.25;"/>
        <!-- Line -->
        <path d="M31.35439746385609,23.05292006340568 L34.35439746385609,23.05292006340568 " style="stroke:#000000;stroke-width:0.25;"/>
        <!-- Line -->
        <path d="M17.325220607544594,52.4333352057327 L14.325220607544594,52.4333352057327 " style="stroke:#000000;stroke-width:0.25;"/>
        <!-- Line -->
        <path d="M31.35439746385609,25.052920063405566 L34.35439746385609,25.052920063405566 " style="stroke:#000000;stroke-width:0.25;"/>
        <!-- Polyline -->
        <path d="M-0.18224892348163735,26.924222123762092 L-0.2610624762140361,71.94924492045317 " style="stroke:#000000;stroke-width:0.25;"/>
        <!-- Arc -->
        <path d="M37.48111072917755,56.397156297017965 A0.4374661479494081,0.4374661479494081 0 0,1 37.49270032917689,56.834468898909996 " style="stroke:#000000;stroke-width:1e-9;"/>
        <!-- Arc -->
        <path d="M14.325220607544594,52.4333352057327 A1,1 0 0,1 14.325220607544594,50.4333352057327 " style="stroke:#000000;stroke-width:0.25;"/>
        <!-- Arc -->
        <path d="M14.325220607543898,70.43333520573299 A1,1 0 0,1 14.325220607543898,68.43333520573299 " style="stroke:#000000;stroke-width:0.25;"/>
        <!-- Arc -->
        <path d="M17.325220607544722,50.4333352057327 A1.000000000000055,1.000000000000055 0 0,1 17.325220607544722,52.43333520573282 " style="stroke:#000000;stroke-width:0.25;"/>
        <!-- Arc -->
        <path d="M3.4811092662830996,56.40869775834505 A0.5,0.5 0 1,1 4.164123464558369,55.7256859203935 " style="stroke:#000000;stroke-width:1e-9;"/>
        <!-- Arc -->
        <path d="M4.164122600617742,65.22569741677626 A0.5,0.5 0 1,1 3.4811107626660904,64.54268321850104 " style="stroke:#000000;stroke-width:1e-9;"/>
        <!-- Arc -->
        <path d="M4.16412292471465,65.2256974240102 A0.5,0.5 0 0,1 4.5971347626663,64.9756989203932 " style="stroke:#000000;stroke-width:1e-9;"/>
        <!-- Arc -->
        <path d="M27.398098464558505,55.72568592039341 A0.5,0.5 0 0,1 26.96508576266629,55.9756859203934 " style="stroke:#000000;stroke-width:1e-9;"/>
        <!-- Arc -->
        <path d="M28.0811107626664,64.54268321850104 A0.5,0.5 0 1,1 27.398098924714745,65.22569741677626 " style="stroke:#000000;stroke-width:1e-9;"/>
        <!-- Arc -->
        <path d="M27.398098060774114,55.725685920393516 A0.5,0.5 0 1,1 28.08111225904939,56.40869775834505 " style="stroke:#000000;stroke-width:1e-9;"/>
        <!-- Arc -->
        <path d="M27.83111376266619,56.84170892039316 A0.5,0.5 0 0,1 28.0811122662832,56.40869708244151 " style="stroke:#000000;stroke-width:1e-9;"/>
        <!-- Arc -->
        <path d="M28.0811107626662,64.5426826222854 A0.5,0.5 0 0,1 27.8311107626662,64.10966992039317 " style="stroke:#000000;stroke-width:1e-9;"/>
        <!-- Arc -->
        <path d="M26.9650877626663,64.9756989203932 A0.5,0.5 0 0,1 27.398099600617954,65.2256974240102 " style="stroke:#000000;stroke-width:1e-9;"/>
        <!-- Arc -->
        <path d="M4.597136762666395,55.9756859203934 A0.5,0.5 0 0,1 4.164124060774118,55.7256859203933 " style="stroke:#000000;stroke-width:1e-9;"/>
        <!-- Arc -->
        <path d="M37.48111076266599,56.39715570397039 A0.5,0.5 0 1,1 38.164122600617645,55.71414150569519 " style="stroke:#000000;stroke-width:1e-9;"/>
        <!-- Arc -->
        <path d="M38.59713476266609,55.964140002078295 A0.5,0.5 0 0,1 38.164122924714434,55.71414149846128 " style="stroke:#000000;stroke-width:1e-9;"/>
        <!-- Arc -->
        <path d="M60.96508576266629,64.96415300207809 A0.5,0.5 0 0,1 61.39809846455851,65.21415300207808 " style="stroke:#000000;stroke-width:1e-9;"/>
        <!-- Arc -->
        <path d="M61.39809892471473,55.71414150569519 A0.5,0.5 0 1,1 62.081110762666384,56.39715570397039 " style="stroke:#000000;stroke-width:1e-9;"/>
        <!-- Arc -->
        <path d="M62.08111225904938,64.53114116412655 A0.5,0.5 0 1,1 61.398098060774096,65.21415300207809 " style="stroke:#000000;stroke-width:1e-9;"/>
        <!-- Arc -->
        <path d="M62.08111226628321,64.53114184002993 A0.5,0.5 0 0,1 61.831113762666206,64.09813000207828 " style="stroke:#000000;stroke-width:1e-9;"/>
        <!-- Arc -->
        <path d="M61.8311107626663,56.830169002078264 A0.5,0.5 0 0,1 62.0811107626663,56.39715630018605 " style="stroke:#000000;stroke-width:1e-9;"/>
        <!-- Arc -->
        <path d="M61.39809960061794,55.71414149846128 A0.5,0.5 0 0,1 60.965087762666286,55.964140002078295 " style="stroke:#000000;stroke-width:1e-9;"/>
        <!-- Arc -->
        <path d="M38.16412406077411,65.2141530020782 A0.5,0.5 0 0,1 38.597136762666395,64.96415300207809 " style="stroke:#000000;stroke-width:1e-9;"/>
        <!-- Arc -->
        <path d="M17.325220607544125,68.4333352057327 A1.000000000000055,1.000000000000055 0 0,1 17.325220607544125,70.43333520573282 " style="stroke:#000000;stroke-width:0.25;"/>
        <!-- Arc -->
        <path d="M51.210126996403204,50.43333520573299 A1,1 0 0,1 51.210126996403204,52.43333520573299 " style="stroke:#000000;stroke-width:0.25;"/>
        <!-- Arc -->
        <path d="M48.210126996403176,52.43333520573316 A1.000000000000055,1.000000000000055 0 0,1 48.210126996403176,50.433335205733044 " style="stroke:#000000;stroke-width:0.25;"/>
        <!-- Arc -->
        <path d="M51.210126996403204,68.43333520573321 A1,1 0 0,1 51.210126996403204,70.43333520573321 " style="stroke:#000000;stroke-width:0.25;"/>
        <!-- Arc -->
        <path d="M48.210126996403176,70.43333520573316 A1.000000000000055,1.000000000000055 0 0,1 48.210126996403176,68.43333520573304 " style="stroke:#000000;stroke-width:0.25;"/>
        <!-- Arc -->
        <path d="M3.481109225564446,56.4086970856078 A0.4350744080495021,0.4350744080495021 0 0,1 3.583353919690413,56.83158552250034 " style="stroke:#000000;stroke-width:1e-9;"/>
        <!-- Arc -->
        <path d="M3.5833569196903823,64.09954652250049 A0.454778945445412,0.454778945445412 0 0,1 3.481110729174282,64.54268262545915 " style="stroke:#000000;stroke-width:1e-9;"/>
        <!-- Arc -->
        <path d="M38.16412343107238,65.21415299890475 A0.48627468945557,0.48627468945557 0 0,1 37.40257711037191,64.60963279545939 " style="stroke:#000000;stroke-width:1e-9;"/>
    </g>
</svg>
