999
dxfrw 0.5.11
0
SECTION
2
HEADER
9
$ACADVER
1
AC1021
9
$HANDSEED
5
20000
9
$DWGCODEPAGE
3
ANSI_1252
9
$INSBASE
10
0
20
0
30
0
9
$EXTMIN
10
110.229932
20
0
30
0
9
$EXTMAX
10
330.63301
20
220.003381
30
0
9
$LIMMIN
10
0
20
0
9
$LIMMAX
10
420
20
297
9
$ORTHOMODE
70
0
9
$LTSCALE
40
1
9
$TEXTSTYLE
7
STANDARD
9
$CLAYER
8
BASE
9
$DIMASZ
40
2.5
9
$DIMLFAC
40
1
9
$DIMSCALE
40
1
9
$DIMEXO
40
0.625
9
$DIMEXE
40
1.25
9
$DIMTXT
40
2.5
9
$DIMTSZ
40
0
9
$DIMAUNIT
70
0
9
$DIMADEC
70
0
9
$DIMLUNIT
70
2
9
$DIMSTYLE
2
STANDARD
9
$DIMGAP
40
0.625
9
$DIMTIH
70
0
9
$LUNITS
70
2
9
$LUPREC
70
4
9
$AUNITS
70
0
9
$AUPREC
70
2
9
$SPLINESEGS
70
8
9
$GRIDMODE
70
1
9
$SNAPSTYLE
70
0
9
$PINSBASE
10
0
20
0
30
0
9
$PLIMMIN
10
0
20
0
9
$PLIMMAX
10
210
20
297
9
$INSUNITS
70
4
9
$PSVPSCALE
40
1
0
ENDSEC
0
SECTION
2
CLASSES
0
ENDSEC
0
SECTION
2
TABLES
0
TABLE
2
VPORT
5
8
330
0
100
AcDbSymbolTable
70
1
0
VPORT
5
31
330
2
100
AcDbSymbolTableRecord
100
AcDbViewportTableRecord
2
*ACTIVE
70
0
10
0
20
0
11
1
21
1
12
367.126464844
22
155.029296875
13
0
23
0
14
10
24
10
15
10
25
10
16
0
26
0
36
1
17
0
27
0
37
0
40
514.526367188
41
1.86595492289
42
50
43
0
44
0
50
0
51
0
71
0
72
100
73
1
74
3
75
0
76
1
77
0
78
0
281
0
65
1
110
0
120
0
130
0
111
1
121
0
131
0
112
0
122
1
132
0
79
0
146
0
348
10020
60
7
61
5
292
1
282
1
141
0
142
0
63
250
421
3358443
0
ENDTAB
0
TABLE
2
LTYPE
5
5
330
0
100
AcDbSymbolTable
70
4
0
LTYPE
5
14
330
5
100
AcDbSymbolTableRecord
100
AcDbLinetypeTableRecord
2
ByBlock
70
0
3

72
65
73
0
40
0
0
LTYPE
5
15
330
5
100
AcDbSymbolTableRecord
100
AcDbLinetypeTableRecord
2
ByLayer
70
0
3

72
65
73
0
40
0
0
LTYPE
5
16
330
5
100
AcDbSymbolTableRecord
100
AcDbLinetypeTableRecord
2
Continuous
70
0
3
Solid line
72
65
73
0
40
0
0
LTYPE
5
32
330
5
100
AcDbSymbolTableRecord
100
AcDbLinetypeTableRecord
2
DOT
70
0
3
Dot . . . . . . . . . . . . . . . . . . . . . .
72
65
73
2
40
6.35
49
0
74
0
49
-6.35
74
0
0
LTYPE
5
33
330
5
100
AcDbSymbolTableRecord
100
AcDbLinetypeTableRecord
2
DOT2
70
0
3
Dot (.5x) .....................................
72
65
73
2
40
3.175
49
0
74
0
49
-3.175
74
0
0
LTYPE
5
34
330
5
100
AcDbSymbolTableRecord
100
AcDbLinetypeTableRecord
2
DOTX2
70
0
3
Dot (2x) .  .  .  .  .  .  .  .  .  .  .  .  .
72
65
73
2
40
12.7
49
0
74
0
49
-12.7
74
0
0
LTYPE
5
35
330
5
100
AcDbSymbolTableRecord
100
AcDbLinetypeTableRecord
2
DASHED
70
0
3
Dot . . . . . . . . . . . . . . . . . . . . . .
72
65
73
2
40
19.05
49
12.7
74
0
49
-6.35
74
0
0
LTYPE
5
36
330
5
100
AcDbSymbolTableRecord
100
AcDbLinetypeTableRecord
2
DASHED2
70
0
3
Dashed (.5x) _ _ _ _ _ _ _ _ _ _ _ _ _ _ _ _ _
72
65
73
2
40
9.525
49
6.35
74
0
49
-3.175
74
0
0
LTYPE
5
37
330
5
100
AcDbSymbolTableRecord
100
AcDbLinetypeTableRecord
2
DASHEDX2
70
0
3
Dashed (2x) ____  ____  ____  ____  ____  ___
72
65
73
2
40
38.1
49
25.4
74
0
49
-12.7
74
0
0
LTYPE
5
38
330
5
100
AcDbSymbolTableRecord
100
AcDbLinetypeTableRecord
2
DASHDOT
70
0
3
Dash dot __ . __ . __ . __ . __ . __ . __ . __
72
65
73
4
40
25.4
49
12.7
74
0
49
-6.35
74
0
49
0
74
0
49
-6.35
74
0
0
LTYPE
5
39
330
5
100
AcDbSymbolTableRecord
100
AcDbLinetypeTableRecord
2
DASHDOT2
70
0
3
Dash dot (.5x) _._._._._._._._._._._._._._._.
72
65
73
4
40
12.7
49
6.35
74
0
49
-3.175
74
0
49
0
74
0
49
-3.175
74
0
0
LTYPE
5
3A
330
5
100
AcDbSymbolTableRecord
100
AcDbLinetypeTableRecord
2
DASHDOTX2
70
0
3
Dash dot (2x) ____  .  ____  .  ____  .  ___
72
65
73
4
40
50.8
49
25.4
74
0
49
-12.7
74
0
49
0
74
0
49
-12.7
74
0
0
LTYPE
5
3B
330
5
100
AcDbSymbolTableRecord
100
AcDbLinetypeTableRecord
2
DIVIDE
70
0
3
Divide ____ . . ____ . . ____ . . ____ . . ____
72
65
73
6
40
31.75
49
12.7
74
0
49
-6.35
74
0
49
0
74
0
49
-6.35
74
0
49
0
74
0
49
-6.35
74
0
0
LTYPE
5
3C
330
5
100
AcDbSymbolTableRecord
100
AcDbLinetypeTableRecord
2
DIVIDE2
70
0
3
Divide (.5x) __..__..__..__..__..__..__..__.._
72
65
73
6
40
15.875
49
6.35
74
0
49
-3.175
74
0
49
0
74
0
49
-3.175
74
0
49
0
74
0
49
-3.175
74
0
0
LTYPE
5
3D
330
5
100
AcDbSymbolTableRecord
100
AcDbLinetypeTableRecord
2
DIVIDEX2
70
0
3
Divide (2x) ________  .  .  ________  .  .  _
72
65
73
6
40
63.5
49
25.4
74
0
49
-12.7
74
0
49
0
74
0
49
-12.7
74
0
49
0
74
0
49
-12.7
74
0
0
LTYPE
5
3E
330
5
100
AcDbSymbolTableRecord
100
AcDbLinetypeTableRecord
2
BORDER
70
0
3
Border __ __ . __ __ . __ __ . __ __ . __ __ .
72
65
73
6
40
44.45
49
12.7
74
0
49
-6.35
74
0
49
12.7
74
0
49
-6.35
74
0
49
0
74
0
49
-6.35
74
0
0
LTYPE
5
3F
330
5
100
AcDbSymbolTableRecord
100
AcDbLinetypeTableRecord
2
BORDER2
70
0
3
Border (.5x) __.__.__.__.__.__.__.__.__.__.__.
72
65
73
6
40
22.225
49
6.35
74
0
49
-3.175
74
0
49
6.35
74
0
49
-3.175
74
0
49
0
74
0
49
-3.175
74
0
0
LTYPE
5
40
330
5
100
AcDbSymbolTableRecord
100
AcDbLinetypeTableRecord
2
BORDERX2
70
0
3
Border (2x) ____  ____  .  ____  ____  .  ___
72
65
73
6
40
88.9
49
25.4
74
0
49
-12.7
74
0
49
25.4
74
0
49
-12.7
74
0
49
0
74
0
49
-12.7
74
0
0
LTYPE
5
41
330
5
100
AcDbSymbolTableRecord
100
AcDbLinetypeTableRecord
2
CENTER
70
0
3
Center ____ _ ____ _ ____ _ ____ _ ____ _ ____
72
65
73
4
40
50.8
49
31.75
74
0
49
-6.35
74
0
49
6.35
74
0
49
-6.35
74
0
0
LTYPE
5
42
330
5
100
AcDbSymbolTableRecord
100
AcDbLinetypeTableRecord
2
CENTER2
70
0
3
Center (.5x) ___ _ ___ _ ___ _ ___ _ ___ _ ___
72
65
73
4
40
28.575
49
19.05
74
0
49
-3.175
74
0
49
3.175
74
0
49
-3.175
74
0
0
LTYPE
5
43
330
5
100
AcDbSymbolTableRecord
100
AcDbLinetypeTableRecord
2
CENTERX2
70
0
3
Center (2x) ________  __  ________  __  _____
72
65
73
4
40
101.6
49
63.5
74
0
49
-12.7
74
0
49
12.7
74
0
49
-12.7
74
0
0
ENDTAB
0
TABLE
2
LAYER
5
2
330
0
100
AcDbSymbolTable
70
1
0
LAYER
5
10
330
2
100
AcDbSymbolTableRecord
100
AcDbLayerTableRecord
2
0
70
5
62
7
6
CONTINUOUS
370
0
390
F
0
LAYER
5
44
330
2
100
AcDbSymbolTableRecord
100
AcDbLayerTableRecord
2
BASE
70
0
62
3
6
CONTINUOUS
370
0
390
F
0
LAYER
5
45
330
2
100
AcDbSymbolTableRecord
100
AcDbLayerTableRecord
2
guide2
70
5
62
1
6
DOT2
370
0
390
F
0
LAYER
5
46
330
2
100
AcDbSymbolTableRecord
100
AcDbLayerTableRecord
2
guide22
70
5
62
6
6
CONTINUOUS
370
0
390
F
0
LAYER
5
47
330
2
100
AcDbSymbolTableRecord
100
AcDbLayerTableRecord
2
guide222
70
5
62
4
6
CONTINUOUS
290
0
370
0
390
F
0
ENDTAB
0
TABLE
2
STYLE
5
3
330
0
100
AcDbSymbolTable
70
3
0
STYLE
5
48
330
2
100
AcDbSymbolTableRecord
100
AcDbTextStyleTableRecord
2
Standard
70
0
40
0
41
1
50
0
71
0
42
1
3
txt
4

0
ENDTAB
0
TABLE
2
VIEW
5
6
330
0
100
AcDbSymbolTable
70
0
0
ENDTAB
0
TABLE
2
UCS
5
7
330
0
100
AcDbSymbolTable
70
0
0
ENDTAB
0
TABLE
2
APPID
5
9
330
0
100
AcDbSymbolTable
70
1
0
APPID
5
12
330
9
100
AcDbSymbolTableRecord
100
AcDbRegAppTableRecord
2
ACAD
70
0
0
ENDTAB
0
TABLE
2
DIMSTYLE
5
A
330
0
100
AcDbSymbolTable
70
1
100
AcDbDimStyleTable
71
1
0
DIMSTYLE
105
49
330
A
100
AcDbSymbolTableRecord
100
AcDbDimStyleTableRecord
2
Standard
70
0
40
1
41
2.5
42
0.625
43
0.38
44
1.25
45
0
46
0
47
0
48
0
140
2.5
141
0.09
142
0
143
25.4
144
1
145
0
146
1
147
0.625
148
0
71
0
72
0
73
0
74
1
75
0
76
0
77
0
78
0
79
0
170
0
171
2
172
0
173
0
174
0
175
0
176
0
177
0
178
0
179
0
271
4
272
4
273
2
274
2
275
0
276
0
277
2
278
46
279
0
280
0
281
0
282
0
283
1
284
0
285
0
286
0
288
0
289
3
340
Standard
341

371
-2
372
-2
0
ENDTAB
0
TABLE
2
BLOCK_RECORD
5
1
330
0
100
AcDbSymbolTable
70
2
0
BLOCK_RECORD
5
1F
330
1
100
AcDbSymbolTableRecord
100
AcDbBlockTableRecord
2
*Model_Space
70
0
280
1
281
0
0
BLOCK_RECORD
5
1E
330
1
100
AcDbSymbolTableRecord
100
AcDbBlockTableRecord
2
*Paper_Space
70
0
280
1
281
0
0
ENDTAB
0
ENDSEC
0
SECTION
2
BLOCKS
0
BLOCK
5
20
330
1F
100
AcDbEntity
8
0
100
AcDbBlockBegin
2
*Model_Space
70
0
10
0
20
0
30
0
3
*Model_Space
1

0
ENDBLK
5
21
330
1F
100
AcDbEntity
8
0
100
AcDbBlockEnd
0
BLOCK
5
1C
330
1B
100
AcDbEntity
8
0
100
AcDbBlockBegin
2
*Paper_Space
70
0
10
0
20
0
30
0
3
*Paper_Space
1

0
ENDBLK
5
1D
330
1F
100
AcDbEntity
8
0
100
AcDbBlockEnd
0
ENDSEC
0
SECTION
2
ENTITIES
0
LINE
5
4A
100
AcDbEntity
8
guide2
6
ByLayer
62
256
370
-1
100
AcDbLine
10
0
20
0
11
220
21
0
0
LINE
5
4B
100
AcDbEntity
8
guide2
6
ByLayer
62
256
370
-1
100
AcDbLine
10
220
20
0
11
220
21
220
0
LINE
5
4C
100
AcDbEntity
8
guide2
6
ByLayer
62
256
370
-1
100
AcDbLine
10
220
20
220
11
0
21
220
0
LINE
5
4D
100
AcDbEntity
8
guide2
6
ByLayer
62
256
370
-1
100
AcDbLine
10
0
20
220
11
0
21
0
0
LINE
5
4E
100
AcDbEntity
8
guide2
6
ByLayer
62
256
370
-1
100
AcDbLine
10
220
20
0
11
440
21
0
0
LINE
5
4F
100
AcDbEntity
8
guide2
6
ByLayer
62
256
370
-1
100
AcDbLine
10
440
20
0
11
440
21
220
0
LINE
5
50
100
AcDbEntity
8
guide2
6
ByLayer
62
256
370
-1
100
AcDbLine
10
440
20
220
11
220
21
220
0
LINE
5
51
100
AcDbEntity
8
guide2
6
ByLayer
62
256
370
-1
100
AcDbLine
10
220
20
220
11
220
21
0
0
LINE
5
52
100
AcDbEntity
8
guide22
6
ByLayer
62
256
370
-1
100
AcDbLine
10
221
20
3
11
435
21
3
0
LINE
5
53
100
AcDbEntity
8
guide22
6
ByLayer
62
256
370
-1
100
AcDbLine
10
435
20
3
11
435
21
217
0
LINE
5
54
100
AcDbEntity
8
guide22
6
ByLayer
62
256
370
-1
100
AcDbLine
10
435
20
217
11
221
21
217
0
LINE
5
55
100
AcDbEntity
8
guide22
6
ByLayer
62
256
370
-1
100
AcDbLine
10
221
20
217
11
221
21
3
0
LINE
5
56
100
AcDbEntity
8
guide22
6
ByLayer
62
256
370
-1
100
AcDbLine
10
5
20
3
11
219
21
3
0
LINE
5
57
100
AcDbEntity
8
guide22
6
ByLayer
62
256
370
-1
100
AcDbLine
10
219
20
3
11
219
21
217
0
LINE
5
58
100
AcDbEntity
8
guide22
6
ByLayer
62
256
370
-1
100
AcDbLine
10
219
20
217
11
5
21
217
0
LINE
5
59
100
AcDbEntity
8
guide22
6
ByLayer
62
256
370
-1
100
AcDbLine
10
5
20
217
11
5
21
3
0
LINE
5
5A
100
AcDbEntity
8
guide222
6
ByLayer
62
256
370
-1
100
AcDbLine
10
7.5
20
0
11
7.5
21
1
0
LINE
5
5B
100
AcDbEntity
8
guide222
6
ByLayer
62
256
370
-1
100
AcDbLine
10
0
20
5.5
11
10
21
5.5
0
LINE
5
5C
100
AcDbEntity
8
guide222
6
ByLayer
62
256
370
-1
100
AcDbLine
10
0
20
214.5
11
10
21
214.5
0
LINE
5
5D
100
AcDbEntity
8
guide222
6
ByLayer
62
256
370
-1
100
AcDbLine
10
216.5
20
0
11
216.5
21
1
0
LINE
5
5E
100
AcDbEntity
8
guide222
6
ByLayer
62
256
370
-1
100
AcDbLine
10
223.5
20
0
11
223.5
21
1
0
LINE
5
5F
100
AcDbEntity
8
guide222
6
ByLayer
62
256
370
-1
100
AcDbLine
10
432.5
20
0
11
432.5
21
1
0
CIRCLE
5
60
100
AcDbEntity
8
0
6
ByLayer
62
256
370
-1
100
AcDbCircle
10
7.5
20
5.5
40
1.5
0
CIRCLE
5
61
100
AcDbEntity
8
0
6
ByLayer
62
256
370
-1
100
AcDbCircle
10
216.5
20
5.5
40
1.5
0
CIRCLE
5
62
100
AcDbEntity
8
0
6
ByLayer
62
256
370
-1
100
AcDbCircle
10
216.5
20
214.5
40
1.5
0
CIRCLE
5
63
100
AcDbEntity
8
0
6
ByLayer
62
256
370
-1
100
AcDbCircle
10
7.5
20
214.5
40
1.5
0
CIRCLE
5
64
100
AcDbEntity
8
0
6
ByLayer
62
256
370
-1
100
AcDbCircle
10
223.5
20
214.5
40
1.5
0
CIRCLE
5
65
100
AcDbEntity
8
0
6
ByLayer
62
256
370
-1
100
AcDbCircle
10
432.5
20
214.5
40
1.5
0
CIRCLE
5
66
100
AcDbEntity
8
0
6
ByLayer
62
256
370
-1
100
AcDbCircle
10
432.5
20
5.5
40
1.5
0
CIRCLE
5
67
100
AcDbEntity
8
0
6
ByLayer
62
256
370
-1
100
AcDbCircle
10
223.5
20
5.5
40
1.5
0
LINE
5
68
100
AcDbEntity
8
0
6
ByLayer
62
256
370
-1
100
AcDbLine
10
0
20
220
11
440
21
220
0
LINE
5
69
100
AcDbEntity
8
0
6
ByLayer
62
256
370
-1
100
AcDbLine
10
440
20
220
11
440
21
0
0
LINE
5
6A
100
AcDbEntity
8
0
6
ByLayer
62
256
370
-1
100
AcDbLine
10
440
20
0
11
0
21
0
0
LINE
5
6B
100
AcDbEntity
8
0
6
ByLayer
62
256
370
-1
100
AcDbLine
10
0
20
0
11
0
21
220
0
LINE
5
6C
100
AcDbEntity
8
BASE
6
ByLayer
62
3
370
-1
100
AcDbLine
10
286.12852
20
155.458005
11
330.63301
21
199.874661
0
LINE
5
6D
100
AcDbEntity
8
BASE
6
ByLayer
62
3
370
-1
100
AcDbLine
10
310.50001
20
220.003381
11
253.88645
21
163.501721
0
LINE
5
6E
100
AcDbEntity
8
BASE
6
ByLayer
62
3
370
-1
100
AcDbLine
10
253.88645
20
163.501721
11
187.229731
21
163.501721
0
LINE
5
6F
100
AcDbEntity
8
BASE
6
ByLayer
62
3
370
-1
100
AcDbLine
10
187.229731
20
163.501721
11
187.229731
21
163.351987
0
LINE
5
70
100
AcDbEntity
8
BASE
6
ByLayer
62
3
370
-1
100
AcDbLine
10
187.229731
20
163.351987
11
187.086314
21
163.391887
0
LINE
5
71
100
AcDbEntity
8
BASE
6
ByLayer
62
3
370
-1
100
AcDbLine
10
187.086314
20
163.391887
11
130.362909
21
220.003381
0
LINE
5
72
100
AcDbEntity
8
BASE
6
ByLayer
62
3
370
-1
100
AcDbLine
10
122.239084
20
166.914759
11
121.296343
21
166.843519
0
LINE
5
73
100
AcDbEntity
8
BASE
6
ByLayer
62
3
370
-1
100
AcDbLine
10
121.296343
20
166.843519
11
120.392099
21
166.651567
0
LINE
5
74
100
AcDbEntity
8
BASE
6
ByLayer
62
3
370
-1
100
AcDbLine
10
120.392099
20
166.651567
11
119.534646
21
166.347162
0
LINE
5
75
100
AcDbEntity
8
BASE
6
ByLayer
62
3
370
-1
100
AcDbLine
10
119.534646
20
166.347162
11
118.73227
21
165.938566
0
LINE
5
76
100
AcDbEntity
8
BASE
6
ByLayer
62
3
370
-1
100
AcDbLine
10
118.73227
20
165.938566
11
117.993257
21
165.434045
0
LINE
5
77
100
AcDbEntity
8
BASE
6
ByLayer
62
3
370
-1
100
AcDbLine
10
117.993257
20
165.434045
11
117.325891
21
164.841863
0
LINE
5
78
100
AcDbEntity
8
BASE
6
ByLayer
62
3
370
-1
100
AcDbLine
10
117.325891
20
164.841863
11
116.738458
21
164.170286
0
LINE
5
79
100
AcDbEntity
8
BASE
6
ByLayer
62
3
370
-1
100
AcDbLine
10
116.738458
20
164.170286
11
116.239251
21
163.427576
0
LINE
5
7A
100
AcDbEntity
8
BASE
6
ByLayer
62
3
370
-1
100
AcDbLine
10
116.239251
20
163.427576
11
115.836557
21
162.621996
0
LINE
5
7B
100
AcDbEntity
8
BASE
6
ByLayer
62
3
370
-1
100
AcDbLine
10
115.836557
20
162.621996
11
115.538659
21
161.761812
0
LINE
5
7C
100
AcDbEntity
8
BASE
6
ByLayer
62
3
370
-1
100
AcDbLine
10
115.538659
20
161.761812
11
115.353845
21
160.855287
0
LINE
5
7D
100
AcDbEntity
8
BASE
6
ByLayer
62
3
370
-1
100
AcDbLine
10
115.353845
20
160.855287
11
115.290385
21
159.91068
0
LINE
5
7E
100
AcDbEntity
8
BASE
6
ByLayer
62
3
370
-1
100
AcDbLine
10
115.290385
20
159.91068
11
115.353835
21
158.966089
0
LINE
5
7F
100
AcDbEntity
8
BASE
6
ByLayer
62
3
370
-1
100
AcDbLine
10
115.353835
20
158.966089
11
115.538673
21
158.059587
0
LINE
5
80
100
AcDbEntity
8
BASE
6
ByLayer
62
3
370
-1
100
AcDbLine
10
115.538673
20
158.059587
11
115.8366
21
157.199434
0
LINE
5
81
100
AcDbEntity
8
BASE
6
ByLayer
62
3
370
-1
100
AcDbLine
10
115.8366
20
157.199434
11
116.239326
21
156.393888
0
LINE
5
82
100
AcDbEntity
8
BASE
6
ByLayer
62
3
370
-1
100
AcDbLine
10
116.239326
20
156.393888
11
116.738563
21
155.651216
0
LINE
5
83
100
AcDbEntity
8
BASE
6
ByLayer
62
3
370
-1
100
AcDbLine
10
116.738563
20
155.651216
11
117.326018
21
154.979681
0
LINE
5
84
100
AcDbEntity
8
BASE
6
ByLayer
62
3
370
-1
100
AcDbLine
10
117.326018
20
154.979681
11
117.9934
21
154.38754
0
LINE
5
85
100
AcDbEntity
8
BASE
6
ByLayer
62
3
370
-1
100
AcDbLine
10
117.9934
20
154.38754
11
118.732421
21
153.883058
0
LINE
5
86
100
AcDbEntity
8
BASE
6
ByLayer
62
3
370
-1
100
AcDbLine
10
118.732421
20
153.883058
11
119.534789
21
153.474496
0
LINE
5
87
100
AcDbEntity
8
BASE
6
ByLayer
62
3
370
-1
100
AcDbLine
10
119.534789
20
153.474496
11
120.392219
21
153.170114
0
LINE
5
88
100
AcDbEntity
8
BASE
6
ByLayer
62
3
370
-1
100
AcDbLine
10
120.392219
20
153.170114
11
121.296417
21
152.978178
0
LINE
5
89
100
AcDbEntity
8
BASE
6
ByLayer
62
3
370
-1
100
AcDbLine
10
121.296417
20
152.978178
11
122.239082
21
152.906938
0
LINE
5
8A
100
AcDbEntity
8
BASE
6
ByLayer
62
3
370
-1
100
AcDbLine
10
138.486732
20
126.77562
11
138.486732
21
93.227753
0
LINE
5
8B
100
AcDbEntity
8
BASE
6
ByLayer
62
3
370
-1
100
AcDbLine
10
138.486732
20
93.227753
11
122.239082
21
76.983521
0
LINE
5
8C
100
AcDbEntity
8
BASE
6
ByLayer
62
3
370
-1
100
AcDbLine
10
122.239082
20
76.983521
11
122.239082
21
66.977082
0
LINE
5
8D
100
AcDbEntity
8
BASE
6
ByLayer
62
3
370
-1
100
AcDbLine
10
122.239082
20
66.977082
11
121.296341
21
66.905852
0
LINE
5
8E
100
AcDbEntity
8
BASE
6
ByLayer
62
3
370
-1
100
AcDbLine
10
121.296341
20
66.905852
11
120.392097
21
66.7139
0
LINE
5
8F
100
AcDbEntity
8
BASE
6
ByLayer
62
3
370
-1
100
AcDbLine
10
120.392097
20
66.7139
11
119.534644
21
66.409491
0
LINE
5
90
100
AcDbEntity
8
BASE
6
ByLayer
62
3
370
-1
100
AcDbLine
10
119.534644
20
66.409491
11
118.732268
21
66.000891
0
LINE
5
91
100
AcDbEntity
8
BASE
6
ByLayer
62
3
370
-1
100
AcDbLine
10
118.732268
20
66.000891
11
117.993255
21
65.496367
0
LINE
5
92
100
AcDbEntity
8
BASE
6
ByLayer
62
3
370
-1
100
AcDbLine
10
117.993255
20
65.496367
11
117.325889
21
64.904181
0
LINE
5
93
100
AcDbEntity
8
BASE
6
ByLayer
62
3
370
-1
100
AcDbLine
10
117.325889
20
64.904181
11
116.738456
21
64.232596
0
LINE
5
94
100
AcDbEntity
8
BASE
6
ByLayer
62
3
370
-1
100
AcDbLine
10
116.738456
20
64.232596
11
116.239249
21
63.489882
0
LINE
5
95
100
AcDbEntity
8
BASE
6
ByLayer
62
3
370
-1
100
AcDbLine
10
116.239249
20
63.489882
11
115.836555
21
62.684298
0
LINE
5
96
100
AcDbEntity
8
BASE
6
ByLayer
62
3
370
-1
100
AcDbLine
10
115.836555
20
62.684298
11
115.538657
21
61.824114
0
LINE
5
97
100
AcDbEntity
8
BASE
6
ByLayer
62
3
370
-1
100
AcDbLine
10
115.538657
20
61.824114
11
115.353843
21
60.917593
0
LINE
5
98
100
AcDbEntity
8
BASE
6
ByLayer
62
3
370
-1
100
AcDbLine
10
115.353843
20
60.917593
11
115.290383
21
59.972994
0
LINE
5
99
100
AcDbEntity
8
BASE
6
ByLayer
62
3
370
-1
100
AcDbLine
10
115.290383
20
59.972994
11
115.353833
21
59.028483
0
LINE
5
9A
100
AcDbEntity
8
BASE
6
ByLayer
62
3
370
-1
100
AcDbLine
10
115.353833
20
59.028483
11
115.538671
21
58.122046
0
LINE
5
9B
100
AcDbEntity
8
BASE
6
ByLayer
62
3
370
-1
100
AcDbLine
10
115.538671
20
58.122046
11
115.836598
21
57.261946
0
LINE
5
9C
100
AcDbEntity
8
BASE
6
ByLayer
62
3
370
-1
100
AcDbLine
10
115.836598
20
57.261946
11
116.239324
21
56.456446
0
LINE
5
9D
100
AcDbEntity
8
BASE
6
ByLayer
62
3
370
-1
100
AcDbLine
10
116.239324
20
56.456446
11
116.738561
21
55.713809
0
LINE
5
9E
100
AcDbEntity
8
BASE
6
ByLayer
62
3
370
-1
100
AcDbLine
10
116.738561
20
55.713809
11
117.326016
21
55.042296
0
LINE
5
9F
100
AcDbEntity
8
BASE
6
ByLayer
62
3
370
-1
100
AcDbLine
10
117.326016
20
55.042296
11
117.993398
21
54.450175
0
LINE
5
A0
100
AcDbEntity
8
BASE
6
ByLayer
62
3
370
-1
100
AcDbLine
10
117.993398
20
54.450175
11
118.732419
21
53.945704
0
LINE
5
A1
100
AcDbEntity
8
BASE
6
ByLayer
62
3
370
-1
100
AcDbLine
10
118.732419
20
53.945704
11
119.534787
21
53.53715
0
LINE
5
A2
100
AcDbEntity
8
BASE
6
ByLayer
62
3
370
-1
100
AcDbLine
10
119.534787
20
53.53715
11
120.392217
21
53.232775
0
LINE
5
A3
100
AcDbEntity
8
BASE
6
ByLayer
62
3
370
-1
100
AcDbLine
10
120.392217
20
53.232775
11
121.296415
21
53.040835
0
LINE
5
A4
100
AcDbEntity
8
BASE
6
ByLayer
62
3
370
-1
100
AcDbLine
10
121.296415
20
53.040835
11
122.23908
21
52.969605
0
LINE
5
A5
100
AcDbEntity
8
BASE
6
ByLayer
62
3
370
-1
100
AcDbLine
10
130.362905
20
0
11
186.954199
21
56.479767
0
LINE
5
A6
100
AcDbEntity
8
BASE
6
ByLayer
62
3
370
-1
100
AcDbLine
10
186.954199
20
56.479767
11
187.034029
21
56.501677
0
LINE
5
A7
100
AcDbEntity
8
BASE
6
ByLayer
62
3
370
-1
100
AcDbLine
10
187.034029
20
56.501677
11
253.88681
21
56.501677
0
LINE
5
A8
100
AcDbEntity
8
BASE
6
ByLayer
62
3
370
-1
100
AcDbLine
10
253.88681
20
56.501677
11
310.5
21
0
0
LINE
5
A9
100
AcDbEntity
8
BASE
6
ByLayer
62
3
370
-1
100
AcDbLine
10
318.62384
20
102.761702
11
318.62884
21
102.761565
0
LINE
5
AA
100
AcDbEntity
8
BASE
6
ByLayer
62
3
370
-1
100
AcDbLine
10
318.62884
20
102.761565
11
318.63384
21
102.761345
0
LINE
5
AB
100
AcDbEntity
8
BASE
6
ByLayer
62
3
370
-1
100
AcDbLine
10
318.63384
20
102.761345
11
318.63884
21
102.761058
0
LINE
5
AC
100
AcDbEntity
8
BASE
6
ByLayer
62
3
370
-1
100
AcDbLine
10
318.63884
20
102.761058
11
318.64384
21
102.760723
0
LINE
5
AD
100
AcDbEntity
8
BASE
6
ByLayer
62
3
370
-1
100
AcDbLine
10
318.64384
20
102.760723
11
318.64884
21
102.760359
0
LINE
5
AE
100
AcDbEntity
8
BASE
6
ByLayer
62
3
370
-1
100
AcDbLine
10
318.64884
20
102.760359
11
318.65384
21
102.759983
0
LINE
5
AF
100
AcDbEntity
8
BASE
6
ByLayer
62
3
370
-1
100
AcDbLine
10
318.65384
20
102.759983
11
318.65884
21
102.759615
0
LINE
5
B0
100
AcDbEntity
8
BASE
6
ByLayer
62
3
370
-1
100
AcDbLine
10
318.65884
20
102.759615
11
318.66384
21
102.759273
0
LINE
5
B1
100
AcDbEntity
8
BASE
6
ByLayer
62
3
370
-1
100
AcDbLine
10
318.66384
20
102.759273
11
318.66884
21
102.758974
0
LINE
5
B2
100
AcDbEntity
8
BASE
6
ByLayer
62
3
370
-1
100
AcDbLine
10
318.66884
20
102.758974
11
318.67384
21
102.758739
0
LINE
5
B3
100
AcDbEntity
8
BASE
6
ByLayer
62
3
370
-1
100
AcDbLine
10
318.67384
20
102.758739
11
318.67884
21
102.758584
0
LINE
5
B4
100
AcDbEntity
8
BASE
6
ByLayer
62
3
370
-1
100
AcDbLine
10
318.67884
20
102.758584
11
318.68384
21
102.758528
0
LINE
5
B5
100
AcDbEntity
8
BASE
6
ByLayer
62
3
370
-1
100
AcDbLine
10
318.68384
20
102.758528
11
319.63347
21
102.822598
0
LINE
5
B6
100
AcDbEntity
8
BASE
6
ByLayer
62
3
370
-1
100
AcDbLine
10
319.63347
20
102.822598
11
320.54466
21
103.009217
0
LINE
5
B7
100
AcDbEntity
8
BASE
6
ByLayer
62
3
370
-1
100
AcDbLine
10
320.54466
20
103.009217
11
321.40901
21
103.309971
0
LINE
5
B8
100
AcDbEntity
8
BASE
6
ByLayer
62
3
370
-1
100
AcDbLine
10
321.40901
20
103.309971
11
322.21813
21
103.716447
0
LINE
5
B9
100
AcDbEntity
8
BASE
6
ByLayer
62
3
370
-1
100
AcDbLine
10
322.21813
20
103.716447
11
322.96355
21
104.220237
0
LINE
5
BA
100
AcDbEntity
8
BASE
6
ByLayer
62
3
370
-1
100
AcDbLine
10
322.96355
20
104.220237
11
323.63689
21
104.81293
0
LINE
5
BB
100
AcDbEntity
8
BASE
6
ByLayer
62
3
370
-1
100
AcDbLine
10
323.63689
20
104.81293
11
324.22974
21
105.486116
0
LINE
5
BC
100
AcDbEntity
8
BASE
6
ByLayer
62
3
370
-1
100
AcDbLine
10
324.22974
20
105.486116
11
324.73366
21
106.231385
0
LINE
5
BD
100
AcDbEntity
8
BASE
6
ByLayer
62
3
370
-1
100
AcDbLine
10
324.73366
20
106.231385
11
325.14024
21
107.040327
0
LINE
5
BE
100
AcDbEntity
8
BASE
6
ByLayer
62
3
370
-1
100
AcDbLine
10
325.14024
20
107.040327
11
325.44109
21
107.904531
0
LINE
5
BF
100
AcDbEntity
8
BASE
6
ByLayer
62
3
370
-1
100
AcDbLine
10
325.44109
20
107.904531
11
325.62776
21
108.815588
0
LINE
5
C0
100
AcDbEntity
8
BASE
6
ByLayer
62
3
370
-1
100
AcDbLine
10
325.62776
20
108.815588
11
325.69186
21
109.765085
0
LINE
5
C1
100
AcDbEntity
8
BASE
6
ByLayer
62
3
370
-1
100
AcDbLine
10
325.69186
20
109.765085
11
325.62776
21
110.714593
0
LINE
5
C2
100
AcDbEntity
8
BASE
6
ByLayer
62
3
370
-1
100
AcDbLine
10
325.62776
20
110.714593
11
325.4411
21
111.625684
0
LINE
5
C3
100
AcDbEntity
8
BASE
6
ByLayer
62
3
370
-1
100
AcDbLine
10
325.4411
20
111.625684
11
325.14029
21
112.489944
0
LINE
5
C4
100
AcDbEntity
8
BASE
6
ByLayer
62
3
370
-1
100
AcDbLine
10
325.14029
20
112.489944
11
324.73371
21
113.298955
0
LINE
5
C5
100
AcDbEntity
8
BASE
6
ByLayer
62
3
370
-1
100
AcDbLine
10
324.73371
20
113.298955
11
324.22982
21
114.044305
0
LINE
5
C6
100
AcDbEntity
8
BASE
6
ByLayer
62
3
370
-1
100
AcDbLine
10
324.22982
20
114.044305
11
323.63699
21
114.717577
0
LINE
5
C7
100
AcDbEntity
8
BASE
6
ByLayer
62
3
370
-1
100
AcDbLine
10
323.63699
20
114.717577
11
322.96368
21
115.310356
0
LINE
5
C8
100
AcDbEntity
8
BASE
6
ByLayer
62
3
370
-1
100
AcDbLine
10
322.96368
20
115.310356
11
322.21826
21
115.814227
0
LINE
5
C9
100
AcDbEntity
8
BASE
6
ByLayer
62
3
370
-1
100
AcDbLine
10
322.21826
20
115.814227
11
321.40915
21
116.220775
0
LINE
5
CA
100
AcDbEntity
8
BASE
6
ByLayer
62
3
370
-1
100
AcDbLine
10
321.40915
20
116.220775
11
320.54477
21
116.521586
0
LINE
5
CB
100
AcDbEntity
8
BASE
6
ByLayer
62
3
370
-1
100
AcDbLine
10
320.54477
20
116.521586
11
319.63351
21
116.708243
0
LINE
5
CC
100
AcDbEntity
8
BASE
6
ByLayer
62
3
370
-1
100
AcDbLine
10
319.63351
20
116.708243
11
318.68382
21
116.772333
0
LINE
5
CD
100
AcDbEntity
8
BASE
6
ByLayer
62
3
370
-1
100
AcDbLine
10
318.68382
20
116.772333
11
318.67882
21
116.772277
0
LINE
5
CE
100
AcDbEntity
8
BASE
6
ByLayer
62
3
370
-1
100
AcDbLine
10
318.67882
20
116.772277
11
318.67382
21
116.772123
0
LINE
5
CF
100
AcDbEntity
8
BASE
6
ByLayer
62
3
370
-1
100
AcDbLine
10
318.67382
20
116.772123
11
318.66882
21
116.771887
0
LINE
5
D0
100
AcDbEntity
8
BASE
6
ByLayer
62
3
370
-1
100
AcDbLine
10
318.66882
20
116.771887
11
318.66382
21
116.77159
0
LINE
5
D1
100
AcDbEntity
8
BASE
6
ByLayer
62
3
370
-1
100
AcDbLine
10
318.66382
20
116.77159
11
318.65882
21
116.771248
0
LINE
5
D2
100
AcDbEntity
8
BASE
6
ByLayer
62
3
370
-1
100
AcDbLine
10
318.65882
20
116.771248
11
318.65382
21
116.770881
0
LINE
5
D3
100
AcDbEntity
8
BASE
6
ByLayer
62
3
370
-1
100
AcDbLine
10
318.65382
20
116.770881
11
318.64882
21
116.770507
0
LINE
5
D4
100
AcDbEntity
8
BASE
6
ByLayer
62
3
370
-1
100
AcDbLine
10
318.64882
20
116.770507
11
318.64382
21
116.770145
0
LINE
5
D5
100
AcDbEntity
8
BASE
6
ByLayer
62
3
370
-1
100
AcDbLine
10
318.64382
20
116.770145
11
318.63882
21
116.769812
0
LINE
5
D6
100
AcDbEntity
8
BASE
6
ByLayer
62
3
370
-1
100
AcDbLine
10
318.63882
20
116.769812
11
318.63382
21
116.769528
0
LINE
5
D7
100
AcDbEntity
8
BASE
6
ByLayer
62
3
370
-1
100
AcDbLine
10
318.63382
20
116.769528
11
318.62882
21
116.769311
0
LINE
5
D8
100
AcDbEntity
8
BASE
6
ByLayer
62
3
370
-1
100
AcDbLine
10
318.62882
20
116.769311
11
318.62382
21
116.769174
0
LINE
5
D9
100
AcDbEntity
8
BASE
6
ByLayer
62
3
370
-1
100
AcDbLine
10
323.39219
20
214.693982
11
323.40679
21
214.911252
0
LINE
5
DA
100
AcDbEntity
8
BASE
6
ByLayer
62
3
370
-1
100
AcDbLine
10
323.40679
20
214.911252
11
323.44939
21
215.119649
0
LINE
5
DB
100
AcDbEntity
8
BASE
6
ByLayer
62
3
370
-1
100
AcDbLine
10
323.44939
20
215.119649
11
323.51799
21
215.317265
0
LINE
5
DC
100
AcDbEntity
8
BASE
6
ByLayer
62
3
370
-1
100
AcDbLine
10
323.51799
20
215.317265
11
323.61079
21
215.502194
0
LINE
5
DD
100
AcDbEntity
8
BASE
6
ByLayer
62
3
370
-1
100
AcDbLine
10
323.61079
20
215.502194
11
323.72584
21
215.672521
0
LINE
5
DE
100
AcDbEntity
8
BASE
6
ByLayer
62
3
370
-1
100
AcDbLine
10
323.72584
20
215.672521
11
323.86123
21
215.826329
0
LINE
5
DF
100
AcDbEntity
8
BASE
6
ByLayer
62
3
370
-1
100
AcDbLine
10
323.86123
20
215.826329
11
324.01506
21
215.96172
0
LINE
5
E0
100
AcDbEntity
8
BASE
6
ByLayer
62
3
370
-1
100
AcDbLine
10
324.01506
20
215.96172
11
324.18541
21
216.076779
0
LINE
5
E1
100
AcDbEntity
8
BASE
6
ByLayer
62
3
370
-1
100
AcDbLine
10
324.18541
20
216.076779
11
324.37037
21
216.169589
0
LINE
5
E2
100
AcDbEntity
8
BASE
6
ByLayer
62
3
370
-1
100
AcDbLine
10
324.37037
20
216.169589
11
324.56805
21
216.238249
0
LINE
5
E3
100
AcDbEntity
8
BASE
6
ByLayer
62
3
370
-1
100
AcDbLine
10
324.56805
20
216.238249
11
324.77653
21
216.280839
0
LINE
5
E4
100
AcDbEntity
8
BASE
6
ByLayer
62
3
370
-1
100
AcDbLine
10
324.77653
20
216.280839
11
324.99391
21
216.295459
0
LINE
5
E5
100
AcDbEntity
8
BASE
6
ByLayer
62
3
370
-1
100
AcDbLine
10
324.99391
20
216.295459
11
325.2113
21
216.280839
0
LINE
5
E6
100
AcDbEntity
8
BASE
6
ByLayer
62
3
370
-1
100
AcDbLine
10
325.2113
20
216.280839
11
325.4198
21
216.238239
0
LINE
5
E7
100
AcDbEntity
8
BASE
6
ByLayer
62
3
370
-1
100
AcDbLine
10
325.4198
20
216.238239
11
325.61749
21
216.169579
0
LINE
5
E8
100
AcDbEntity
8
BASE
6
ByLayer
62
3
370
-1
100
AcDbLine
10
325.61749
20
216.169579
11
325.80246
21
216.076769
0
LINE
5
E9
100
AcDbEntity
8
BASE
6
ByLayer
62
3
370
-1
100
AcDbLine
10
325.80246
20
216.076769
11
325.9728
21
215.96171
0
LINE
5
EA
100
AcDbEntity
8
BASE
6
ByLayer
62
3
370
-1
100
AcDbLine
10
325.9728
20
215.96171
11
326.12664
21
215.826319
0
LINE
5
EB
100
AcDbEntity
8
BASE
6
ByLayer
62
3
370
-1
100
AcDbLine
10
326.12664
20
215.826319
11
326.26202
21
215.67251
0
LINE
5
EC
100
AcDbEntity
8
BASE
6
ByLayer
62
3
370
-1
100
AcDbLine
10
326.26202
20
215.67251
11
326.37707
21
215.502184
0
LINE
5
ED
100
AcDbEntity
8
BASE
6
ByLayer
62
3
370
-1
100
AcDbLine
10
326.37707
20
215.502184
11
326.46987
21
215.317255
0
LINE
5
EE
100
AcDbEntity
8
BASE
6
ByLayer
62
3
370
-1
100
AcDbLine
10
326.46987
20
215.317255
11
326.53857
21
215.119638
0
LINE
5
EF
100
AcDbEntity
8
BASE
6
ByLayer
62
3
370
-1
100
AcDbLine
10
326.53857
20
215.119638
11
326.58117
21
214.911241
0
LINE
5
F0
100
AcDbEntity
8
BASE
6
ByLayer
62
3
370
-1
100
AcDbLine
10
326.58117
20
214.911241
11
326.59577
21
214.693979
0
LINE
5
F1
100
AcDbEntity
8
BASE
6
ByLayer
62
3
370
-1
100
AcDbLine
10
326.59577
20
214.693979
11
326.58117
21
214.476641
0
LINE
5
F2
100
AcDbEntity
8
BASE
6
ByLayer
62
3
370
-1
100
AcDbLine
10
326.58117
20
214.476641
11
326.53857
21
214.268198
0
LINE
5
F3
100
AcDbEntity
8
BASE
6
ByLayer
62
3
370
-1
100
AcDbLine
10
326.53857
20
214.268198
11
326.46997
21
214.070558
0
LINE
5
F4
100
AcDbEntity
8
BASE
6
ByLayer
62
3
370
-1
100
AcDbLine
10
326.46997
20
214.070558
11
326.37717
21
213.885629
0
LINE
5
F5
100
AcDbEntity
8
BASE
6
ByLayer
62
3
370
-1
100
AcDbLine
10
326.37717
20
213.885629
11
326.26211
21
213.715318
0
LINE
5
F6
100
AcDbEntity
8
BASE
6
ByLayer
62
3
370
-1
100
AcDbLine
10
326.26211
20
213.715318
11
326.12672
21
213.561525
0
LINE
5
F7
100
AcDbEntity
8
BASE
6
ByLayer
62
3
370
-1
100
AcDbLine
10
326.12672
20
213.561525
11
325.9729
21
213.426164
0
LINE
5
F8
100
AcDbEntity
8
BASE
6
ByLayer
62
3
370
-1
100
AcDbLine
10
325.9729
20
213.426164
11
325.80254
21
213.311136
0
LINE
5
F9
100
AcDbEntity
8
BASE
6
ByLayer
62
3
370
-1
100
AcDbLine
10
325.80254
20
213.311136
11
325.61757
21
213.218356
0
LINE
5
FA
100
AcDbEntity
8
BASE
6
ByLayer
62
3
370
-1
100
AcDbLine
10
325.61757
20
213.218356
11
325.41988
21
213.149726
0
LINE
5
FB
100
AcDbEntity
8
BASE
6
ByLayer
62
3
370
-1
100
AcDbLine
10
325.41988
20
213.149726
11
325.21138
21
213.107146
0
LINE
5
FC
100
AcDbEntity
8
BASE
6
ByLayer
62
3
370
-1
100
AcDbLine
10
325.21138
20
213.107146
11
324.99399
21
213.092526
0
LINE
5
FD
100
AcDbEntity
8
BASE
6
ByLayer
62
3
370
-1
100
AcDbLine
10
324.99399
20
213.092526
11
324.77661
21
213.107146
0
LINE
5
FE
100
AcDbEntity
8
BASE
6
ByLayer
62
3
370
-1
100
AcDbLine
10
324.77661
20
213.107146
11
324.56813
21
213.149726
0
LINE
5
FF
100
AcDbEntity
8
BASE
6
ByLayer
62
3
370
-1
100
AcDbLine
10
324.56813
20
213.149726
11
324.37045
21
213.218356
0
LINE
5
100
100
AcDbEntity
8
BASE
6
ByLayer
62
3
370
-1
100
AcDbLine
10
324.37045
20
213.218356
11
324.18549
21
213.311136
0
LINE
5
101
100
AcDbEntity
8
BASE
6
ByLayer
62
3
370
-1
100
AcDbLine
10
324.18549
20
213.311136
11
324.01514
21
213.426164
0
LINE
5
102
100
AcDbEntity
8
BASE
6
ByLayer
62
3
370
-1
100
AcDbLine
10
324.01514
20
213.426164
11
323.86131
21
213.561525
0
LINE
5
103
100
AcDbEntity
8
BASE
6
ByLayer
62
3
370
-1
100
AcDbLine
10
323.86131
20
213.561525
11
323.72592
21
213.715318
0
LINE
5
104
100
AcDbEntity
8
BASE
6
ByLayer
62
3
370
-1
100
AcDbLine
10
323.72592
20
213.715318
11
323.61087
21
213.885629
0
LINE
5
105
100
AcDbEntity
8
BASE
6
ByLayer
62
3
370
-1
100
AcDbLine
10
323.61087
20
213.885629
11
323.51807
21
214.070558
0
LINE
5
106
100
AcDbEntity
8
BASE
6
ByLayer
62
3
370
-1
100
AcDbLine
10
323.51807
20
214.070558
11
323.44947
21
214.268198
0
LINE
5
107
100
AcDbEntity
8
BASE
6
ByLayer
62
3
370
-1
100
AcDbLine
10
323.44947
20
214.268198
11
323.40687
21
214.476641
0
LINE
5
108
100
AcDbEntity
8
BASE
6
ByLayer
62
3
370
-1
100
AcDbLine
10
323.40687
20
214.476641
11
323.39227
21
214.693979
0
LINE
5
109
100
AcDbEntity
8
BASE
6
ByLayer
62
3
370
-1
100
AcDbLine
10
117.142617
20
214.693982
11
117.127997
21
214.476644
0
LINE
5
10A
100
AcDbEntity
8
BASE
6
ByLayer
62
3
370
-1
100
AcDbLine
10
117.127997
20
214.476644
11
117.085387
21
214.268201
0
LINE
5
10B
100
AcDbEntity
8
BASE
6
ByLayer
62
3
370
-1
100
AcDbLine
10
117.085387
20
214.268201
11
117.016707
21
214.070561
0
LINE
5
10C
100
AcDbEntity
8
BASE
6
ByLayer
62
3
370
-1
100
AcDbLine
10
117.016707
20
214.070561
11
116.923867
21
213.885632
0
LINE
5
10D
100
AcDbEntity
8
BASE
6
ByLayer
62
3
370
-1
100
AcDbLine
10
116.923867
20
213.885632
11
116.80877
21
213.715321
0
LINE
5
10E
100
AcDbEntity
8
BASE
6
ByLayer
62
3
370
-1
100
AcDbLine
10
116.80877
20
213.715321
11
116.673333
21
213.561528
0
LINE
5
10F
100
AcDbEntity
8
BASE
6
ByLayer
62
3
370
-1
100
AcDbLine
10
116.673333
20
213.561528
11
116.519463
21
213.426167
0
LINE
5
110
100
AcDbEntity
8
BASE
6
ByLayer
62
3
370
-1
100
AcDbLine
10
116.519463
20
213.426167
11
116.349068
21
213.311139
0
LINE
5
111
100
AcDbEntity
8
BASE
6
ByLayer
62
3
370
-1
100
AcDbLine
10
116.349068
20
213.311139
11
116.164063
21
213.218359
0
LINE
5
112
100
AcDbEntity
8
BASE
6
ByLayer
62
3
370
-1
100
AcDbLine
10
116.164063
20
213.218359
11
115.966355
21
213.149729
0
LINE
5
113
100
AcDbEntity
8
BASE
6
ByLayer
62
3
370
-1
100
AcDbLine
10
115.966355
20
213.149729
11
115.757851
21
213.107149
0
LINE
5
114
100
AcDbEntity
8
BASE
6
ByLayer
62
3
370
-1
100
AcDbLine
10
115.757851
20
213.107149
11
115.540459
21
213.092529
0
LINE
5
115
100
AcDbEntity
8
BASE
6
ByLayer
62
3
370
-1
100
AcDbLine
10
115.540459
20
213.092529
11
115.323075
21
213.107149
0
LINE
5
116
100
AcDbEntity
8
BASE
6
ByLayer
62
3
370
-1
100
AcDbLine
10
115.323075
20
213.107149
11
115.114586
21
213.149729
0
LINE
5
117
100
AcDbEntity
8
BASE
6
ByLayer
62
3
370
-1
100
AcDbLine
10
115.114586
20
213.149729
11
114.916901
21
213.218359
0
LINE
5
118
100
AcDbEntity
8
BASE
6
ByLayer
62
3
370
-1
100
AcDbLine
10
114.916901
20
213.218359
11
114.731934
21
213.311139
0
LINE
5
119
100
AcDbEntity
8
BASE
6
ByLayer
62
3
370
-1
100
AcDbLine
10
114.731934
20
213.311139
11
114.561585
21
213.426167
0
LINE
5
11A
100
AcDbEntity
8
BASE
6
ByLayer
62
3
370
-1
100
AcDbLine
10
114.561585
20
213.426167
11
114.407761
21
213.561528
0
LINE
5
11B
100
AcDbEntity
8
BASE
6
ByLayer
62
3
370
-1
100
AcDbLine
10
114.407761
20
213.561528
11
114.27237
21
213.715321
0
LINE
5
11C
100
AcDbEntity
8
BASE
6
ByLayer
62
3
370
-1
100
AcDbLine
10
114.27237
20
213.715321
11
114.157319
21
213.885632
0
LINE
5
11D
100
AcDbEntity
8
BASE
6
ByLayer
62
3
370
-1
100
AcDbLine
10
114.157319
20
213.885632
11
114.064519
21
214.070561
0
LINE
5
11E
100
AcDbEntity
8
BASE
6
ByLayer
62
3
370
-1
100
AcDbLine
10
114.064519
20
214.070561
11
113.995869
21
214.268201
0
LINE
5
11F
100
AcDbEntity
8
BASE
6
ByLayer
62
3
370
-1
100
AcDbLine
10
113.995869
20
214.268201
11
113.953279
21
214.476644
0
LINE
5
120
100
AcDbEntity
8
BASE
6
ByLayer
62
3
370
-1
100
AcDbLine
10
113.953279
20
214.476644
11
113.938659
21
214.693982
0
LINE
5
121
100
AcDbEntity
8
BASE
6
ByLayer
62
3
370
-1
100
AcDbLine
10
113.938659
20
214.693982
11
113.953279
21
214.911252
0
LINE
5
122
100
AcDbEntity
8
BASE
6
ByLayer
62
3
370
-1
100
AcDbLine
10
113.953279
20
214.911252
11
113.995869
21
215.119649
0
LINE
5
123
100
AcDbEntity
8
BASE
6
ByLayer
62
3
370
-1
100
AcDbLine
10
113.995869
20
215.119649
11
114.064519
21
215.317265
0
LINE
5
124
100
AcDbEntity
8
BASE
6
ByLayer
62
3
370
-1
100
AcDbLine
10
114.064519
20
215.317265
11
114.157319
21
215.502194
0
LINE
5
125
100
AcDbEntity
8
BASE
6
ByLayer
62
3
370
-1
100
AcDbLine
10
114.157319
20
215.502194
11
114.27237
21
215.672521
0
LINE
5
126
100
AcDbEntity
8
BASE
6
ByLayer
62
3
370
-1
100
AcDbLine
10
114.27237
20
215.672521
11
114.407762
21
215.826329
0
LINE
5
127
100
AcDbEntity
8
BASE
6
ByLayer
62
3
370
-1
100
AcDbLine
10
114.407762
20
215.826329
11
114.561585
21
215.96172
0
LINE
5
128
100
AcDbEntity
8
BASE
6
ByLayer
62
3
370
-1
100
AcDbLine
10
114.561585
20
215.96172
11
114.731935
21
216.076779
0
LINE
5
129
100
AcDbEntity
8
BASE
6
ByLayer
62
3
370
-1
100
AcDbLine
10
114.731935
20
216.076779
11
114.916902
21
216.169589
0
LINE
5
12A
100
AcDbEntity
8
BASE
6
ByLayer
62
3
370
-1
100
AcDbLine
10
114.916902
20
216.169589
11
115.114587
21
216.238249
0
LINE
5
12B
100
AcDbEntity
8
BASE
6
ByLayer
62
3
370
-1
100
AcDbLine
10
115.114587
20
216.238249
11
115.323075
21
216.280839
0
LINE
5
12C
100
AcDbEntity
8
BASE
6
ByLayer
62
3
370
-1
100
AcDbLine
10
115.323075
20
216.280839
11
115.540467
21
216.295459
0
LINE
5
12D
100
AcDbEntity
8
BASE
6
ByLayer
62
3
370
-1
100
AcDbLine
10
115.540467
20
216.295459
11
115.757859
21
216.280839
0
LINE
5
12E
100
AcDbEntity
8
BASE
6
ByLayer
62
3
370
-1
100
AcDbLine
10
115.757859
20
216.280839
11
115.966363
21
216.238239
0
LINE
5
12F
100
AcDbEntity
8
BASE
6
ByLayer
62
3
370
-1
100
AcDbLine
10
115.966363
20
216.238239
11
116.164071
21
216.169579
0
LINE
5
130
100
AcDbEntity
8
BASE
6
ByLayer
62
3
370
-1
100
AcDbLine
10
116.164071
20
216.169579
11
116.349076
21
216.076769
0
LINE
5
131
100
AcDbEntity
8
BASE
6
ByLayer
62
3
370
-1
100
AcDbLine
10
116.349076
20
216.076769
11
116.519471
21
215.96171
0
LINE
5
132
100
AcDbEntity
8
BASE
6
ByLayer
62
3
370
-1
100
AcDbLine
10
116.519471
20
215.96171
11
116.673341
21
215.826319
0
LINE
5
133
100
AcDbEntity
8
BASE
6
ByLayer
62
3
370
-1
100
AcDbLine
10
116.673341
20
215.826319
11
116.808778
21
215.67251
0
LINE
5
134
100
AcDbEntity
8
BASE
6
ByLayer
62
3
370
-1
100
AcDbLine
10
116.808778
20
215.67251
11
116.923867
21
215.502184
0
LINE
5
135
100
AcDbEntity
8
BASE
6
ByLayer
62
3
370
-1
100
AcDbLine
10
116.923867
20
215.502184
11
117.016707
21
215.317255
0
LINE
5
136
100
AcDbEntity
8
BASE
6
ByLayer
62
3
370
-1
100
AcDbLine
10
117.016707
20
215.317255
11
117.085387
21
215.119638
0
LINE
5
137
100
AcDbEntity
8
BASE
6
ByLayer
62
3
370
-1
100
AcDbLine
10
117.085387
20
215.119638
11
117.127997
21
214.911241
0
LINE
5
138
100
AcDbEntity
8
BASE
6
ByLayer
62
3
370
-1
100
AcDbLine
10
117.127997
20
214.911241
11
117.142627
21
214.693979
0
LINE
5
139
100
AcDbEntity
8
BASE
6
ByLayer
62
3
370
-1
100
AcDbLine
10
117.142617
20
5.63783
11
117.127997
21
5.42049
0
LINE
5
13A
100
AcDbEntity
8
BASE
6
ByLayer
62
3
370
-1
100
AcDbLine
10
117.127997
20
5.42049
11
117.085387
21
5.21205
0
LINE
5
13B
100
AcDbEntity
8
BASE
6
ByLayer
62
3
370
-1
100
AcDbLine
10
117.085387
20
5.21205
11
117.016707
21
5.0144
0
LINE
5
13C
100
AcDbEntity
8
BASE
6
ByLayer
62
3
370
-1
100
AcDbLine
10
117.016707
20
5.0144
11
116.923867
21
4.82946
0
LINE
5
13D
100
AcDbEntity
8
BASE
6
ByLayer
62
3
370
-1
100
AcDbLine
10
116.923867
20
4.82946
11
116.80877
21
4.65915
0
LINE
5
13E
100
AcDbEntity
8
BASE
6
ByLayer
62
3
370
-1
100
AcDbLine
10
116.80877
20
4.65915
11
116.673333
21
4.50535
0
LINE
5
13F
100
AcDbEntity
8
BASE
6
ByLayer
62
3
370
-1
100
AcDbLine
10
116.673333
20
4.50535
11
116.519463
21
4.36998
0
LINE
5
140
100
AcDbEntity
8
BASE
6
ByLayer
62
3
370
-1
100
AcDbLine
10
116.519463
20
4.36998
11
116.349068
21
4.25496
0
LINE
5
141
100
AcDbEntity
8
BASE
6
ByLayer
62
3
370
-1
100
AcDbLine
10
116.349068
20
4.25496
11
116.164063
21
4.16216
0
LINE
5
142
100
AcDbEntity
8
BASE
6
ByLayer
62
3
370
-1
100
AcDbLine
10
116.164063
20
4.16216
11
115.966355
21
4.09356
0
LINE
5
143
100
AcDbEntity
8
BASE
6
ByLayer
62
3
370
-1
100
AcDbLine
10
115.966355
20
4.09356
11
115.757851
21
4.05096
0
LINE
5
144
100
AcDbEntity
8
BASE
6
ByLayer
62
3
370
-1
100
AcDbLine
10
115.757851
20
4.05096
11
115.540459
21
4.03636
0
LINE
5
145
100
AcDbEntity
8
BASE
6
ByLayer
62
3
370
-1
100
AcDbLine
10
115.540459
20
4.03636
11
115.323075
21
4.05096
0
LINE
5
146
100
AcDbEntity
8
BASE
6
ByLayer
62
3
370
-1
100
AcDbLine
10
115.323075
20
4.05096
11
115.114586
21
4.09356
0
LINE
5
147
100
AcDbEntity
8
BASE
6
ByLayer
62
3
370
-1
100
AcDbLine
10
115.114586
20
4.09356
11
114.916901
21
4.16216
0
LINE
5
148
100
AcDbEntity
8
BASE
6
ByLayer
62
3
370
-1
100
AcDbLine
10
114.916901
20
4.16216
11
114.731934
21
4.25496
0
LINE
5
149
100
AcDbEntity
8
BASE
6
ByLayer
62
3
370
-1
100
AcDbLine
10
114.731934
20
4.25496
11
114.561585
21
4.36999
0
LINE
5
14A
100
AcDbEntity
8
BASE
6
ByLayer
62
3
370
-1
100
AcDbLine
10
114.561585
20
4.36999
11
114.407761
21
4.50535
0
LINE
5
14B
100
AcDbEntity
8
BASE
6
ByLayer
62
3
370
-1
100
AcDbLine
10
114.407761
20
4.50535
11
114.27237
21
4.65915
0
LINE
5
14C
100
AcDbEntity
8
BASE
6
ByLayer
62
3
370
-1
100
AcDbLine
10
114.27237
20
4.65915
11
114.157319
21
4.82947
0
LINE
5
14D
100
AcDbEntity
8
BASE
6
ByLayer
62
3
370
-1
100
AcDbLine
10
114.157319
20
4.82947
11
114.064519
21
5.0144
0
LINE
5
14E
100
AcDbEntity
8
BASE
6
ByLayer
62
3
370
-1
100
AcDbLine
10
114.064519
20
5.0144
11
113.995869
21
5.21205
0
LINE
5
14F
100
AcDbEntity
8
BASE
6
ByLayer
62
3
370
-1
100
AcDbLine
10
113.995869
20
5.21205
11
113.953279
21
5.42049
0
LINE
5
150
100
AcDbEntity
8
BASE
6
ByLayer
62
3
370
-1
100
AcDbLine
10
113.953279
20
5.42049
11
113.938659
21
5.63784
0
LINE
5
151
100
AcDbEntity
8
BASE
6
ByLayer
62
3
370
-1
100
AcDbLine
10
113.938659
20
5.63784
11
113.953279
21
5.85509
0
LINE
5
152
100
AcDbEntity
8
BASE
6
ByLayer
62
3
370
-1
100
AcDbLine
10
113.953279
20
5.85509
11
113.995869
21
6.06348
0
LINE
5
153
100
AcDbEntity
8
BASE
6
ByLayer
62
3
370
-1
100
AcDbLine
10
113.995869
20
6.06348
11
114.064519
21
6.26109
0
LINE
5
154
100
AcDbEntity
8
BASE
6
ByLayer
62
3
370
-1
100
AcDbLine
10
114.064519
20
6.26109
11
114.157319
21
6.44601
0
LINE
5
155
100
AcDbEntity
8
BASE
6
ByLayer
62
3
370
-1
100
AcDbLine
10
114.157319
20
6.44601
11
114.27237
21
6.61634
0
LINE
5
156
100
AcDbEntity
8
BASE
6
ByLayer
62
3
370
-1
100
AcDbLine
10
114.27237
20
6.61634
11
114.407762
21
6.77016
0
LINE
5
157
100
AcDbEntity
8
BASE
6
ByLayer
62
3
370
-1
100
AcDbLine
10
114.407762
20
6.77016
11
114.561585
21
6.90555
0
LINE
5
158
100
AcDbEntity
8
BASE
6
ByLayer
62
3
370
-1
100
AcDbLine
10
114.561585
20
6.90555
11
114.731935
21
7.02061
0
LINE
5
159
100
AcDbEntity
8
BASE
6
ByLayer
62
3
370
-1
100
AcDbLine
10
114.731935
20
7.02061
11
114.916902
21
7.11341
0
LINE
5
15A
100
AcDbEntity
8
BASE
6
ByLayer
62
3
370
-1
100
AcDbLine
10
114.916902
20
7.11341
11
115.114587
21
7.18211
0
LINE
5
15B
100
AcDbEntity
8
BASE
6
ByLayer
62
3
370
-1
100
AcDbLine
10
115.114587
20
7.18211
11
115.323075
21
7.22471
0
LINE
5
15C
100
AcDbEntity
8
BASE
6
ByLayer
62
3
370
-1
100
AcDbLine
10
115.323075
20
7.22471
11
115.540467
21
7.23931
0
LINE
5
15D
100
AcDbEntity
8
BASE
6
ByLayer
62
3
370
-1
100
AcDbLine
10
115.540467
20
7.23931
11
115.757859
21
7.22471
0
LINE
5
15E
100
AcDbEntity
8
BASE
6
ByLayer
62
3
370
-1
100
AcDbLine
10
115.757859
20
7.22471
11
115.966363
21
7.18211
0
LINE
5
15F
100
AcDbEntity
8
BASE
6
ByLayer
62
3
370
-1
100
AcDbLine
10
115.966363
20
7.18211
11
116.164071
21
7.11341
0
LINE
5
160
100
AcDbEntity
8
BASE
6
ByLayer
62
3
370
-1
100
AcDbLine
10
116.164071
20
7.11341
11
116.349076
21
7.02061
0
LINE
5
161
100
AcDbEntity
8
BASE
6
ByLayer
62
3
370
-1
100
AcDbLine
10
116.349076
20
7.02061
11
116.519471
21
6.90555
0
LINE
5
162
100
AcDbEntity
8
BASE
6
ByLayer
62
3
370
-1
100
AcDbLine
10
116.519471
20
6.90555
11
116.673341
21
6.77016
0
LINE
5
163
100
AcDbEntity
8
BASE
6
ByLayer
62
3
370
-1
100
AcDbLine
10
116.673341
20
6.77016
11
116.808778
21
6.61634
0
LINE
5
164
100
AcDbEntity
8
BASE
6
ByLayer
62
3
370
-1
100
AcDbLine
10
116.808778
20
6.61634
11
116.923867
21
6.44602
0
LINE
5
165
100
AcDbEntity
8
BASE
6
ByLayer
62
3
370
-1
100
AcDbLine
10
116.923867
20
6.44602
11
117.016707
21
6.26109
0
LINE
5
166
100
AcDbEntity
8
BASE
6
ByLayer
62
3
370
-1
100
AcDbLine
10
117.016707
20
6.26109
11
117.085387
21
6.06349
0
LINE
5
167
100
AcDbEntity
8
BASE
6
ByLayer
62
3
370
-1
100
AcDbLine
10
117.085387
20
6.06349
11
117.127997
21
5.8551
0
LINE
5
168
100
AcDbEntity
8
BASE
6
ByLayer
62
3
370
-1
100
AcDbLine
10
117.127997
20
5.8551
11
117.142627
21
5.63785
0
LINE
5
169
100
AcDbEntity
8
BASE
6
ByLayer
62
3
370
-1
100
AcDbLine
10
323.39219
20
5.63783
11
323.40679
21
5.85508
0
LINE
5
16A
100
AcDbEntity
8
BASE
6
ByLayer
62
3
370
-1
100
AcDbLine
10
323.40679
20
5.85508
11
323.44939
21
6.06347
0
LINE
5
16B
100
AcDbEntity
8
BASE
6
ByLayer
62
3
370
-1
100
AcDbLine
10
323.44939
20
6.06347
11
323.51799
21
6.26108
0
LINE
5
16C
100
AcDbEntity
8
BASE
6
ByLayer
62
3
370
-1
100
AcDbLine
10
323.51799
20
6.26108
11
323.61079
21
6.446
0
LINE
5
16D
100
AcDbEntity
8
BASE
6
ByLayer
62
3
370
-1
100
AcDbLine
10
323.61079
20
6.446
11
323.72584
21
6.61633
0
LINE
5
16E
100
AcDbEntity
8
BASE
6
ByLayer
62
3
370
-1
100
AcDbLine
10
323.72584
20
6.61633
11
323.86123
21
6.77015
0
LINE
5
16F
100
AcDbEntity
8
BASE
6
ByLayer
62
3
370
-1
100
AcDbLine
10
323.86123
20
6.77015
11
324.01506
21
6.90554
0
LINE
5
170
100
AcDbEntity
8
BASE
6
ByLayer
62
3
370
-1
100
AcDbLine
10
324.01506
20
6.90554
11
324.18541
21
7.0206
0
LINE
5
171
100
AcDbEntity
8
BASE
6
ByLayer
62
3
370
-1
100
AcDbLine
10
324.18541
20
7.0206
11
324.37037
21
7.1134
0
LINE
5
172
100
AcDbEntity
8
BASE
6
ByLayer
62
3
370
-1
100
AcDbLine
10
324.37037
20
7.1134
11
324.56805
21
7.1821
0
LINE
5
173
100
AcDbEntity
8
BASE
6
ByLayer
62
3
370
-1
100
AcDbLine
10
324.56805
20
7.1821
11
324.77653
21
7.2247
0
LINE
5
174
100
AcDbEntity
8
BASE
6
ByLayer
62
3
370
-1
100
AcDbLine
10
324.77653
20
7.2247
11
324.99391
21
7.2393
0
LINE
5
175
100
AcDbEntity
8
BASE
6
ByLayer
62
3
370
-1
100
AcDbLine
10
324.99391
20
7.2393
11
325.2113
21
7.2247
0
LINE
5
176
100
AcDbEntity
8
BASE
6
ByLayer
62
3
370
-1
100
AcDbLine
10
325.2113
20
7.2247
11
325.4198
21
7.1821
0
LINE
5
177
100
AcDbEntity
8
BASE
6
ByLayer
62
3
370
-1
100
AcDbLine
10
325.4198
20
7.1821
11
325.61749
21
7.1134
0
LINE
5
178
100
AcDbEntity
8
BASE
6
ByLayer
62
3
370
-1
100
AcDbLine
10
325.61749
20
7.1134
11
325.80246
21
7.0206
0
LINE
5
179
100
AcDbEntity
8
BASE
6
ByLayer
62
3
370
-1
100
AcDbLine
10
325.80246
20
7.0206
11
325.9728
21
6.90554
0
LINE
5
17A
100
AcDbEntity
8
BASE
6
ByLayer
62
3
370
-1
100
AcDbLine
10
325.9728
20
6.90554
11
326.12664
21
6.77015
0
LINE
5
17B
100
AcDbEntity
8
BASE
6
ByLayer
62
3
370
-1
100
AcDbLine
10
326.12664
20
6.77015
11
326.26202
21
6.61633
0
LINE
5
17C
100
AcDbEntity
8
BASE
6
ByLayer
62
3
370
-1
100
AcDbLine
10
326.26202
20
6.61633
11
326.37707
21
6.44601
0
LINE
5
17D
100
AcDbEntity
8
BASE
6
ByLayer
62
3
370
-1
100
AcDbLine
10
326.37707
20
6.44601
11
326.46987
21
6.26108
0
LINE
5
17E
100
AcDbEntity
8
BASE
6
ByLayer
62
3
370
-1
100
AcDbLine
10
326.46987
20
6.26108
11
326.53857
21
6.06348
0
LINE
5
17F
100
AcDbEntity
8
BASE
6
ByLayer
62
3
370
-1
100
AcDbLine
10
326.53857
20
6.06348
11
326.58117
21
5.85509
0
LINE
5
180
100
AcDbEntity
8
BASE
6
ByLayer
62
3
370
-1
100
AcDbLine
10
326.58117
20
5.85509
11
326.59577
21
5.63784
0
LINE
5
181
100
AcDbEntity
8
BASE
6
ByLayer
62
3
370
-1
100
AcDbLine
10
326.59577
20
5.63784
11
326.58117
21
5.4205
0
LINE
5
182
100
AcDbEntity
8
BASE
6
ByLayer
62
3
370
-1
100
AcDbLine
10
326.58117
20
5.4205
11
326.53857
21
5.21206
0
LINE
5
183
100
AcDbEntity
8
BASE
6
ByLayer
62
3
370
-1
100
AcDbLine
10
326.53857
20
5.21206
11
326.46997
21
5.01441
0
LINE
5
184
100
AcDbEntity
8
BASE
6
ByLayer
62
3
370
-1
100
AcDbLine
10
326.46997
20
5.01441
11
326.37717
21
4.82947
0
LINE
5
185
100
AcDbEntity
8
BASE
6
ByLayer
62
3
370
-1
100
AcDbLine
10
326.37717
20
4.82947
11
326.26211
21
4.65916
0
LINE
5
186
100
AcDbEntity
8
BASE
6
ByLayer
62
3
370
-1
100
AcDbLine
10
326.26211
20
4.65916
11
326.12672
21
4.50536
0
LINE
5
187
100
AcDbEntity
8
BASE
6
ByLayer
62
3
370
-1
100
AcDbLine
10
326.12672
20
4.50536
11
325.9729
21
4.36999
0
LINE
5
188
100
AcDbEntity
8
BASE
6
ByLayer
62
3
370
-1
100
AcDbLine
10
325.9729
20
4.36999
11
325.80254
21
4.25497
0
LINE
5
189
100
AcDbEntity
8
BASE
6
ByLayer
62
3
370
-1
100
AcDbLine
10
325.80254
20
4.25497
11
325.61757
21
4.16217
0
LINE
5
18A
100
AcDbEntity
8
BASE
6
ByLayer
62
3
370
-1
100
AcDbLine
10
325.61757
20
4.16217
11
325.41988
21
4.09357
0
LINE
5
18B
100
AcDbEntity
8
BASE
6
ByLayer
62
3
370
-1
100
AcDbLine
10
325.41988
20
4.09357
11
325.21138
21
4.05097
0
LINE
5
18C
100
AcDbEntity
8
BASE
6
ByLayer
62
3
370
-1
100
AcDbLine
10
325.21138
20
4.05097
11
324.99399
21
4.03637
0
LINE
5
18D
100
AcDbEntity
8
BASE
6
ByLayer
62
3
370
-1
100
AcDbLine
10
324.99399
20
4.03637
11
324.77661
21
4.05097
0
LINE
5
18E
100
AcDbEntity
8
BASE
6
ByLayer
62
3
370
-1
100
AcDbLine
10
324.77661
20
4.05097
11
324.56813
21
4.09357
0
LINE
5
18F
100
AcDbEntity
8
BASE
6
ByLayer
62
3
370
-1
100
AcDbLine
10
324.56813
20
4.09357
11
324.37045
21
4.16217
0
LINE
5
190
100
AcDbEntity
8
BASE
6
ByLayer
62
3
370
-1
100
AcDbLine
10
324.37045
20
4.16217
11
324.18549
21
4.25497
0
LINE
5
191
100
AcDbEntity
8
BASE
6
ByLayer
62
3
370
-1
100
AcDbLine
10
324.18549
20
4.25497
11
324.01514
21
4.37
0
LINE
5
192
100
AcDbEntity
8
BASE
6
ByLayer
62
3
370
-1
100
AcDbLine
10
324.01514
20
4.37
11
323.86131
21
4.50536
0
LINE
5
193
100
AcDbEntity
8
BASE
6
ByLayer
62
3
370
-1
100
AcDbLine
10
323.86131
20
4.50536
11
323.72592
21
4.65916
0
LINE
5
194
100
AcDbEntity
8
BASE
6
ByLayer
62
3
370
-1
100
AcDbLine
10
323.72592
20
4.65916
11
323.61087
21
4.82948
0
LINE
5
195
100
AcDbEntity
8
BASE
6
ByLayer
62
3
370
-1
100
AcDbLine
10
323.61087
20
4.82948
11
323.51807
21
5.01441
0
LINE
5
196
100
AcDbEntity
8
BASE
6
ByLayer
62
3
370
-1
100
AcDbLine
10
323.51807
20
5.01441
11
323.44947
21
5.21206
0
LINE
5
197
100
AcDbEntity
8
BASE
6
ByLayer
62
3
370
-1
100
AcDbLine
10
323.44947
20
5.21206
11
323.40687
21
5.4205
0
LINE
5
198
100
AcDbEntity
8
BASE
6
ByLayer
62
3
370
-1
100
AcDbLine
10
323.40687
20
5.4205
11
323.39227
21
5.63785
0
LINE
5
199
100
AcDbEntity
8
BASE
6
ByLayer
62
3
370
-1
100
AcDbLine
10
218.665415
20
138.075971
11
218.665415
21
147.963757
0
LINE
5
19A
100
AcDbEntity
8
BASE
6
ByLayer
62
3
370
-1
100
AcDbLine
10
218.665415
20
147.963757
11
222.19752
21
147.963757
0
LINE
5
19B
100
AcDbEntity
8
BASE
6
ByLayer
62
3
370
-1
100
AcDbLine
10
222.19752
20
147.963757
11
222.19752
21
138.075971
0
LINE
5
19C
100
AcDbEntity
8
BASE
6
ByLayer
62
3
370
-1
100
AcDbLine
10
222.19752
20
138.075971
11
218.665415
21
138.075971
0
LINE
5
19D
100
AcDbEntity
8
BASE
6
ByLayer
62
3
370
-1
100
AcDbLine
10
124.301126
20
159.910687
11
124.282846
21
159.639028
0
LINE
5
19E
100
AcDbEntity
8
BASE
6
ByLayer
62
3
370
-1
100
AcDbLine
10
124.282846
20
159.639028
11
124.2296
21
159.37848
0
LINE
5
19F
100
AcDbEntity
8
BASE
6
ByLayer
62
3
370
-1
100
AcDbLine
10
124.2296
20
159.37848
11
124.143777
21
159.131425
0
LINE
5
1A0
100
AcDbEntity
8
BASE
6
ByLayer
62
3
370
-1
100
AcDbLine
10
124.143777
20
159.131425
11
124.027757
21
158.90025
0
LINE
5
1A1
100
AcDbEntity
8
BASE
6
ByLayer
62
3
370
-1
100
AcDbLine
10
124.027757
20
158.90025
11
123.883928
21
158.687345
0
LINE
5
1A2
100
AcDbEntity
8
BASE
6
ByLayer
62
3
370
-1
100
AcDbLine
10
123.883928
20
158.687345
11
123.714669
21
158.495088
0
LINE
5
1A3
100
AcDbEntity
8
BASE
6
ByLayer
62
3
370
-1
100
AcDbLine
10
123.714669
20
158.495088
11
123.522371
21
158.325864
0
LINE
5
1A4
100
AcDbEntity
8
BASE
6
ByLayer
62
3
370
-1
100
AcDbLine
10
123.522371
20
158.325864
11
123.309419
21
158.182061
0
LINE
5
1A5
100
AcDbEntity
8
BASE
6
ByLayer
62
3
370
-1
100
AcDbLine
10
123.309419
20
158.182061
11
123.078203
21
158.066064
0
LINE
5
1A6
100
AcDbEntity
8
BASE
6
ByLayer
62
3
370
-1
100
AcDbLine
10
123.078203
20
158.066064
11
122.831102
21
157.980254
0
LINE
5
1A7
100
AcDbEntity
8
BASE
6
ByLayer
62
3
370
-1
100
AcDbLine
10
122.831102
20
157.980254
11
122.570504
21
157.927024
0
LINE
5
1A8
100
AcDbEntity
8
BASE
6
ByLayer
62
3
370
-1
100
AcDbLine
10
122.570504
20
157.927024
11
122.298776
21
157.908754
0
LINE
5
1A9
100
AcDbEntity
8
BASE
6
ByLayer
62
3
370
-1
100
AcDbLine
10
122.298776
20
157.908754
11
122.027063
21
157.927034
0
LINE
5
1AA
100
AcDbEntity
8
BASE
6
ByLayer
62
3
370
-1
100
AcDbLine
10
122.027063
20
157.927034
11
121.766458
21
157.980264
0
LINE
5
1AB
100
AcDbEntity
8
BASE
6
ByLayer
62
3
370
-1
100
AcDbLine
10
121.766458
20
157.980264
11
121.519357
21
158.066074
0
LINE
5
1AC
100
AcDbEntity
8
BASE
6
ByLayer
62
3
370
-1
100
AcDbLine
10
121.519357
20
158.066074
11
121.288133
21
158.182071
0
LINE
5
1AD
100
AcDbEntity
8
BASE
6
ByLayer
62
3
370
-1
100
AcDbLine
10
121.288133
20
158.182071
11
121.075181
21
158.325874
0
LINE
5
1AE
100
AcDbEntity
8
BASE
6
ByLayer
62
3
370
-1
100
AcDbLine
10
121.075181
20
158.325874
11
120.882882
21
158.495097
0
LINE
5
1AF
100
AcDbEntity
8
BASE
6
ByLayer
62
3
370
-1
100
AcDbLine
10
120.882882
20
158.495097
11
120.713624
21
158.687354
0
LINE
5
1B0
100
AcDbEntity
8
BASE
6
ByLayer
62
3
370
-1
100
AcDbLine
10
120.713624
20
158.687354
11
120.569795
21
158.90026
0
LINE
5
1B1
100
AcDbEntity
8
BASE
6
ByLayer
62
3
370
-1
100
AcDbLine
10
120.569795
20
158.90026
11
120.453775
21
159.131435
0
LINE
5
1B2
100
AcDbEntity
8
BASE
6
ByLayer
62
3
370
-1
100
AcDbLine
10
120.453775
20
159.131435
11
120.367955
21
159.37849
0
LINE
5
1B3
100
AcDbEntity
8
BASE
6
ByLayer
62
3
370
-1
100
AcDbLine
10
120.367955
20
159.37849
11
120.314705
21
159.639037
0
LINE
5
1B4
100
AcDbEntity
8
BASE
6
ByLayer
62
3
370
-1
100
AcDbLine
10
120.314705
20
159.639037
11
120.296425
21
159.910693
0
LINE
5
1B5
100
AcDbEntity
8
BASE
6
ByLayer
62
3
370
-1
100
AcDbLine
10
120.296425
20
159.910693
11
120.314705
21
160.182346
0
LINE
5
1B6
100
AcDbEntity
8
BASE
6
ByLayer
62
3
370
-1
100
AcDbLine
10
120.314705
20
160.182346
11
120.367955
21
160.442889
0
LINE
5
1B7
100
AcDbEntity
8
BASE
6
ByLayer
62
3
370
-1
100
AcDbLine
10
120.367955
20
160.442889
11
120.453775
21
160.689941
0
LINE
5
1B8
100
AcDbEntity
8
BASE
6
ByLayer
62
3
370
-1
100
AcDbLine
10
120.453775
20
160.689941
11
120.569795
21
160.921111
0
LINE
5
1B9
100
AcDbEntity
8
BASE
6
ByLayer
62
3
370
-1
100
AcDbLine
10
120.569795
20
160.921111
11
120.713624
21
161.134017
0
LINE
5
1BA
100
AcDbEntity
8
BASE
6
ByLayer
62
3
370
-1
100
AcDbLine
10
120.713624
20
161.134017
11
120.882882
21
161.326274
0
LINE
5
1BB
100
AcDbEntity
8
BASE
6
ByLayer
62
3
370
-1
100
AcDbLine
10
120.882882
20
161.326274
11
121.075181
21
161.495498
0
LINE
5
1BC
100
AcDbEntity
8
BASE
6
ByLayer
62
3
370
-1
100
AcDbLine
10
121.075181
20
161.495498
11
121.288133
21
161.639301
0
LINE
5
1BD
100
AcDbEntity
8
BASE
6
ByLayer
62
3
370
-1
100
AcDbLine
10
121.288133
20
161.639301
11
121.519357
21
161.755298
0
LINE
5
1BE
100
AcDbEntity
8
BASE
6
ByLayer
62
3
370
-1
100
AcDbLine
10
121.519357
20
161.755298
11
121.766458
21
161.841108
0
LINE
5
1BF
100
AcDbEntity
8
BASE
6
ByLayer
62
3
370
-1
100
AcDbLine
10
121.766458
20
161.841108
11
122.027063
21
161.894338
0
LINE
5
1C0
100
AcDbEntity
8
BASE
6
ByLayer
62
3
370
-1
100
AcDbLine
10
122.027063
20
161.894338
11
122.298776
21
161.912618
0
LINE
5
1C1
100
AcDbEntity
8
BASE
6
ByLayer
62
3
370
-1
100
AcDbLine
10
122.298776
20
161.912618
11
122.570489
21
161.894338
0
LINE
5
1C2
100
AcDbEntity
8
BASE
6
ByLayer
62
3
370
-1
100
AcDbLine
10
122.570489
20
161.894338
11
122.831086
21
161.841108
0
LINE
5
1C3
100
AcDbEntity
8
BASE
6
ByLayer
62
3
370
-1
100
AcDbLine
10
122.831086
20
161.841108
11
123.078187
21
161.755298
0
LINE
5
1C4
100
AcDbEntity
8
BASE
6
ByLayer
62
3
370
-1
100
AcDbLine
10
123.078187
20
161.755298
11
123.309404
21
161.639301
0
LINE
5
1C5
100
AcDbEntity
8
BASE
6
ByLayer
62
3
370
-1
100
AcDbLine
10
123.309404
20
161.639301
11
123.522355
21
161.495498
0
LINE
5
1C6
100
AcDbEntity
8
BASE
6
ByLayer
62
3
370
-1
100
AcDbLine
10
123.522355
20
161.495498
11
123.714654
21
161.326274
0
LINE
5
1C7
100
AcDbEntity
8
BASE
6
ByLayer
62
3
370
-1
100
AcDbLine
10
123.714654
20
161.326274
11
123.883912
21
161.134017
0
LINE
5
1C8
100
AcDbEntity
8
BASE
6
ByLayer
62
3
370
-1
100
AcDbLine
10
123.883912
20
161.134017
11
124.027742
21
160.921111
0
LINE
5
1C9
100
AcDbEntity
8
BASE
6
ByLayer
62
3
370
-1
100
AcDbLine
10
124.027742
20
160.921111
11
124.143762
21
160.689941
0
LINE
5
1CA
100
AcDbEntity
8
BASE
6
ByLayer
62
3
370
-1
100
AcDbLine
10
124.143762
20
160.689941
11
124.229585
21
160.442889
0
LINE
5
1CB
100
AcDbEntity
8
BASE
6
ByLayer
62
3
370
-1
100
AcDbLine
10
124.229585
20
160.442889
11
124.282831
21
160.182346
0
LINE
5
1CC
100
AcDbEntity
8
BASE
6
ByLayer
62
3
370
-1
100
AcDbLine
10
124.282831
20
160.182346
11
124.301126
21
159.910693
0
LINE
5
1CD
100
AcDbEntity
8
BASE
6
ByLayer
62
3
370
-1
100
AcDbLine
10
133.541803
20
171.976972
11
133.541803
21
147.963757
0
LINE
5
1CE
100
AcDbEntity
8
BASE
6
ByLayer
62
3
370
-1
100
AcDbLine
10
133.541803
20
147.963757
11
127.184015
21
147.963757
0
LINE
5
1CF
100
AcDbEntity
8
BASE
6
ByLayer
62
3
370
-1
100
AcDbLine
10
127.184015
20
147.963757
11
127.184015
21
171.976972
0
LINE
5
1D0
100
AcDbEntity
8
BASE
6
ByLayer
62
3
370
-1
100
AcDbLine
10
127.184015
20
171.976972
11
133.541803
21
171.976972
0
LINE
5
1D1
100
AcDbEntity
8
BASE
6
ByLayer
62
3
370
-1
100
AcDbLine
10
124.301126
20
59.973003
11
124.282846
21
59.701351
0
LINE
5
1D2
100
AcDbEntity
8
BASE
6
ByLayer
62
3
370
-1
100
AcDbLine
10
124.282846
20
59.701351
11
124.2296
21
59.440823
0
LINE
5
1D3
100
AcDbEntity
8
BASE
6
ByLayer
62
3
370
-1
100
AcDbLine
10
124.2296
20
59.440823
11
124.143777
21
59.193798
0
LINE
5
1D4
100
AcDbEntity
8
BASE
6
ByLayer
62
3
370
-1
100
AcDbLine
10
124.143777
20
59.193798
11
124.027757
21
58.962662
0
LINE
5
1D5
100
AcDbEntity
8
BASE
6
ByLayer
62
3
370
-1
100
AcDbLine
10
124.027757
20
58.962662
11
123.883928
21
58.749794
0
LINE
5
1D6
100
AcDbEntity
8
BASE
6
ByLayer
62
3
370
-1
100
AcDbLine
10
123.883928
20
58.749794
11
123.714669
21
58.557579
0
LINE
5
1D7
100
AcDbEntity
8
BASE
6
ByLayer
62
3
370
-1
100
AcDbLine
10
123.714669
20
58.557579
11
123.522371
21
58.388401
0
LINE
5
1D8
100
AcDbEntity
8
BASE
6
ByLayer
62
3
370
-1
100
AcDbLine
10
123.522371
20
58.388401
11
123.309419
21
58.24464
0
LINE
5
1D9
100
AcDbEntity
8
BASE
6
ByLayer
62
3
370
-1
100
AcDbLine
10
123.309419
20
58.24464
11
123.078203
21
58.128677
0
LINE
5
1DA
100
AcDbEntity
8
BASE
6
ByLayer
62
3
370
-1
100
AcDbLine
10
123.078203
20
58.128677
11
122.831102
21
58.042897
0
LINE
5
1DB
100
AcDbEntity
8
BASE
6
ByLayer
62
3
370
-1
100
AcDbLine
10
122.831102
20
58.042897
11
122.570504
21
57.989677
0
LINE
5
1DC
100
AcDbEntity
8
BASE
6
ByLayer
62
3
370
-1
100
AcDbLine
10
122.570504
20
57.989677
11
122.298776
21
57.971407
0
LINE
5
1DD
100
AcDbEntity
8
BASE
6
ByLayer
62
3
370
-1
100
AcDbLine
10
122.298776
20
57.971407
11
122.027063
21
57.989677
0
LINE
5
1DE
100
AcDbEntity
8
BASE
6
ByLayer
62
3
370
-1
100
AcDbLine
10
122.027063
20
57.989677
11
121.766458
21
58.042897
0
LINE
5
1DF
100
AcDbEntity
8
BASE
6
ByLayer
62
3
370
-1
100
AcDbLine
10
121.766458
20
58.042897
11
121.519357
21
58.128677
0
LINE
5
1E0
100
AcDbEntity
8
BASE
6
ByLayer
62
3
370
-1
100
AcDbLine
10
121.519357
20
58.128677
11
121.288133
21
58.24464
0
LINE
5
1E1
100
AcDbEntity
8
BASE
6
ByLayer
62
3
370
-1
100
AcDbLine
10
121.288133
20
58.24464
11
121.075181
21
58.388401
0
LINE
5
1E2
100
AcDbEntity
8
BASE
6
ByLayer
62
3
370
-1
100
AcDbLine
10
121.075181
20
58.388401
11
120.882882
21
58.557579
0
LINE
5
1E3
100
AcDbEntity
8
BASE
6
ByLayer
62
3
370
-1
100
AcDbLine
10
120.882882
20
58.557579
11
120.713624
21
58.749794
0
LINE
5
1E4
100
AcDbEntity
8
BASE
6
ByLayer
62
3
370
-1
100
AcDbLine
10
120.713624
20
58.749794
11
120.569795
21
58.962662
0
LINE
5
1E5
100
AcDbEntity
8
BASE
6
ByLayer
62
3
370
-1
100
AcDbLine
10
120.569795
20
58.962662
11
120.453775
21
59.193798
0
LINE
5
1E6
100
AcDbEntity
8
BASE
6
ByLayer
62
3
370
-1
100
AcDbLine
10
120.453775
20
59.193798
11
120.367955
21
59.440823
0
LINE
5
1E7
100
AcDbEntity
8
BASE
6
ByLayer
62
3
370
-1
100
AcDbLine
10
120.367955
20
59.440823
11
120.314705
21
59.701351
0
LINE
5
1E8
100
AcDbEntity
8
BASE
6
ByLayer
62
3
370
-1
100
AcDbLine
10
120.314705
20
59.701351
11
120.296425
21
59.973003
0
LINE
5
1E9
100
AcDbEntity
8
BASE
6
ByLayer
62
3
370
-1
100
AcDbLine
10
120.296425
20
59.973003
11
120.314705
21
60.244739
0
LINE
5
1EA
100
AcDbEntity
8
BASE
6
ByLayer
62
3
370
-1
100
AcDbLine
10
120.314705
20
60.244739
11
120.367955
21
60.505352
0
LINE
5
1EB
100
AcDbEntity
8
BASE
6
ByLayer
62
3
370
-1
100
AcDbLine
10
120.367955
20
60.505352
11
120.453775
21
60.75246
0
LINE
5
1EC
100
AcDbEntity
8
BASE
6
ByLayer
62
3
370
-1
100
AcDbLine
10
120.453775
20
60.75246
11
120.569795
21
60.983677
0
LINE
5
1ED
100
AcDbEntity
8
BASE
6
ByLayer
62
3
370
-1
100
AcDbLine
10
120.569795
20
60.983677
11
120.713624
21
61.196617
0
LINE
5
1EE
100
AcDbEntity
8
BASE
6
ByLayer
62
3
370
-1
100
AcDbLine
10
120.713624
20
61.196617
11
120.882882
21
61.388901
0
LINE
5
1EF
100
AcDbEntity
8
BASE
6
ByLayer
62
3
370
-1
100
AcDbLine
10
120.882882
20
61.388901
11
121.075181
21
61.558144
0
LINE
5
1F0
100
AcDbEntity
8
BASE
6
ByLayer
62
3
370
-1
100
AcDbLine
10
121.075181
20
61.558144
11
121.288133
21
61.701958
0
LINE
5
1F1
100
AcDbEntity
8
BASE
6
ByLayer
62
3
370
-1
100
AcDbLine
10
121.288133
20
61.701958
11
121.519357
21
61.817963
0
LINE
5
1F2
100
AcDbEntity
8
BASE
6
ByLayer
62
3
370
-1
100
AcDbLine
10
121.519357
20
61.817963
11
121.766458
21
61.903773
0
LINE
5
1F3
100
AcDbEntity
8
BASE
6
ByLayer
62
3
370
-1
100
AcDbLine
10
121.766458
20
61.903773
11
122.027063
21
61.957003
0
LINE
5
1F4
100
AcDbEntity
8
BASE
6
ByLayer
62
3
370
-1
100
AcDbLine
10
122.027063
20
61.957003
11
122.298776
21
61.975283
0
LINE
5
1F5
100
AcDbEntity
8
BASE
6
ByLayer
62
3
370
-1
100
AcDbLine
10
122.298776
20
61.975283
11
122.570489
21
61.957003
0
LINE
5
1F6
100
AcDbEntity
8
BASE
6
ByLayer
62
3
370
-1
100
AcDbLine
10
122.570489
20
61.957003
11
122.831086
21
61.903773
0
LINE
5
1F7
100
AcDbEntity
8
BASE
6
ByLayer
62
3
370
-1
100
AcDbLine
10
122.831086
20
61.903773
11
123.078187
21
61.817963
0
LINE
5
1F8
100
AcDbEntity
8
BASE
6
ByLayer
62
3
370
-1
100
AcDbLine
10
123.078187
20
61.817963
11
123.309404
21
61.701958
0
LINE
5
1F9
100
AcDbEntity
8
BASE
6
ByLayer
62
3
370
-1
100
AcDbLine
10
123.309404
20
61.701958
11
123.522355
21
61.558144
0
LINE
5
1FA
100
AcDbEntity
8
BASE
6
ByLayer
62
3
370
-1
100
AcDbLine
10
123.522355
20
61.558144
11
123.714654
21
61.388901
0
LINE
5
1FB
100
AcDbEntity
8
BASE
6
ByLayer
62
3
370
-1
100
AcDbLine
10
123.714654
20
61.388901
11
123.883912
21
61.196618
0
LINE
5
1FC
100
AcDbEntity
8
BASE
6
ByLayer
62
3
370
-1
100
AcDbLine
10
123.883912
20
61.196618
11
124.027742
21
60.983677
0
LINE
5
1FD
100
AcDbEntity
8
BASE
6
ByLayer
62
3
370
-1
100
AcDbLine
10
124.027742
20
60.983677
11
124.143762
21
60.752461
0
LINE
5
1FE
100
AcDbEntity
8
BASE
6
ByLayer
62
3
370
-1
100
AcDbLine
10
124.143762
20
60.752461
11
124.229585
21
60.505353
0
LINE
5
1FF
100
AcDbEntity
8
BASE
6
ByLayer
62
3
370
-1
100
AcDbLine
10
124.229585
20
60.505353
11
124.282831
21
60.24474
0
LINE
5
200
100
AcDbEntity
8
BASE
6
ByLayer
62
3
370
-1
100
AcDbLine
10
124.282831
20
60.24474
11
124.301126
21
59.972996
0
LINE
5
201
100
AcDbEntity
8
BASE
6
ByLayer
62
3
370
-1
100
AcDbLine
10
133.541803
20
72.039654
11
133.541803
21
48.02644
0
LINE
5
202
100
AcDbEntity
8
BASE
6
ByLayer
62
3
370
-1
100
AcDbLine
10
133.541803
20
48.02644
11
127.184015
21
48.02644
0
LINE
5
203
100
AcDbEntity
8
BASE
6
ByLayer
62
3
370
-1
100
AcDbLine
10
127.184015
20
48.02644
11
127.184015
21
72.039654
0
LINE
5
204
100
AcDbEntity
8
BASE
6
ByLayer
62
3
370
-1
100
AcDbLine
10
127.184015
20
72.039654
11
133.541803
21
72.039654
0
LINE
5
205
100
AcDbEntity
8
BASE
6
ByLayer
62
3
370
-1
100
AcDbLine
10
140.548792
20
59.973003
11
140.530512
21
59.701351
0
LINE
5
206
100
AcDbEntity
8
BASE
6
ByLayer
62
3
370
-1
100
AcDbLine
10
140.530512
20
59.701351
11
140.477267
21
59.440823
0
LINE
5
207
100
AcDbEntity
8
BASE
6
ByLayer
62
3
370
-1
100
AcDbLine
10
140.477267
20
59.440823
11
140.391444
21
59.193798
0
LINE
5
208
100
AcDbEntity
8
BASE
6
ByLayer
62
3
370
-1
100
AcDbLine
10
140.391444
20
59.193798
11
140.275423
21
58.962662
0
LINE
5
209
100
AcDbEntity
8
BASE
6
ByLayer
62
3
370
-1
100
AcDbLine
10
140.275423
20
58.962662
11
140.131593
21
58.749794
0
LINE
5
20A
100
AcDbEntity
8
BASE
6
ByLayer
62
3
370
-1
100
AcDbLine
10
140.131593
20
58.749794
11
139.962335
21
58.557579
0
LINE
5
20B
100
AcDbEntity
8
BASE
6
ByLayer
62
3
370
-1
100
AcDbLine
10
139.962335
20
58.557579
11
139.770036
21
58.388401
0
LINE
5
20C
100
AcDbEntity
8
BASE
6
ByLayer
62
3
370
-1
100
AcDbLine
10
139.770036
20
58.388401
11
139.557085
21
58.24464
0
LINE
5
20D
100
AcDbEntity
8
BASE
6
ByLayer
62
3
370
-1
100
AcDbLine
10
139.557085
20
58.24464
11
139.325868
21
58.128677
0
LINE
5
20E
100
AcDbEntity
8
BASE
6
ByLayer
62
3
370
-1
100
AcDbLine
10
139.325868
20
58.128677
11
139.078767
21
58.0429
0
LINE
5
20F
100
AcDbEntity
8
BASE
6
ByLayer
62
3
370
-1
100
AcDbLine
10
139.078767
20
58.0429
11
138.81817
21
57.989685
0
LINE
5
210
100
AcDbEntity
8
BASE
6
ByLayer
62
3
370
-1
100
AcDbLine
10
138.81817
20
57.989685
11
138.546442
21
57.971416
0
LINE
5
211
100
AcDbEntity
8
BASE
6
ByLayer
62
3
370
-1
100
AcDbLine
10
138.546442
20
57.971416
11
138.274728
21
57.989685
0
LINE
5
212
100
AcDbEntity
8
BASE
6
ByLayer
62
3
370
-1
100
AcDbLine
10
138.274728
20
57.989685
11
138.014124
21
58.0429
0
LINE
5
213
100
AcDbEntity
8
BASE
6
ByLayer
62
3
370
-1
100
AcDbLine
10
138.014124
20
58.0429
11
137.767023
21
58.128677
0
LINE
5
214
100
AcDbEntity
8
BASE
6
ByLayer
62
3
370
-1
100
AcDbLine
10
137.767023
20
58.128677
11
137.535799
21
58.24464
0
LINE
5
215
100
AcDbEntity
8
BASE
6
ByLayer
62
3
370
-1
100
AcDbLine
10
137.535799
20
58.24464
11
137.322847
21
58.388401
0
LINE
5
216
100
AcDbEntity
8
BASE
6
ByLayer
62
3
370
-1
100
AcDbLine
10
137.322847
20
58.388401
11
137.130548
21
58.557579
0
LINE
5
217
100
AcDbEntity
8
BASE
6
ByLayer
62
3
370
-1
100
AcDbLine
10
137.130548
20
58.557579
11
136.96129
21
58.749794
0
LINE
5
218
100
AcDbEntity
8
BASE
6
ByLayer
62
3
370
-1
100
AcDbLine
10
136.96129
20
58.749794
11
136.817461
21
58.962662
0
LINE
5
219
100
AcDbEntity
8
BASE
6
ByLayer
62
3
370
-1
100
AcDbLine
10
136.817461
20
58.962662
11
136.701441
21
59.193798
0
LINE
5
21A
100
AcDbEntity
8
BASE
6
ByLayer
62
3
370
-1
100
AcDbLine
10
136.701441
20
59.193798
11
136.615617
21
59.440823
0
LINE
5
21B
100
AcDbEntity
8
BASE
6
ByLayer
62
3
370
-1
100
AcDbLine
10
136.615617
20
59.440823
11
136.562371
21
59.701351
0
LINE
5
21C
100
AcDbEntity
8
BASE
6
ByLayer
62
3
370
-1
100
AcDbLine
10
136.562371
20
59.701351
11
136.544091
21
59.973003
0
LINE
5
21D
100
AcDbEntity
8
BASE
6
ByLayer
62
3
370
-1
100
AcDbLine
10
136.544091
20
59.973003
11
136.562371
21
60.244739
0
LINE
5
21E
100
AcDbEntity
8
BASE
6
ByLayer
62
3
370
-1
100
AcDbLine
10
136.562371
20
60.244739
11
136.615617
21
60.505352
0
LINE
5
21F
100
AcDbEntity
8
BASE
6
ByLayer
62
3
370
-1
100
AcDbLine
10
136.615617
20
60.505352
11
136.70144
21
60.75246
0
LINE
5
220
100
AcDbEntity
8
BASE
6
ByLayer
62
3
370
-1
100
AcDbLine
10
136.70144
20
60.75246
11
136.817461
21
60.983677
0
LINE
5
221
100
AcDbEntity
8
BASE
6
ByLayer
62
3
370
-1
100
AcDbLine
10
136.817461
20
60.983677
11
136.96129
21
61.196617
0
LINE
5
222
100
AcDbEntity
8
BASE
6
ByLayer
62
3
370
-1
100
AcDbLine
10
136.96129
20
61.196617
11
137.130548
21
61.388901
0
LINE
5
223
100
AcDbEntity
8
BASE
6
ByLayer
62
3
370
-1
100
AcDbLine
10
137.130548
20
61.388901
11
137.322847
21
61.558144
0
LINE
5
224
100
AcDbEntity
8
BASE
6
ByLayer
62
3
370
-1
100
AcDbLine
10
137.322847
20
61.558144
11
137.535799
21
61.701958
0
LINE
5
225
100
AcDbEntity
8
BASE
6
ByLayer
62
3
370
-1
100
AcDbLine
10
137.535799
20
61.701958
11
137.767023
21
61.817963
0
LINE
5
226
100
AcDbEntity
8
BASE
6
ByLayer
62
3
370
-1
100
AcDbLine
10
137.767023
20
61.817963
11
138.014124
21
61.903773
0
LINE
5
227
100
AcDbEntity
8
BASE
6
ByLayer
62
3
370
-1
100
AcDbLine
10
138.014124
20
61.903773
11
138.274728
21
61.957003
0
LINE
5
228
100
AcDbEntity
8
BASE
6
ByLayer
62
3
370
-1
100
AcDbLine
10
138.274728
20
61.957003
11
138.546442
21
61.975283
0
LINE
5
229
100
AcDbEntity
8
BASE
6
ByLayer
62
3
370
-1
100
AcDbLine
10
138.546442
20
61.975283
11
138.818155
21
61.957003
0
LINE
5
22A
100
AcDbEntity
8
BASE
6
ByLayer
62
3
370
-1
100
AcDbLine
10
138.818155
20
61.957003
11
139.078752
21
61.903773
0
LINE
5
22B
100
AcDbEntity
8
BASE
6
ByLayer
62
3
370
-1
100
AcDbLine
10
139.078752
20
61.903773
11
139.325853
21
61.817963
0
LINE
5
22C
100
AcDbEntity
8
BASE
6
ByLayer
62
3
370
-1
100
AcDbLine
10
139.325853
20
61.817963
11
139.557069
21
61.701958
0
LINE
5
22D
100
AcDbEntity
8
BASE
6
ByLayer
62
3
370
-1
100
AcDbLine
10
139.557069
20
61.701958
11
139.770021
21
61.558144
0
LINE
5
22E
100
AcDbEntity
8
BASE
6
ByLayer
62
3
370
-1
100
AcDbLine
10
139.770021
20
61.558144
11
139.96232
21
61.388901
0
LINE
5
22F
100
AcDbEntity
8
BASE
6
ByLayer
62
3
370
-1
100
AcDbLine
10
139.96232
20
61.388901
11
140.131578
21
61.196618
0
LINE
5
230
100
AcDbEntity
8
BASE
6
ByLayer
62
3
370
-1
100
AcDbLine
10
140.131578
20
61.196618
11
140.275407
21
60.983677
0
LINE
5
231
100
AcDbEntity
8
BASE
6
ByLayer
62
3
370
-1
100
AcDbLine
10
140.275407
20
60.983677
11
140.391428
21
60.752461
0
LINE
5
232
100
AcDbEntity
8
BASE
6
ByLayer
62
3
370
-1
100
AcDbLine
10
140.391428
20
60.752461
11
140.477251
21
60.505353
0
LINE
5
233
100
AcDbEntity
8
BASE
6
ByLayer
62
3
370
-1
100
AcDbLine
10
140.477251
20
60.505353
11
140.530497
21
60.24474
0
LINE
5
234
100
AcDbEntity
8
BASE
6
ByLayer
62
3
370
-1
100
AcDbLine
10
140.530497
20
60.24474
11
140.548792
21
59.972996
0
LINE
5
235
100
AcDbEntity
8
BASE
6
ByLayer
62
3
370
-1
100
AcDbLine
10
140.548792
20
159.910687
11
140.530512
21
159.639028
0
LINE
5
236
100
AcDbEntity
8
BASE
6
ByLayer
62
3
370
-1
100
AcDbLine
10
140.530512
20
159.639028
11
140.477267
21
159.37848
0
LINE
5
237
100
AcDbEntity
8
BASE
6
ByLayer
62
3
370
-1
100
AcDbLine
10
140.477267
20
159.37848
11
140.391444
21
159.131425
0
LINE
5
238
100
AcDbEntity
8
BASE
6
ByLayer
62
3
370
-1
100
AcDbLine
10
140.391444
20
159.131425
11
140.275423
21
158.90025
0
LINE
5
239
100
AcDbEntity
8
BASE
6
ByLayer
62
3
370
-1
100
AcDbLine
10
140.275423
20
158.90025
11
140.131594
21
158.687345
0
LINE
5
23A
100
AcDbEntity
8
BASE
6
ByLayer
62
3
370
-1
100
AcDbLine
10
140.131594
20
158.687345
11
139.962336
21
158.495088
0
LINE
5
23B
100
AcDbEntity
8
BASE
6
ByLayer
62
3
370
-1
100
AcDbLine
10
139.962336
20
158.495088
11
139.770037
21
158.325864
0
LINE
5
23C
100
AcDbEntity
8
BASE
6
ByLayer
62
3
370
-1
100
AcDbLine
10
139.770037
20
158.325864
11
139.557085
21
158.182061
0
LINE
5
23D
100
AcDbEntity
8
BASE
6
ByLayer
62
3
370
-1
100
AcDbLine
10
139.557085
20
158.182061
11
139.325869
21
158.066064
0
LINE
5
23E
100
AcDbEntity
8
BASE
6
ByLayer
62
3
370
-1
100
AcDbLine
10
139.325869
20
158.066064
11
139.078768
21
157.980254
0
LINE
5
23F
100
AcDbEntity
8
BASE
6
ByLayer
62
3
370
-1
100
AcDbLine
10
139.078768
20
157.980254
11
138.818171
21
157.927024
0
LINE
5
240
100
AcDbEntity
8
BASE
6
ByLayer
62
3
370
-1
100
AcDbLine
10
138.818171
20
157.927024
11
138.546442
21
157.908754
0
LINE
5
241
100
AcDbEntity
8
BASE
6
ByLayer
62
3
370
-1
100
AcDbLine
10
138.546442
20
157.908754
11
138.274729
21
157.927034
0
LINE
5
242
100
AcDbEntity
8
BASE
6
ByLayer
62
3
370
-1
100
AcDbLine
10
138.274729
20
157.927034
11
138.014124
21
157.980264
0
LINE
5
243
100
AcDbEntity
8
BASE
6
ByLayer
62
3
370
-1
100
AcDbLine
10
138.014124
20
157.980264
11
137.767024
21
158.066074
0
LINE
5
244
100
AcDbEntity
8
BASE
6
ByLayer
62
3
370
-1
100
AcDbLine
10
137.767024
20
158.066074
11
137.535799
21
158.182071
0
LINE
5
245
100
AcDbEntity
8
BASE
6
ByLayer
62
3
370
-1
100
AcDbLine
10
137.535799
20
158.182071
11
137.322848
21
158.325874
0
LINE
5
246
100
AcDbEntity
8
BASE
6
ByLayer
62
3
370
-1
100
AcDbLine
10
137.322848
20
158.325874
11
137.130549
21
158.495097
0
LINE
5
247
100
AcDbEntity
8
BASE
6
ByLayer
62
3
370
-1
100
AcDbLine
10
137.130549
20
158.495097
11
136.961291
21
158.687354
0
LINE
5
248
100
AcDbEntity
8
BASE
6
ByLayer
62
3
370
-1
100
AcDbLine
10
136.961291
20
158.687354
11
136.817461
21
158.90026
0
LINE
5
249
100
AcDbEntity
8
BASE
6
ByLayer
62
3
370
-1
100
AcDbLine
10
136.817461
20
158.90026
11
136.701441
21
159.131435
0
LINE
5
24A
100
AcDbEntity
8
BASE
6
ByLayer
62
3
370
-1
100
AcDbLine
10
136.701441
20
159.131435
11
136.615618
21
159.37849
0
LINE
5
24B
100
AcDbEntity
8
BASE
6
ByLayer
62
3
370
-1
100
AcDbLine
10
136.615618
20
159.37849
11
136.562372
21
159.639037
0
LINE
5
24C
100
AcDbEntity
8
BASE
6
ByLayer
62
3
370
-1
100
AcDbLine
10
136.562372
20
159.639037
11
136.544092
21
159.910693
0
LINE
5
24D
100
AcDbEntity
8
BASE
6
ByLayer
62
3
370
-1
100
AcDbLine
10
136.544092
20
159.910693
11
136.562372
21
160.182346
0
LINE
5
24E
100
AcDbEntity
8
BASE
6
ByLayer
62
3
370
-1
100
AcDbLine
10
136.562372
20
160.182346
11
136.615618
21
160.442889
0
LINE
5
24F
100
AcDbEntity
8
BASE
6
ByLayer
62
3
370
-1
100
AcDbLine
10
136.615618
20
160.442889
11
136.701441
21
160.689941
0
LINE
5
250
100
AcDbEntity
8
BASE
6
ByLayer
62
3
370
-1
100
AcDbLine
10
136.701441
20
160.689941
11
136.817461
21
160.921111
0
LINE
5
251
100
AcDbEntity
8
BASE
6
ByLayer
62
3
370
-1
100
AcDbLine
10
136.817461
20
160.921111
11
136.961291
21
161.134017
0
LINE
5
252
100
AcDbEntity
8
BASE
6
ByLayer
62
3
370
-1
100
AcDbLine
10
136.961291
20
161.134017
11
137.130549
21
161.326274
0
LINE
5
253
100
AcDbEntity
8
BASE
6
ByLayer
62
3
370
-1
100
AcDbLine
10
137.130549
20
161.326274
11
137.322848
21
161.495498
0
LINE
5
254
100
AcDbEntity
8
BASE
6
ByLayer
62
3
370
-1
100
AcDbLine
10
137.322848
20
161.495498
11
137.535799
21
161.639301
0
LINE
5
255
100
AcDbEntity
8
BASE
6
ByLayer
62
3
370
-1
100
AcDbLine
10
137.535799
20
161.639301
11
137.767024
21
161.755298
0
LINE
5
256
100
AcDbEntity
8
BASE
6
ByLayer
62
3
370
-1
100
AcDbLine
10
137.767024
20
161.755298
11
138.014124
21
161.841108
0
LINE
5
257
100
AcDbEntity
8
BASE
6
ByLayer
62
3
370
-1
100
AcDbLine
10
138.014124
20
161.841108
11
138.274729
21
161.894338
0
LINE
5
258
100
AcDbEntity
8
BASE
6
ByLayer
62
3
370
-1
100
AcDbLine
10
138.274729
20
161.894338
11
138.546442
21
161.912618
0
LINE
5
259
100
AcDbEntity
8
BASE
6
ByLayer
62
3
370
-1
100
AcDbLine
10
138.546442
20
161.912618
11
138.818156
21
161.894338
0
LINE
5
25A
100
AcDbEntity
8
BASE
6
ByLayer
62
3
370
-1
100
AcDbLine
10
138.818156
20
161.894338
11
139.078753
21
161.841108
0
LINE
5
25B
100
AcDbEntity
8
BASE
6
ByLayer
62
3
370
-1
100
AcDbLine
10
139.078753
20
161.841108
11
139.325854
21
161.755298
0
LINE
5
25C
100
AcDbEntity
8
BASE
6
ByLayer
62
3
370
-1
100
AcDbLine
10
139.325854
20
161.755298
11
139.55707
21
161.639301
0
LINE
5
25D
100
AcDbEntity
8
BASE
6
ByLayer
62
3
370
-1
100
AcDbLine
10
139.55707
20
161.639301
11
139.770022
21
161.495498
0
LINE
5
25E
100
AcDbEntity
8
BASE
6
ByLayer
62
3
370
-1
100
AcDbLine
10
139.770022
20
161.495498
11
139.962321
21
161.326274
0
LINE
5
25F
100
AcDbEntity
8
BASE
6
ByLayer
62
3
370
-1
100
AcDbLine
10
139.962321
20
161.326274
11
140.131579
21
161.134017
0
LINE
5
260
100
AcDbEntity
8
BASE
6
ByLayer
62
3
370
-1
100
AcDbLine
10
140.131579
20
161.134017
11
140.275408
21
160.921111
0
LINE
5
261
100
AcDbEntity
8
BASE
6
ByLayer
62
3
370
-1
100
AcDbLine
10
140.275408
20
160.921111
11
140.391428
21
160.689941
0
LINE
5
262
100
AcDbEntity
8
BASE
6
ByLayer
62
3
370
-1
100
AcDbLine
10
140.391428
20
160.689941
11
140.477251
21
160.442889
0
LINE
5
263
100
AcDbEntity
8
BASE
6
ByLayer
62
3
370
-1
100
AcDbLine
10
140.477251
20
160.442889
11
140.530497
21
160.182346
0
LINE
5
264
100
AcDbEntity
8
BASE
6
ByLayer
62
3
370
-1
100
AcDbLine
10
140.530497
20
160.182346
11
140.548792
21
159.910693
0
LINE
5
265
100
AcDbEntity
8
BASE
6
ByLayer
62
3
370
-1
100
AcDbLine
10
216.394282
20
64.258312
11
216.379662
21
64.04097
0
LINE
5
266
100
AcDbEntity
8
BASE
6
ByLayer
62
3
370
-1
100
AcDbLine
10
216.379662
20
64.04097
11
216.337062
21
63.832523
0
LINE
5
267
100
AcDbEntity
8
BASE
6
ByLayer
62
3
370
-1
100
AcDbLine
10
216.337062
20
63.832523
11
216.268412
21
63.63488
0
LINE
5
268
100
AcDbEntity
8
BASE
6
ByLayer
62
3
370
-1
100
AcDbLine
10
216.268412
20
63.63488
11
216.175612
21
63.449943
0
LINE
5
269
100
AcDbEntity
8
BASE
6
ByLayer
62
3
370
-1
100
AcDbLine
10
216.175612
20
63.449943
11
216.06056
21
63.279625
0
LINE
5
26A
100
AcDbEntity
8
BASE
6
ByLayer
62
3
370
-1
100
AcDbLine
10
216.06056
20
63.279625
11
215.925161
21
63.125828
0
LINE
5
26B
100
AcDbEntity
8
BASE
6
ByLayer
62
3
370
-1
100
AcDbLine
10
215.925161
20
63.125828
11
215.771338
21
62.990459
0
LINE
5
26C
100
AcDbEntity
8
BASE
6
ByLayer
62
3
370
-1
100
AcDbLine
10
215.771338
20
62.990459
11
215.600981
21
62.875427
0
LINE
5
26D
100
AcDbEntity
8
BASE
6
ByLayer
62
3
370
-1
100
AcDbLine
10
215.600981
20
62.875427
11
215.416006
21
62.782637
0
LINE
5
26E
100
AcDbEntity
8
BASE
6
ByLayer
62
3
370
-1
100
AcDbLine
10
215.416006
20
62.782637
11
215.218321
21
62.713997
0
LINE
5
26F
100
AcDbEntity
8
BASE
6
ByLayer
62
3
370
-1
100
AcDbLine
10
215.218321
20
62.713997
11
215.009832
21
62.671417
0
LINE
5
270
100
AcDbEntity
8
BASE
6
ByLayer
62
3
370
-1
100
AcDbLine
10
215.009832
20
62.671417
11
214.79244
21
62.656807
0
LINE
5
271
100
AcDbEntity
8
BASE
6
ByLayer
62
3
370
-1
100
AcDbLine
10
214.79244
20
62.656807
11
214.575064
21
62.671427
0
LINE
5
272
100
AcDbEntity
8
BASE
6
ByLayer
62
3
370
-1
100
AcDbLine
10
214.575064
20
62.671427
11
214.366583
21
62.714007
0
LINE
5
273
100
AcDbEntity
8
BASE
6
ByLayer
62
3
370
-1
100
AcDbLine
10
214.366583
20
62.714007
11
214.168905
21
62.782647
0
LINE
5
274
100
AcDbEntity
8
BASE
6
ByLayer
62
3
370
-1
100
AcDbLine
10
214.168905
20
62.782647
11
213.983946
21
62.875437
0
LINE
5
275
100
AcDbEntity
8
BASE
6
ByLayer
62
3
370
-1
100
AcDbLine
10
213.983946
20
62.875437
11
213.813597
21
62.990469
0
LINE
5
276
100
AcDbEntity
8
BASE
6
ByLayer
62
3
370
-1
100
AcDbLine
10
213.813597
20
62.990469
11
213.659773
21
63.125837
0
LINE
5
277
100
AcDbEntity
8
BASE
6
ByLayer
62
3
370
-1
100
AcDbLine
10
213.659773
20
63.125837
11
213.524382
21
63.279634
0
LINE
5
278
100
AcDbEntity
8
BASE
6
ByLayer
62
3
370
-1
100
AcDbLine
10
213.524382
20
63.279634
11
213.40933
21
63.449953
0
LINE
5
279
100
AcDbEntity
8
BASE
6
ByLayer
62
3
370
-1
100
AcDbLine
10
213.40933
20
63.449953
11
213.31653
21
63.63489
0
LINE
5
27A
100
AcDbEntity
8
BASE
6
ByLayer
62
3
370
-1
100
AcDbLine
10
213.31653
20
63.63489
11
213.24788
21
63.832533
0
LINE
5
27B
100
AcDbEntity
8
BASE
6
ByLayer
62
3
370
-1
100
AcDbLine
10
213.24788
20
63.832533
11
213.20529
21
64.040979
0
LINE
5
27C
100
AcDbEntity
8
BASE
6
ByLayer
62
3
370
-1
100
AcDbLine
10
213.20529
20
64.040979
11
213.19067
21
64.258314
0
LINE
5
27D
100
AcDbEntity
8
BASE
6
ByLayer
62
3
370
-1
100
AcDbLine
10
213.19067
20
64.258314
11
213.20529
21
64.475576
0
LINE
5
27E
100
AcDbEntity
8
BASE
6
ByLayer
62
3
370
-1
100
AcDbLine
10
213.20529
20
64.475576
11
213.24788
21
64.68397
0
LINE
5
27F
100
AcDbEntity
8
BASE
6
ByLayer
62
3
370
-1
100
AcDbLine
10
213.24788
20
64.68397
11
213.31654
21
64.881582
0
LINE
5
280
100
AcDbEntity
8
BASE
6
ByLayer
62
3
370
-1
100
AcDbLine
10
213.31654
20
64.881582
11
213.40934
21
65.066507
0
LINE
5
281
100
AcDbEntity
8
BASE
6
ByLayer
62
3
370
-1
100
AcDbLine
10
213.40934
20
65.066507
11
213.524392
21
65.23683
0
LINE
5
282
100
AcDbEntity
8
BASE
6
ByLayer
62
3
370
-1
100
AcDbLine
10
213.524392
20
65.23683
11
213.659783
21
65.390642
0
LINE
5
283
100
AcDbEntity
8
BASE
6
ByLayer
62
3
370
-1
100
AcDbLine
10
213.659783
20
65.390642
11
213.813607
21
65.52603
0
LINE
5
284
100
AcDbEntity
8
BASE
6
ByLayer
62
3
370
-1
100
AcDbLine
10
213.813607
20
65.52603
11
213.983948
21
65.641085
0
LINE
5
285
100
AcDbEntity
8
BASE
6
ByLayer
62
3
370
-1
100
AcDbLine
10
213.983948
20
65.641085
11
214.168915
21
65.733905
0
LINE
5
286
100
AcDbEntity
8
BASE
6
ByLayer
62
3
370
-1
100
AcDbLine
10
214.168915
20
65.733905
11
214.366593
21
65.802565
0
LINE
5
287
100
AcDbEntity
8
BASE
6
ByLayer
62
3
370
-1
100
AcDbLine
10
214.366593
20
65.802565
11
214.575074
21
65.845165
0
LINE
5
288
100
AcDbEntity
8
BASE
6
ByLayer
62
3
370
-1
100
AcDbLine
10
214.575074
20
65.845165
11
214.79245
21
65.859795
0
LINE
5
289
100
AcDbEntity
8
BASE
6
ByLayer
62
3
370
-1
100
AcDbLine
10
214.79245
20
65.859795
11
215.009842
21
65.845165
0
LINE
5
28A
100
AcDbEntity
8
BASE
6
ByLayer
62
3
370
-1
100
AcDbLine
10
215.009842
20
65.845165
11
215.218331
21
65.802565
0
LINE
5
28B
100
AcDbEntity
8
BASE
6
ByLayer
62
3
370
-1
100
AcDbLine
10
215.218331
20
65.802565
11
215.416016
21
65.733905
0
LINE
5
28C
100
AcDbEntity
8
BASE
6
ByLayer
62
3
370
-1
100
AcDbLine
10
215.416016
20
65.733905
11
215.600991
21
65.641085
0
LINE
5
28D
100
AcDbEntity
8
BASE
6
ByLayer
62
3
370
-1
100
AcDbLine
10
215.600991
20
65.641085
11
215.771348
21
65.52603
0
LINE
5
28E
100
AcDbEntity
8
BASE
6
ByLayer
62
3
370
-1
100
AcDbLine
10
215.771348
20
65.52603
11
215.925171
21
65.390642
0
LINE
5
28F
100
AcDbEntity
8
BASE
6
ByLayer
62
3
370
-1
100
AcDbLine
10
215.925171
20
65.390642
11
216.06057
21
65.23683
0
LINE
5
290
100
AcDbEntity
8
BASE
6
ByLayer
62
3
370
-1
100
AcDbLine
10
216.06057
20
65.23683
11
216.175622
21
65.066507
0
LINE
5
291
100
AcDbEntity
8
BASE
6
ByLayer
62
3
370
-1
100
AcDbLine
10
216.175622
20
65.066507
11
216.268422
21
64.881582
0
LINE
5
292
100
AcDbEntity
8
BASE
6
ByLayer
62
3
370
-1
100
AcDbLine
10
216.268422
20
64.881582
11
216.337072
21
64.68397
0
LINE
5
293
100
AcDbEntity
8
BASE
6
ByLayer
62
3
370
-1
100
AcDbLine
10
216.337072
20
64.68397
11
216.379672
21
64.475576
0
LINE
5
294
100
AcDbEntity
8
BASE
6
ByLayer
62
3
370
-1
100
AcDbLine
10
216.379672
20
64.475576
11
216.394292
21
64.258314
0
LINE
5
295
100
AcDbEntity
8
BASE
6
ByLayer
62
3
370
-1
100
AcDbLine
10
223.963572
20
74.158459
11
223.963572
21
71.333355
0
LINE
5
296
100
AcDbEntity
8
BASE
6
ByLayer
62
3
370
-1
100
AcDbLine
10
223.963572
20
71.333355
11
216.899363
21
71.333355
0
LINE
5
297
100
AcDbEntity
8
BASE
6
ByLayer
62
3
370
-1
100
AcDbLine
10
216.899363
20
71.333355
11
216.899363
21
74.158459
0
LINE
5
298
100
AcDbEntity
8
BASE
6
ByLayer
62
3
370
-1
100
AcDbLine
10
216.899363
20
74.158459
11
223.963572
21
74.158459
0
LINE
5
299
100
AcDbEntity
8
BASE
6
ByLayer
62
3
370
-1
100
AcDbLine
10
216.899363
20
80.868023
11
216.899363
21
78.04295
0
LINE
5
29A
100
AcDbEntity
8
BASE
6
ByLayer
62
3
370
-1
100
AcDbLine
10
216.899363
20
78.04295
11
223.963572
21
78.04295
0
LINE
5
29B
100
AcDbEntity
8
BASE
6
ByLayer
62
3
370
-1
100
AcDbLine
10
223.963572
20
78.04295
11
223.963572
21
80.868023
0
LINE
5
29C
100
AcDbEntity
8
BASE
6
ByLayer
62
3
370
-1
100
AcDbLine
10
223.963572
20
80.868023
11
216.899363
21
80.868023
0
LINE
5
29D
100
AcDbEntity
8
BASE
6
ByLayer
62
3
370
-1
100
AcDbLine
10
223.963572
20
87.577587
11
223.963572
21
84.752514
0
LINE
5
29E
100
AcDbEntity
8
BASE
6
ByLayer
62
3
370
-1
100
AcDbLine
10
223.963572
20
84.752514
11
216.899363
21
84.752514
0
LINE
5
29F
100
AcDbEntity
8
BASE
6
ByLayer
62
3
370
-1
100
AcDbLine
10
216.899363
20
84.752514
11
216.899363
21
87.577587
0
LINE
5
2A0
100
AcDbEntity
8
BASE
6
ByLayer
62
3
370
-1
100
AcDbLine
10
216.899363
20
87.577587
11
223.963572
21
87.577587
0
LINE
5
2A1
100
AcDbEntity
8
BASE
6
ByLayer
62
3
370
-1
100
AcDbLine
10
227.34379
20
64.258312
11
227.32917
21
64.04097
0
LINE
5
2A2
100
AcDbEntity
8
BASE
6
ByLayer
62
3
370
-1
100
AcDbLine
10
227.32917
20
64.04097
11
227.28658
21
63.832523
0
LINE
5
2A3
100
AcDbEntity
8
BASE
6
ByLayer
62
3
370
-1
100
AcDbLine
10
227.28658
20
63.832523
11
227.21792
21
63.63488
0
LINE
5
2A4
100
AcDbEntity
8
BASE
6
ByLayer
62
3
370
-1
100
AcDbLine
10
227.21792
20
63.63488
11
227.12512
21
63.449943
0
LINE
5
2A5
100
AcDbEntity
8
BASE
6
ByLayer
62
3
370
-1
100
AcDbLine
10
227.12512
20
63.449943
11
227.010069
21
63.279625
0
LINE
5
2A6
100
AcDbEntity
8
BASE
6
ByLayer
62
3
370
-1
100
AcDbLine
10
227.010069
20
63.279625
11
226.87467
21
63.125828
0
LINE
5
2A7
100
AcDbEntity
8
BASE
6
ByLayer
62
3
370
-1
100
AcDbLine
10
226.87467
20
63.125828
11
226.720846
21
62.990459
0
LINE
5
2A8
100
AcDbEntity
8
BASE
6
ByLayer
62
3
370
-1
100
AcDbLine
10
226.720846
20
62.990459
11
226.550497
21
62.875427
0
LINE
5
2A9
100
AcDbEntity
8
BASE
6
ByLayer
62
3
370
-1
100
AcDbLine
10
226.550497
20
62.875427
11
226.365522
21
62.782637
0
LINE
5
2AA
100
AcDbEntity
8
BASE
6
ByLayer
62
3
370
-1
100
AcDbLine
10
226.365522
20
62.782637
11
226.167837
21
62.713997
0
LINE
5
2AB
100
AcDbEntity
8
BASE
6
ByLayer
62
3
370
-1
100
AcDbLine
10
226.167837
20
62.713997
11
225.959349
21
62.671417
0
LINE
5
2AC
100
AcDbEntity
8
BASE
6
ByLayer
62
3
370
-1
100
AcDbLine
10
225.959349
20
62.671417
11
225.741964
21
62.656807
0
LINE
5
2AD
100
AcDbEntity
8
BASE
6
ByLayer
62
3
370
-1
100
AcDbLine
10
225.741964
20
62.656807
11
225.524588
21
62.671427
0
LINE
5
2AE
100
AcDbEntity
8
BASE
6
ByLayer
62
3
370
-1
100
AcDbLine
10
225.524588
20
62.671427
11
225.316107
21
62.714007
0
LINE
5
2AF
100
AcDbEntity
8
BASE
6
ByLayer
62
3
370
-1
100
AcDbLine
10
225.316107
20
62.714007
11
225.118422
21
62.782647
0
LINE
5
2B0
100
AcDbEntity
8
BASE
6
ByLayer
62
3
370
-1
100
AcDbLine
10
225.118422
20
62.782647
11
224.933455
21
62.875437
0
LINE
5
2B1
100
AcDbEntity
8
BASE
6
ByLayer
62
3
370
-1
100
AcDbLine
10
224.933455
20
62.875437
11
224.763105
21
62.990469
0
LINE
5
2B2
100
AcDbEntity
8
BASE
6
ByLayer
62
3
370
-1
100
AcDbLine
10
224.763105
20
62.990469
11
224.609282
21
63.125837
0
LINE
5
2B3
100
AcDbEntity
8
BASE
6
ByLayer
62
3
370
-1
100
AcDbLine
10
224.609282
20
63.125837
11
224.47389
21
63.279634
0
LINE
5
2B4
100
AcDbEntity
8
BASE
6
ByLayer
62
3
370
-1
100
AcDbLine
10
224.47389
20
63.279634
11
224.358839
21
63.449953
0
LINE
5
2B5
100
AcDbEntity
8
BASE
6
ByLayer
62
3
370
-1
100
AcDbLine
10
224.358839
20
63.449953
11
224.266029
21
63.63489
0
LINE
5
2B6
100
AcDbEntity
8
BASE
6
ByLayer
62
3
370
-1
100
AcDbLine
10
224.266029
20
63.63489
11
224.197379
21
63.832533
0
LINE
5
2B7
100
AcDbEntity
8
BASE
6
ByLayer
62
3
370
-1
100
AcDbLine
10
224.197379
20
63.832533
11
224.154789
21
64.040979
0
LINE
5
2B8
100
AcDbEntity
8
BASE
6
ByLayer
62
3
370
-1
100
AcDbLine
10
224.154789
20
64.040979
11
224.140169
21
64.258314
0
LINE
5
2B9
100
AcDbEntity
8
BASE
6
ByLayer
62
3
370
-1
100
AcDbLine
10
224.140169
20
64.258314
11
224.154789
21
64.475576
0
LINE
5
2BA
100
AcDbEntity
8
BASE
6
ByLayer
62
3
370
-1
100
AcDbLine
10
224.154789
20
64.475576
11
224.197379
21
64.68397
0
LINE
5
2BB
100
AcDbEntity
8
BASE
6
ByLayer
62
3
370
-1
100
AcDbLine
10
224.197379
20
64.68397
11
224.266039
21
64.881582
0
LINE
5
2BC
100
AcDbEntity
8
BASE
6
ByLayer
62
3
370
-1
100
AcDbLine
10
224.266039
20
64.881582
11
224.358839
21
65.066507
0
LINE
5
2BD
100
AcDbEntity
8
BASE
6
ByLayer
62
3
370
-1
100
AcDbLine
10
224.358839
20
65.066507
11
224.47389
21
65.23683
0
LINE
5
2BE
100
AcDbEntity
8
BASE
6
ByLayer
62
3
370
-1
100
AcDbLine
10
224.47389
20
65.23683
11
224.609282
21
65.390642
0
LINE
5
2BF
100
AcDbEntity
8
BASE
6
ByLayer
62
3
370
-1
100
AcDbLine
10
224.609282
20
65.390642
11
224.763105
21
65.52603
0
LINE
5
2C0
100
AcDbEntity
8
BASE
6
ByLayer
62
3
370
-1
100
AcDbLine
10
224.763105
20
65.52603
11
224.933455
21
65.641085
0
LINE
5
2C1
100
AcDbEntity
8
BASE
6
ByLayer
62
3
370
-1
100
AcDbLine
10
224.933455
20
65.641085
11
225.118422
21
65.733905
0
LINE
5
2C2
100
AcDbEntity
8
BASE
6
ByLayer
62
3
370
-1
100
AcDbLine
10
225.118422
20
65.733905
11
225.316107
21
65.802565
0
LINE
5
2C3
100
AcDbEntity
8
BASE
6
ByLayer
62
3
370
-1
100
AcDbLine
10
225.316107
20
65.802565
11
225.524588
21
65.845165
0
LINE
5
2C4
100
AcDbEntity
8
BASE
6
ByLayer
62
3
370
-1
100
AcDbLine
10
225.524588
20
65.845165
11
225.741964
21
65.859795
0
LINE
5
2C5
100
AcDbEntity
8
BASE
6
ByLayer
62
3
370
-1
100
AcDbLine
10
225.741964
20
65.859795
11
225.959349
21
65.845165
0
LINE
5
2C6
100
AcDbEntity
8
BASE
6
ByLayer
62
3
370
-1
100
AcDbLine
10
225.959349
20
65.845165
11
226.167837
21
65.802565
0
LINE
5
2C7
100
AcDbEntity
8
BASE
6
ByLayer
62
3
370
-1
100
AcDbLine
10
226.167837
20
65.802565
11
226.365522
21
65.733905
0
LINE
5
2C8
100
AcDbEntity
8
BASE
6
ByLayer
62
3
370
-1
100
AcDbLine
10
226.365522
20
65.733905
11
226.550497
21
65.641085
0
LINE
5
2C9
100
AcDbEntity
8
BASE
6
ByLayer
62
3
370
-1
100
AcDbLine
10
226.550497
20
65.641085
11
226.720846
21
65.52603
0
LINE
5
2CA
100
AcDbEntity
8
BASE
6
ByLayer
62
3
370
-1
100
AcDbLine
10
226.720846
20
65.52603
11
226.874678
21
65.390642
0
LINE
5
2CB
100
AcDbEntity
8
BASE
6
ByLayer
62
3
370
-1
100
AcDbLine
10
226.874678
20
65.390642
11
227.010069
21
65.23683
0
LINE
5
2CC
100
AcDbEntity
8
BASE
6
ByLayer
62
3
370
-1
100
AcDbLine
10
227.010069
20
65.23683
11
227.12512
21
65.066507
0
LINE
5
2CD
100
AcDbEntity
8
BASE
6
ByLayer
62
3
370
-1
100
AcDbLine
10
227.12512
20
65.066507
11
227.21793
21
64.881582
0
LINE
5
2CE
100
AcDbEntity
8
BASE
6
ByLayer
62
3
370
-1
100
AcDbLine
10
227.21793
20
64.881582
11
227.28658
21
64.68397
0
LINE
5
2CF
100
AcDbEntity
8
BASE
6
ByLayer
62
3
370
-1
100
AcDbLine
10
227.28658
20
64.68397
11
227.32917
21
64.475576
0
LINE
5
2D0
100
AcDbEntity
8
BASE
6
ByLayer
62
3
370
-1
100
AcDbLine
10
227.32917
20
64.475576
11
227.34379
21
64.258314
0
LINE
5
2D1
100
AcDbEntity
8
BASE
6
ByLayer
62
3
370
-1
100
AcDbLine
10
316.68119
20
109.765103
11
316.69949
21
110.036837
0
LINE
5
2D2
100
AcDbEntity
8
BASE
6
ByLayer
62
3
370
-1
100
AcDbLine
10
316.69949
20
110.036837
11
316.75269
21
110.297448
0
LINE
5
2D3
100
AcDbEntity
8
BASE
6
ByLayer
62
3
370
-1
100
AcDbLine
10
316.75269
20
110.297448
11
316.83849
21
110.544553
0
LINE
5
2D4
100
AcDbEntity
8
BASE
6
ByLayer
62
3
370
-1
100
AcDbLine
10
316.83849
20
110.544553
11
316.95451
21
110.775768
0
LINE
5
2D5
100
AcDbEntity
8
BASE
6
ByLayer
62
3
370
-1
100
AcDbLine
10
316.95451
20
110.775768
11
317.09834
21
110.988708
0
LINE
5
2D6
100
AcDbEntity
8
BASE
6
ByLayer
62
3
370
-1
100
AcDbLine
10
317.09834
20
110.988708
11
317.26762
21
111.180991
0
LINE
5
2D7
100
AcDbEntity
8
BASE
6
ByLayer
62
3
370
-1
100
AcDbLine
10
317.26762
20
111.180991
11
317.45995
21
111.350232
0
LINE
5
2D8
100
AcDbEntity
8
BASE
6
ByLayer
62
3
370
-1
100
AcDbLine
10
317.45995
20
111.350232
11
317.67294
21
111.494048
0
LINE
5
2D9
100
AcDbEntity
8
BASE
6
ByLayer
62
3
370
-1
100
AcDbLine
10
317.67294
20
111.494048
11
317.90422
21
111.610053
0
LINE
5
2DA
100
AcDbEntity
8
BASE
6
ByLayer
62
3
370
-1
100
AcDbLine
10
317.90422
20
111.610053
11
318.15138
21
111.695866
0
LINE
5
2DB
100
AcDbEntity
8
BASE
6
ByLayer
62
3
370
-1
100
AcDbLine
10
318.15138
20
111.695866
11
318.41205
21
111.749102
0
LINE
5
2DC
100
AcDbEntity
8
BASE
6
ByLayer
62
3
370
-1
100
AcDbLine
10
318.41205
20
111.749102
11
318.68384
21
111.767376
0
LINE
5
2DD
100
AcDbEntity
8
BASE
6
ByLayer
62
3
370
-1
100
AcDbLine
10
318.68384
20
111.767376
11
318.95555
21
111.749101
0
LINE
5
2DE
100
AcDbEntity
8
BASE
6
ByLayer
62
3
370
-1
100
AcDbLine
10
318.95555
20
111.749101
11
319.21613
21
111.695865
0
LINE
5
2DF
100
AcDbEntity
8
BASE
6
ByLayer
62
3
370
-1
100
AcDbLine
10
319.21613
20
111.695865
11
319.4632
21
111.610052
0
LINE
5
2E0
100
AcDbEntity
8
BASE
6
ByLayer
62
3
370
-1
100
AcDbLine
10
319.4632
20
111.610052
11
319.69438
21
111.494047
0
LINE
5
2E1
100
AcDbEntity
8
BASE
6
ByLayer
62
3
370
-1
100
AcDbLine
10
319.69438
20
111.494047
11
319.90729
21
111.350231
0
LINE
5
2E2
100
AcDbEntity
8
BASE
6
ByLayer
62
3
370
-1
100
AcDbLine
10
319.90729
20
111.350231
11
320.09953
21
111.18099
0
LINE
5
2E3
100
AcDbEntity
8
BASE
6
ByLayer
62
3
370
-1
100
AcDbLine
10
320.09953
20
111.18099
11
320.26875
21
110.988707
0
LINE
5
2E4
100
AcDbEntity
8
BASE
6
ByLayer
62
3
370
-1
100
AcDbLine
10
320.26875
20
110.988707
11
320.41255
21
110.775767
0
LINE
5
2E5
100
AcDbEntity
8
BASE
6
ByLayer
62
3
370
-1
100
AcDbLine
10
320.41255
20
110.775767
11
320.52852
21
110.544552
0
LINE
5
2E6
100
AcDbEntity
8
BASE
6
ByLayer
62
3
370
-1
100
AcDbLine
10
320.52852
20
110.544552
11
320.61432
21
110.297447
0
LINE
5
2E7
100
AcDbEntity
8
BASE
6
ByLayer
62
3
370
-1
100
AcDbLine
10
320.61432
20
110.297447
11
320.66752
21
110.036836
0
LINE
5
2E8
100
AcDbEntity
8
BASE
6
ByLayer
62
3
370
-1
100
AcDbLine
10
320.66752
20
110.036836
11
320.68582
21
109.765102
0
LINE
5
2E9
100
AcDbEntity
8
BASE
6
ByLayer
62
3
370
-1
100
AcDbLine
10
320.68582
20
109.765102
11
320.66752
21
109.493449
0
LINE
5
2EA
100
AcDbEntity
8
BASE
6
ByLayer
62
3
370
-1
100
AcDbLine
10
320.66752
20
109.493449
11
320.61432
21
109.23292
0
LINE
5
2EB
100
AcDbEntity
8
BASE
6
ByLayer
62
3
370
-1
100
AcDbLine
10
320.61432
20
109.23292
11
320.52852
21
108.985895
0
LINE
5
2EC
100
AcDbEntity
8
BASE
6
ByLayer
62
3
370
-1
100
AcDbLine
10
320.52852
20
108.985895
11
320.41255
21
108.754758
0
LINE
5
2ED
100
AcDbEntity
8
BASE
6
ByLayer
62
3
370
-1
100
AcDbLine
10
320.41255
20
108.754758
11
320.26875
21
108.541892
0
LINE
5
2EE
100
AcDbEntity
8
BASE
6
ByLayer
62
3
370
-1
100
AcDbLine
10
320.26875
20
108.541892
11
320.09953
21
108.349678
0
LINE
5
2EF
100
AcDbEntity
8
BASE
6
ByLayer
62
3
370
-1
100
AcDbLine
10
320.09953
20
108.349678
11
319.90729
21
108.1805
0
LINE
5
2F0
100
AcDbEntity
8
BASE
6
ByLayer
62
3
370
-1
100
AcDbLine
10
319.90729
20
108.1805
11
319.69438
21
108.036738
0
LINE
5
2F1
100
AcDbEntity
8
BASE
6
ByLayer
62
3
370
-1
100
AcDbLine
10
319.69438
20
108.036738
11
319.4632
21
107.920777
0
LINE
5
2F2
100
AcDbEntity
8
BASE
6
ByLayer
62
3
370
-1
100
AcDbLine
10
319.4632
20
107.920777
11
319.21613
21
107.834998
0
LINE
5
2F3
100
AcDbEntity
8
BASE
6
ByLayer
62
3
370
-1
100
AcDbLine
10
319.21613
20
107.834998
11
318.95555
21
107.781783
0
LINE
5
2F4
100
AcDbEntity
8
BASE
6
ByLayer
62
3
370
-1
100
AcDbLine
10
318.95555
20
107.781783
11
318.68384
21
107.763515
0
LINE
5
2F5
100
AcDbEntity
8
BASE
6
ByLayer
62
3
370
-1
100
AcDbLine
10
318.68384
20
107.763515
11
318.41203
21
107.781783
0
LINE
5
2F6
100
AcDbEntity
8
BASE
6
ByLayer
62
3
370
-1
100
AcDbLine
10
318.41203
20
107.781783
11
318.15137
21
107.834997
0
LINE
5
2F7
100
AcDbEntity
8
BASE
6
ByLayer
62
3
370
-1
100
AcDbLine
10
318.15137
20
107.834997
11
317.90421
21
107.920776
0
LINE
5
2F8
100
AcDbEntity
8
BASE
6
ByLayer
62
3
370
-1
100
AcDbLine
10
317.90421
20
107.920776
11
317.67294
21
108.036738
0
LINE
5
2F9
100
AcDbEntity
8
BASE
6
ByLayer
62
3
370
-1
100
AcDbLine
10
317.67294
20
108.036738
11
317.45995
21
108.180499
0
LINE
5
2FA
100
AcDbEntity
8
BASE
6
ByLayer
62
3
370
-1
100
AcDbLine
10
317.45995
20
108.180499
11
317.26762
21
108.349678
0
LINE
5
2FB
100
AcDbEntity
8
BASE
6
ByLayer
62
3
370
-1
100
AcDbLine
10
317.26762
20
108.349678
11
317.09836
21
108.541892
0
LINE
5
2FC
100
AcDbEntity
8
BASE
6
ByLayer
62
3
370
-1
100
AcDbLine
10
317.09836
20
108.541892
11
316.95451
21
108.754758
0
LINE
5
2FD
100
AcDbEntity
8
BASE
6
ByLayer
62
3
370
-1
100
AcDbLine
10
316.95451
20
108.754758
11
316.83849
21
108.985895
0
LINE
5
2FE
100
AcDbEntity
8
BASE
6
ByLayer
62
3
370
-1
100
AcDbLine
10
316.83849
20
108.985895
11
316.75269
21
109.232919
0
LINE
5
2FF
100
AcDbEntity
8
BASE
6
ByLayer
62
3
370
-1
100
AcDbLine
10
316.75269
20
109.232919
11
316.69949
21
109.493449
0
LINE
5
300
100
AcDbEntity
8
BASE
6
ByLayer
62
3
370
-1
100
AcDbLine
10
316.69949
20
109.493449
11
316.68119
21
109.765102
0
LINE
5
301
100
AcDbEntity
8
BASE
6
ByLayer
62
3
370
-1
100
AcDbLine
10
307.32115
20
97.818523
11
307.32115
21
121.831738
0
LINE
5
302
100
AcDbEntity
8
BASE
6
ByLayer
62
3
370
-1
100
AcDbLine
10
307.32115
20
121.831738
11
313.6789
21
121.831738
0
LINE
5
303
100
AcDbEntity
8
BASE
6
ByLayer
62
3
370
-1
100
AcDbLine
10
313.6789
20
121.831738
11
313.6789
21
97.818523
0
LINE
5
304
100
AcDbEntity
8
BASE
6
ByLayer
62
3
370
-1
100
AcDbLine
10
313.6789
20
97.818523
11
307.32115
21
97.818523
0
LINE
5
305
100
AcDbEntity
8
BASE
6
ByLayer
62
3
370
-1
100
AcDbLine
10
300.43354
20
109.765103
11
300.45184
21
110.036837
0
LINE
5
306
100
AcDbEntity
8
BASE
6
ByLayer
62
3
370
-1
100
AcDbLine
10
300.45184
20
110.036837
11
300.50504
21
110.297448
0
LINE
5
307
100
AcDbEntity
8
BASE
6
ByLayer
62
3
370
-1
100
AcDbLine
10
300.50504
20
110.297448
11
300.59084
21
110.544553
0
LINE
5
308
100
AcDbEntity
8
BASE
6
ByLayer
62
3
370
-1
100
AcDbLine
10
300.59084
20
110.544553
11
300.70686
21
110.775768
0
LINE
5
309
100
AcDbEntity
8
BASE
6
ByLayer
62
3
370
-1
100
AcDbLine
10
300.70686
20
110.775768
11
300.85069
21
110.988708
0
LINE
5
30A
100
AcDbEntity
8
BASE
6
ByLayer
62
3
370
-1
100
AcDbLine
10
300.85069
20
110.988708
11
301.01997
21
111.180991
0
LINE
5
30B
100
AcDbEntity
8
BASE
6
ByLayer
62
3
370
-1
100
AcDbLine
10
301.01997
20
111.180991
11
301.2123
21
111.350232
0
LINE
5
30C
100
AcDbEntity
8
BASE
6
ByLayer
62
3
370
-1
100
AcDbLine
10
301.2123
20
111.350232
11
301.42528
21
111.494048
0
LINE
5
30D
100
AcDbEntity
8
BASE
6
ByLayer
62
3
370
-1
100
AcDbLine
10
301.42528
20
111.494048
11
301.65654
21
111.610053
0
LINE
5
30E
100
AcDbEntity
8
BASE
6
ByLayer
62
3
370
-1
100
AcDbLine
10
301.65654
20
111.610053
11
301.9037
21
111.695866
0
LINE
5
30F
100
AcDbEntity
8
BASE
6
ByLayer
62
3
370
-1
100
AcDbLine
10
301.9037
20
111.695866
11
302.16435
21
111.749102
0
LINE
5
310
100
AcDbEntity
8
BASE
6
ByLayer
62
3
370
-1
100
AcDbLine
10
302.16435
20
111.749102
11
302.43616
21
111.767376
0
LINE
5
311
100
AcDbEntity
8
BASE
6
ByLayer
62
3
370
-1
100
AcDbLine
10
302.43616
20
111.767376
11
302.70787
21
111.749101
0
LINE
5
312
100
AcDbEntity
8
BASE
6
ByLayer
62
3
370
-1
100
AcDbLine
10
302.70787
20
111.749101
11
302.96845
21
111.695865
0
LINE
5
313
100
AcDbEntity
8
BASE
6
ByLayer
62
3
370
-1
100
AcDbLine
10
302.96845
20
111.695865
11
303.21553
21
111.610052
0
LINE
5
314
100
AcDbEntity
8
BASE
6
ByLayer
62
3
370
-1
100
AcDbLine
10
303.21553
20
111.610052
11
303.4467
21
111.494047
0
LINE
5
315
100
AcDbEntity
8
BASE
6
ByLayer
62
3
370
-1
100
AcDbLine
10
303.4467
20
111.494047
11
303.65962
21
111.350231
0
LINE
5
316
100
AcDbEntity
8
BASE
6
ByLayer
62
3
370
-1
100
AcDbLine
10
303.65962
20
111.350231
11
303.85188
21
111.18099
0
LINE
5
317
100
AcDbEntity
8
BASE
6
ByLayer
62
3
370
-1
100
AcDbLine
10
303.85188
20
111.18099
11
304.0211
21
110.988707
0
LINE
5
318
100
AcDbEntity
8
BASE
6
ByLayer
62
3
370
-1
100
AcDbLine
10
304.0211
20
110.988707
11
304.16489
21
110.775767
0
LINE
5
319
100
AcDbEntity
8
BASE
6
ByLayer
62
3
370
-1
100
AcDbLine
10
304.16489
20
110.775767
11
304.28087
21
110.544552
0
LINE
5
31A
100
AcDbEntity
8
BASE
6
ByLayer
62
3
370
-1
100
AcDbLine
10
304.28087
20
110.544552
11
304.36667
21
110.297447
0
LINE
5
31B
100
AcDbEntity
8
BASE
6
ByLayer
62
3
370
-1
100
AcDbLine
10
304.36667
20
110.297447
11
304.41987
21
110.036836
0
LINE
5
31C
100
AcDbEntity
8
BASE
6
ByLayer
62
3
370
-1
100
AcDbLine
10
304.41987
20
110.036836
11
304.43817
21
109.765102
0
LINE
5
31D
100
AcDbEntity
8
BASE
6
ByLayer
62
3
370
-1
100
AcDbLine
10
304.43817
20
109.765102
11
304.41987
21
109.493449
0
LINE
5
31E
100
AcDbEntity
8
BASE
6
ByLayer
62
3
370
-1
100
AcDbLine
10
304.41987
20
109.493449
11
304.36667
21
109.23292
0
LINE
5
31F
100
AcDbEntity
8
BASE
6
ByLayer
62
3
370
-1
100
AcDbLine
10
304.36667
20
109.23292
11
304.28087
21
108.985895
0
LINE
5
320
100
AcDbEntity
8
BASE
6
ByLayer
62
3
370
-1
100
AcDbLine
10
304.28087
20
108.985895
11
304.16487
21
108.754758
0
LINE
5
321
100
AcDbEntity
8
BASE
6
ByLayer
62
3
370
-1
100
AcDbLine
10
304.16487
20
108.754758
11
304.02109
21
108.541892
0
LINE
5
322
100
AcDbEntity
8
BASE
6
ByLayer
62
3
370
-1
100
AcDbLine
10
304.02109
20
108.541892
11
303.85187
21
108.349678
0
LINE
5
323
100
AcDbEntity
8
BASE
6
ByLayer
62
3
370
-1
100
AcDbLine
10
303.85187
20
108.349678
11
303.65962
21
108.1805
0
LINE
5
324
100
AcDbEntity
8
BASE
6
ByLayer
62
3
370
-1
100
AcDbLine
10
303.65962
20
108.1805
11
303.4467
21
108.036738
0
LINE
5
325
100
AcDbEntity
8
BASE
6
ByLayer
62
3
370
-1
100
AcDbLine
10
303.4467
20
108.036738
11
303.21552
21
107.920777
0
LINE
5
326
100
AcDbEntity
8
BASE
6
ByLayer
62
3
370
-1
100
AcDbLine
10
303.21552
20
107.920777
11
302.96843
21
107.834998
0
LINE
5
327
100
AcDbEntity
8
BASE
6
ByLayer
62
3
370
-1
100
AcDbLine
10
302.96843
20
107.834998
11
302.70786
21
107.781783
0
LINE
5
328
100
AcDbEntity
8
BASE
6
ByLayer
62
3
370
-1
100
AcDbLine
10
302.70786
20
107.781783
11
302.43616
21
107.763515
0
LINE
5
329
100
AcDbEntity
8
BASE
6
ByLayer
62
3
370
-1
100
AcDbLine
10
302.43616
20
107.763515
11
302.16437
21
107.781783
0
LINE
5
32A
100
AcDbEntity
8
BASE
6
ByLayer
62
3
370
-1
100
AcDbLine
10
302.16437
20
107.781783
11
301.9037
21
107.834997
0
LINE
5
32B
100
AcDbEntity
8
BASE
6
ByLayer
62
3
370
-1
100
AcDbLine
10
301.9037
20
107.834997
11
301.65654
21
107.920776
0
LINE
5
32C
100
AcDbEntity
8
BASE
6
ByLayer
62
3
370
-1
100
AcDbLine
10
301.65654
20
107.920776
11
301.42528
21
108.036738
0
LINE
5
32D
100
AcDbEntity
8
BASE
6
ByLayer
62
3
370
-1
100
AcDbLine
10
301.42528
20
108.036738
11
301.2123
21
108.180499
0
LINE
5
32E
100
AcDbEntity
8
BASE
6
ByLayer
62
3
370
-1
100
AcDbLine
10
301.2123
20
108.180499
11
301.01997
21
108.349678
0
LINE
5
32F
100
AcDbEntity
8
BASE
6
ByLayer
62
3
370
-1
100
AcDbLine
10
301.01997
20
108.349678
11
300.85071
21
108.541892
0
LINE
5
330
100
AcDbEntity
8
BASE
6
ByLayer
62
3
370
-1
100
AcDbLine
10
300.85071
20
108.541892
11
300.70686
21
108.754758
0
LINE
5
331
100
AcDbEntity
8
BASE
6
ByLayer
62
3
370
-1
100
AcDbLine
10
300.70686
20
108.754758
11
300.59084
21
108.985895
0
LINE
5
332
100
AcDbEntity
8
BASE
6
ByLayer
62
3
370
-1
100
AcDbLine
10
300.59084
20
108.985895
11
300.50504
21
109.232919
0
LINE
5
333
100
AcDbEntity
8
BASE
6
ByLayer
62
3
370
-1
100
AcDbLine
10
300.50504
20
109.232919
11
300.45184
21
109.493449
0
LINE
5
334
100
AcDbEntity
8
BASE
6
ByLayer
62
3
370
-1
100
AcDbLine
10
300.45184
20
109.493449
11
300.43354
21
109.765102
0
LINE
5
335
100
AcDbEntity
8
BASE
6
ByLayer
62
3
370
-1
100
AcDbLine
10
130.362909
20
220.003381
11
111.229936
21
220.003381
0
ARC
5
336
100
AcDbEntity
8
BASE
6
ByLayer
62
256
370
-1
100
AcDbCircle
10
111.229936
20
219.003381
40
1
100
AcDbArc
50
90
51
180
0
LINE
5
337
100
AcDbEntity
8
BASE
6
ByLayer
62
3
370
-1
100
AcDbLine
10
110.229936
20
219.003381
11
110.229936
21
200.289452437
0
ARC
5
338
100
AcDbEntity
8
BASE
6
ByLayer
62
256
370
-1
100
AcDbCircle
10
111.229936
20
200.289452437
40
1
100
AcDbArc
50
180
51
225.056705919
0
LINE
5
339
100
AcDbEntity
8
BASE
6
ByLayer
62
3
370
-1
100
AcDbLine
10
329.63301
20
220.003381
11
310.50001
21
220.003381
0
LINE
5
33A
100
AcDbEntity
8
BASE
6
ByLayer
62
3
370
-1
100
AcDbLine
10
330.63301
20
199.874661
11
330.63301
21
219.003381
0
ARC
5
33B
100
AcDbEntity
8
BASE
6
ByLayer
62
256
370
-1
100
AcDbCircle
10
329.63301
20
219.003381
40
1
100
AcDbArc
50
0
51
90
0
LINE
5
33C
100
AcDbEntity
8
BASE
6
ByLayer
62
3
370
-1
100
AcDbLine
10
330.633
20
1
11
330.633
21
20.128722
0
LINE
5
33D
100
AcDbEntity
8
BASE
6
ByLayer
62
3
370
-1
100
AcDbLine
10
310.5
20
0
11
329.633
21
0
0
ARC
5
33E
100
AcDbEntity
8
BASE
6
ByLayer
62
256
370
-1
100
AcDbCircle
10
329.633
20
1
40
1
100
AcDbArc
50
270
51
0
0
LINE
5
33F
100
AcDbEntity
8
BASE
6
ByLayer
62
3
370
-1
100
AcDbLine
10
111.229932
20
0
11
130.362905
21
0
0
LINE
5
340
100
AcDbEntity
8
BASE
6
ByLayer
62
3
370
-1
100
AcDbLine
10
110.229932
20
20.128724
11
110.229932
21
1
0
ARC
5
341
100
AcDbEntity
8
BASE
6
ByLayer
62
256
370
-1
100
AcDbCircle
10
111.229932
20
1
40
1
100
AcDbArc
50
180
51
270
0
ARC
5
342
100
AcDbEntity
8
BASE
6
ByLayer
62
256
370
-1
100
AcDbCircle
10
169.679346
20
133.372998
40
10
100
AcDbArc
50
90
51
180
0
LINE
5
343
100
AcDbEntity
8
BASE
6
ByLayer
62
3
370
-1
100
AcDbLine
10
159.679346
20
90.868023
11
159.679346
21
133.372998
0
ARC
5
344
100
AcDbEntity
8
BASE
6
ByLayer
62
256
370
-1
100
AcDbCircle
10
169.679346
20
90.868023
40
10
100
AcDbArc
50
180
51
270
0
ARC
5
345
100
AcDbEntity
8
BASE
6
ByLayer
62
256
370
-1
100
AcDbCircle
10
248.44518
20
133.372998
40
10
100
AcDbArc
50
90
51
180
0
LINE
5
346
100
AcDbEntity
8
BASE
6
ByLayer
62
3
370
-1
100
AcDbLine
10
248.44518
20
143.372998
11
260.9405
21
143.372998
0
ARC
5
347
100
AcDbEntity
8
BASE
6
ByLayer
62
256
370
-1
100
AcDbCircle
10
260.9405
20
133.372998
40
10
100
AcDbArc
50
0
51
90
0
LINE
5
348
100
AcDbEntity
8
BASE
6
ByLayer
62
3
370
-1
100
AcDbLine
10
270.9405
20
133.372998
11
270.9405
21
90.868023
0
ARC
5
349
100
AcDbEntity
8
BASE
6
ByLayer
62
256
370
-1
100
AcDbCircle
10
260.9405
20
90.868023
40
10
100
AcDbArc
50
270
51
0
0
LINE
5
34A
100
AcDbEntity
8
BASE
6
ByLayer
62
3
370
-1
100
AcDbLine
10
260.9405
20
80.868023
11
248.44518
21
80.868023
0
ARC
5
34B
100
AcDbEntity
8
BASE
6
ByLayer
62
256
370
-1
100
AcDbCircle
10
248.44518
20
90.868023
40
10
100
AcDbArc
50
180
51
270
0
LINE
5
34C
100
AcDbEntity
8
BASE
6
ByLayer
62
3
370
-1
100
AcDbLine
10
238.44518
20
90.868023
11
238.44518
21
92.409283
0
ARC
5
34D
100
AcDbEntity
8
BASE
6
ByLayer
62
256
370
-1
100
AcDbCircle
10
228.44518
20
92.409283
40
10
100
AcDbArc
50
0
51
90
0
LINE
5
34E
100
AcDbEntity
8
BASE
6
ByLayer
62
3
370
-1
100
AcDbLine
10
238.44518
20
131.831738
11
238.44518
21
133.372998
0
ARC
5
34F
100
AcDbEntity
8
BASE
6
ByLayer
62
256
370
-1
100
AcDbCircle
10
228.44518
20
131.831738
40
10
100
AcDbArc
50
270
51
0
0
LINE
5
350
100
AcDbEntity
8
BASE
6
ByLayer
62
3
370
-1
100
AcDbLine
10
211.711329
20
121.831738
11
228.44518
21
121.831738
0
ARC
5
351
100
AcDbEntity
8
BASE
6
ByLayer
62
256
370
-1
100
AcDbCircle
10
211.711329
20
131.831738
40
10
100
AcDbArc
50
180
51
270
0
LINE
5
352
100
AcDbEntity
8
BASE
6
ByLayer
62
3
370
-1
100
AcDbLine
10
228.44518
20
102.409283
11
211.711329
21
102.409283
0
ARC
5
353
100
AcDbEntity
8
BASE
6
ByLayer
62
256
370
-1
100
AcDbCircle
10
211.711329
20
92.409283
40
10
100
AcDbArc
50
90
51
180
0
LINE
5
354
100
AcDbEntity
8
BASE
6
ByLayer
62
3
370
-1
100
AcDbLine
10
201.711329
20
92.409283
11
201.711329
21
90.868023
0
LINE
5
355
100
AcDbEntity
8
BASE
6
ByLayer
62
3
370
-1
100
AcDbLine
10
191.711329
20
80.868023
11
169.679346
21
80.868023
0
ARC
5
356
100
AcDbEntity
8
BASE
6
ByLayer
62
256
370
-1
100
AcDbCircle
10
191.711329
20
90.868023
40
10
100
AcDbArc
50
270
51
0
0
LINE
5
357
100
AcDbEntity
8
BASE
6
ByLayer
62
3
370
-1
100
AcDbLine
10
201.711329
20
133.372998
11
201.711329
21
131.831738
0
LINE
5
358
100
AcDbEntity
8
BASE
6
ByLayer
62
3
370
-1
100
AcDbLine
10
169.679346
20
143.372998
11
191.711329
21
143.372998
0
ARC
5
359
100
AcDbEntity
8
BASE
6
ByLayer
62
256
370
-1
100
AcDbCircle
10
191.711329
20
133.372998
40
10
100
AcDbArc
50
0
51
90
0
LINE
5
35A
100
AcDbEntity
8
BASE
6
ByLayer
62
3
370
-1
100
AcDbLine
10
122.239084
20
174.920863
11
122.239084
21
166.914759
0
ARC
5
35B
100
AcDbEntity
8
BASE
6
ByLayer
62
256
370
-1
100
AcDbCircle
10
124.239084
20
174.920863
40
2
100
AcDbArc
50
90
51
180
0
LINE
5
35C
100
AcDbEntity
8
BASE
6
ByLayer
62
3
370
-1
100
AcDbLine
10
122.840643943
20
142.078358197
11
138.486732
21
126.77562
0
LINE
5
35D
100
AcDbEntity
8
BASE
6
ByLayer
62
3
370
-1
100
AcDbLine
10
122.239082
20
152.906938
11
122.239082
21
143.508173221
0
ARC
5
35E
100
AcDbEntity
8
BASE
6
ByLayer
62
256
370
-1
100
AcDbCircle
10
124.239082
20
143.508173221
40
2
100
AcDbArc
50
180
51
225.635619931
0
LINE
5
35F
100
AcDbEntity
8
BASE
6
ByLayer
62
3
370
-1
100
AcDbLine
10
122.23908
20
52.969605
11
122.23908
21
45.08252
0
ARC
5
360
100
AcDbEntity
8
BASE
6
ByLayer
62
256
370
-1
100
AcDbCircle
10
124.23908
20
45.08252
40
2
100
AcDbArc
50
180
51
270
0
LINE
5
361
100
AcDbEntity
8
BASE
6
ByLayer
62
3
370
-1
100
AcDbLine
10
318.62384
20
94.3967649721
11
318.62384
21
102.761702
0
ARC
5
362
100
AcDbEntity
8
BASE
6
ByLayer
62
256
370
-1
100
AcDbCircle
10
316.62384
20
94.3967649721
40
2
100
AcDbArc
50
285.451817446
51
0
0
LINE
5
363
100
AcDbEntity
8
BASE
6
ByLayer
62
3
370
-1
100
AcDbLine
10
318.62382
20
116.769174
11
318.62382
21
125.256318055
0
ARC
5
364
100
AcDbEntity
8
BASE
6
ByLayer
62
256
370
-1
100
AcDbCircle
10
316.62382
20
125.256318055
40
2
100
AcDbArc
50
0
51
74.444057189
0
LINE
5
365
100
AcDbEntity
8
BASE
6
ByLayer
62
3
370
-1
100
AcDbLine
10
286.12849
20
137.340837945
11
286.12849
21
155.457987
0
LINE
5
366
100
AcDbEntity
8
BASE
6
ByLayer
62
3
370
-1
100
AcDbLine
10
317.160178248
20
127.183056187
11
287.592131752
21
135.414099813
0
ARC
5
367
100
AcDbEntity
8
BASE
6
ByLayer
62
256
370
-1
100
AcDbCircle
10
288.12849
20
137.340837945
40
2
100
AcDbArc
50
180
51
254.444057189
0
LINE
5
368
100
AcDbEntity
8
BASE
6
ByLayer
62
3
370
-1
100
AcDbLine
10
287.595654156
20
84.2978177179
11
317.156695844
21
92.4690552821
0
ARC
5
369
100
AcDbEntity
8
BASE
6
ByLayer
62
256
370
-1
100
AcDbCircle
10
288.12851
20
82.3701080279
40
2
100
AcDbArc
50
105.451817446
51
180
0
LINE
5
36A
100
AcDbEntity
8
BASE
6
ByLayer
62
3
370
-1
100
AcDbLine
10
286.12851
20
65.3746310437
11
286.12851
21
82.3701080279
0
LINE
5
36B
100
AcDbEntity
8
BASE
6
ByLayer
62
3
370
-1
100
AcDbLine
10
330.633
20
20.128722
11
286.715699405
21
63.9590159047
0
ARC
5
36C
100
AcDbEntity
8
BASE
6
ByLayer
62
256
370
-1
100
AcDbCircle
10
288.12851
20
65.3746310437
40
2
100
AcDbArc
50
180
51
225.056811979
0
LINE
5
36D
100
AcDbEntity
8
BASE
6
ByLayer
62
3
370
-1
100
AcDbLine
10
128.394018663
20
176.920863
11
124.239084
21
176.920863
0
LINE
5
36E
100
AcDbEntity
8
BASE
6
ByLayer
62
3
370
-1
100
AcDbLine
10
110.523529392
20
199.581646175
11
129.806831879
21
180.336475524
0
ARC
5
36F
100
AcDbEntity
8
BASE
6
ByLayer
62
256
370
-1
100
AcDbCircle
10
128.394018663
20
178.920863
40
2
100
AcDbArc
50
270
51
45.0567059195
0
LINE
5
370
100
AcDbEntity
8
BASE
6
ByLayer
62
3
370
-1
100
AcDbLine
10
124.23908
20
43.08252
11
128.393715893
21
43.08252
0
LINE
5
371
100
AcDbEntity
8
BASE
6
ByLayer
62
3
370
-1
100
AcDbLine
10
129.806539911
20
39.6669182571
11
110.229932
21
20.128724
0
ARC
5
372
100
AcDbEntity
8
BASE
6
ByLayer
62
256
370
-1
100
AcDbCircle
10
128.393715893
20
41.08252
40
2
100
AcDbArc
50
314.943731288
51
90
0
ENDSEC
0
SECTION
2
OBJECTS
0
DICTIONARY
5
C
330
0
100
AcDbDictionary
281
1
3
ACAD_GROUP
350
D
0
DICTIONARY
5
D
330
C
100
AcDbDictionary
281
1
0
ENDSEC
0
EOF
