  0
SECTION
  2
HEADER
  9
$ACADVER
  1
AC1009
  9
$INSBASE
 10
0.0
 20
0.0
 30
0.0
  9
$EXTMIN
 10
0.0
 20
0.0
 30
0.0
  9
$EXTMAX
 10
0.0
 20
0.0
 30
0.0
  0
ENDSEC
  0
SECTION
  2
TABLES
  0
TABLE
  2
VPORT
 70
0
  0
ENDTAB
  0
TABLE
  2
LTYPE
 70
1
  0
LTYPE
  2
CONTINUOUS
 70
0
  3
Solid line
 72
65
 73
0
 40
0.0
  0
ENDTAB
  0
TABLE
  2
LAYER
 70
1
  0
LAYER
  2
0
 70
64
 62
7
  6
continuous
  0
ENDTAB
  0
TABLE
  2
STYLE
 70
1
  0
STYLE
  2
STANDARD
 70
0
 40
0
 41
1.0
 50
0.0
 71
0
 42
1
 3
ARIAL.TTF
 4

  0
ENDTAB
  0
TABLE
  2
VIEW
 70
0
  0
ENDTAB
  0
ENDSEC
  0
SECTION
  2
BLOCKS
  0
BLOCK
  8
0
  2
FILLET
 70
0
 10
0.0
 20
0.0
 30
0.0
  3
FILLET
  0
POLYLINE
  8
0
 62
0
 70
0
 66
1
 10
0.0
 20
0.0
 30
0.0
  0
VERTEX
  8
0
 10
-5.69715284006
 20
2.48689957516e-14
  0
VERTEX
  8
0
 10
-5.64715284006
 20
2.46642028804e-14
  0
VERTEX
  8
0
 10
-5.59715284006
 20
2.45800254304e-14
  0
VERTEX
  8
0
 10
-5.54715284006
 20
2.45198043093e-14
  0
VERTEX
  8
0
 10
-5.49715284006
 20
2.44712125724e-14
  0
VERTEX
  8
0
 10
-5.44715284006
 20
2.4429375687e-14
  0
VERTEX
  8
0
 10
-5.39715284006
 20
2.43943208774e-14
  0
VERTEX
  8
0
 10
-5.34715284006
 20
2.43641785876e-14
  0
VERTEX
  8
0
 10
-5.29715284006
 20
2.43364608729e-14
  0
VERTEX
  8
0
 10
-5.24715284006
 20
2.43140110077e-14
  0
VERTEX
  8
0
 10
-5.19715284006
 20
2.4292323993e-14
  0
VERTEX
  8
0
 10
-5.14715284006
 20
2.42753732047e-14
  0
VERTEX
  8
0
 10
-5.09715284006
 20
2.42588601377e-14
  0
VERTEX
  8
0
 10
-5.04715284006
 20
2.42461318545e-14
  0
VERTEX
  8
0
 10
-4.99715284006
 20
2.42342234099e-14
  0
VERTEX
  8
0
 10
-4.94715284006
 20
2.42249471341e-14
  0
VERTEX
  8
0
 10
-4.89715284006
 20
2.42172722263e-14
  0
VERTEX
  8
0
 10
-4.84715284006
 20
2.42109801143e-14
  0
VERTEX
  8
0
 10
-4.79715284006
 20
2.42073156596e-14
  0
VERTEX
  8
0
 10
-4.74715284006
 20
2.42037379618e-14
  0
VERTEX
  8
0
 10
-4.69715284006
 20
2.42039816509e-14
  0
VERTEX
  8
0
 10
-4.64715284006
 20
2.420422534e-14
  0
VERTEX
  8
0
 10
-4.63143522671
 20
2.42043019442e-14
  0
SEQEND
  8
0
  0
POLYLINE
  8
0
 62
0
 70
0
 66
1
 10
0.0
 20
0.0
 30
0.0
  0
VERTEX
  8
0
 10
-4.63143522671
 20
2.37573327196e-14
  0
VERTEX
  8
0
 10
-4.68143522671
 20
2.37575764087e-14
  0
VERTEX
  8
0
 10
-4.73143522671
 20
2.37578200978e-14
  0
VERTEX
  8
0
 10
-4.78143522671
 20
2.37554709339e-14
  0
VERTEX
  8
0
 10
-4.83143522671
 20
2.37518064792e-14
  0
VERTEX
  8
0
 10
-4.88143522671
 20
2.37467750622e-14
  0
VERTEX
  8
0
 10
-4.93143522671
 20
2.37391001544e-14
  0
VERTEX
  8
0
 10
-4.98143522671
 20
2.37311547004e-14
  0
VERTEX
  8
0
 10
-5.03143522671
 20
2.37192462558e-14
  0
VERTEX
  8
0
 10
-5.08143522671
 20
2.37073378112e-14
  0
VERTEX
  8
0
 10
-5.13143522671
 20
2.36914523792e-14
  0
VERTEX
  8
0
 10
-5.18143522671
 20
2.36749393121e-14
  0
VERTEX
  8
0
 10
-5.23143522671
 20
2.36544410184e-14
  0
VERTEX
  8
0
 10
-5.28143522671
 20
2.36327540037e-14
  0
VERTEX
  8
0
 10
-5.33143522671
 20
2.36061692027e-14
  0
VERTEX
  8
0
 10
-5.38143522671
 20
2.35783333453e-14
  0
VERTEX
  8
0
 10
-5.43143522671
 20
2.35432785357e-14
  0
VERTEX
  8
0
 10
-5.48143522671
 20
2.35043986187e-14
  0
VERTEX
  8
0
 10
-5.53143522671
 20
2.34598632772e-14
  0
VERTEX
  8
0
 10
-5.58143522671
 20
2.34024979436e-14
  0
VERTEX
  8
0
 10
-5.63143522671
 20
2.33289428235e-14
  0
VERTEX
  8
0
 10
-5.68143522671
 20
2.32037678358e-14
  0
VERTEX
  8
0
 10
-5.69715284006
 20
2.30926389122e-14
  0
SEQEND
  8
0
  0
POLYLINE
  8
0
 62
0
 70
0
 66
1
 10
0.0
 20
0.0
 30
0.0
  0
VERTEX
  8
0
 10
-4.63143522671
 20
3.77331827634e-15
  0
VERTEX
  8
0
 10
-4.68143522671
 20
3.77356196543e-15
  0
VERTEX
  8
0
 10
-4.73143522671
 20
3.77380565451e-15
  0
VERTEX
  8
0
 10
-4.78143522671
 20
3.77145649063e-15
  0
VERTEX
  8
0
 10
-4.83143522671
 20
3.7677920359e-15
  0
VERTEX
  8
0
 10
-4.88143522671
 20
3.76276061892e-15
  0
VERTEX
  8
0
 10
-4.93143522671
 20
3.75508571113e-15
  0
VERTEX
  8
0
 10
-4.98143522671
 20
3.74714025716e-15
  0
VERTEX
  8
0
 10
-5.03143522671
 20
3.73523181257e-15
  0
VERTEX
  8
0
 10
-5.08143522671
 20
3.72332336798e-15
  0
VERTEX
  8
0
 10
-5.13143522671
 20
3.7074379359e-15
  0
VERTEX
  8
0
 10
-5.18143522671
 20
3.69092486885e-15
  0
VERTEX
  8
0
 10
-5.23143522671
 20
3.67042657511e-15
  0
VERTEX
  8
0
 10
-5.28143522671
 20
3.64873956041e-15
  0
VERTEX
  8
0
 10
-5.33143522671
 20
3.62215475943e-15
  0
VERTEX
  8
0
 10
-5.38143522671
 20
3.594318902e-15
  0
VERTEX
  8
0
 10
-5.43143522671
 20
3.55926409243e-15
  0
VERTEX
  8
0
 10
-5.48143522671
 20
3.52038417549e-15
  0
VERTEX
  8
0
 10
-5.53143522671
 20
3.47584883398e-15
  0
VERTEX
  8
0
 10
-5.58143522671
 20
3.41848350031e-15
  0
VERTEX
  8
0
 10
-5.63143522671
 20
3.34492838029e-15
  0
VERTEX
  8
0
 10
-5.68143522671
 20
3.2197533925e-15
  0
VERTEX
  8
0
 10
-5.69715284006
 20
3.10862446895e-15
  0
SEQEND
  8
0
  0
LINE
  8
0
 62
0
 10
-5.69715284006
 20
2.99760216649e-14
 30
0.0
 11
-5.69715284006
 21
4.0
 31
0.0
  0
LINE
  8
0
 62
0
 10
-5.69715284006
 20
2.99760216649e-14
 30
0.0
 11
41.3181137986
 21
2.99760216649e-14
 31
0.0
  0
LINE
  8
0
 62
0
 10
41.3181137986
 20
2.99760216649e-14
 30
0.0
 11
54.3490553585
 21
2.62664230017e-14
 31
0.0
  0
LINE
  8
0
 62
0
 10
54.3490553585
 20
2.62664230017e-14
 30
0.0
 11
96.0379615315
 21
2.62664230017e-14
 31
0.0
  0
LINE
  8
0
 62
0
 10
96.0379615315
 20
2.62664230017e-14
 30
0.0
 11
96.2608032938
 21
2.21551277746e-15
 31
0.0
  0
LINE
  8
0
 62
0
 10
9.0
 20
-3.44383110592e-41
 30
0.0
 11
1.7763568394e-15
 21
-1.01957882312e-56
 31
0.0
  0
LINE
  8
0
 62
0
 10
41.3181137986
 20
2.99760216649e-14
 30
0.0
 11
41.3181137986
 21
4.0
 31
0.0
  0
LINE
  8
0
 62
0
 10
-5.69715284006
 20
4.0
 30
0.0
 11
41.3181137986
 21
4.0
 31
0.0
  0
LINE
  8
0
 62
0
 10
41.3181137986
 20
4.0
 30
0.0
 11
54.3490553585
 21
4.0
 31
0.0
  0
LINE
  8
0
 62
0
 10
54.3490553585
 20
4.0
 30
0.0
 11
96.0379615315
 21
4.0
 31
0.0
  0
LINE
  8
0
 62
0
 10
96.0379615315
 20
4.0
 30
0.0
 11
96.2608032938
 21
4.0
 31
0.0
  0
LINE
  8
0
 62
0
 10
54.3490553585
 20
2.62664230017e-14
 30
0.0
 11
54.3490553585
 21
4.0
 31
0.0
  0
LINE
  8
0
 62
0
 10
96.0379615315
 20
2.62664230017e-14
 30
0.0
 11
96.0379615315
 21
4.0
 31
0.0
  0
LINE
  8
0
 62
0
 10
96.2608032938
 20
2.21551277746e-15
 30
0.0
 11
96.2608032938
 21
4.0
 31
0.0
  0
ENDBLK
  0
ENDSEC
  0
SECTION
  2
ENTITIES
  0
INSERT
  2
FILLET
  8
0
 10
0.0
 20
0.0
 30
0.0
  0
ENDSEC
  0
EOF
