<?xml version="1.0"?>
<!DOCTYPE svg PUBLIC "-//W3C//DTD SVG 1.1//EN" "http://www.w3.org/Graphics/SVG/1.1/DTD/svg11.dtd">
<svg width="103.997115257mm" height="6.03915912268mm" viewBox="0 0 103.997115257 6.03915912268" xmlns="http://www.w3.org/2000/svg" version="1.1">
<g transform="translate(6.7167324014,5.01957956134) scale(1,-1)">
<path id="Fillet" d="M -5.69715284006 2.48689957516e-14 L -5.69715284006 2.99760216649e-14 L -5.69715284006 4.0 L -5.69715284006 4.0 L -5.69715284006 2.48689957516e-14 Z " stroke="#191919" stroke-width="0.35 px" style="stroke-width:0.35;stroke-miterlimit:4;stroke-dasharray:none;fill:#c5b5cc;fill-rule: evenodd "/>
<circle cx="13.5" cy="4.85382381132e-14" r="2.0" stroke="#191919" stroke-width="0.35 px" style="stroke-width:0.35;stroke-miterlimit:4;stroke-dasharray:none;fill:#c5b5cc"/>
<path id="Fillet" d="M -5.69715284006 4.0 A 1.0 1.0 0 0 1 -4.63143522671 4.0 L -4.63143522671 5.01820807131e-14 A 1.0 1.0 0 0 1 -5.69715284006 2.48689957516e-14 L -5.69715284006 4.0 Z " stroke="#191919" stroke-width="0.35 px" style="stroke-width:0.35;stroke-miterlimit:4;stroke-dasharray:none;fill:#c5b5cc;fill-rule: evenodd "/>
<path id="Fillet" d="M -5.69715284006 2.99760216649e-14 L -5.69715284006 4.0 L 41.3181137986 4.0 L 41.3181137986 3.01980662698e-14 L -5.69715284006 2.99760216649e-14 Z " stroke="#191919" stroke-width="0.35 px" style="stroke-width:0.35;stroke-miterlimit:4;stroke-dasharray:none;fill:#c5b5cc;fill-rule: evenodd "/>
<circle cx="13.5" cy="4.0" r="2.0" stroke="#191919" stroke-width="0.35 px" style="stroke-width:0.35;stroke-miterlimit:4;stroke-dasharray:none;fill:#c5b5cc"/>
<path id="Fillet" d="M -4.63143522671 5.01820807131e-14 A 2.0 2.0 0 0 1 -2.5 4.85382381132e-14 L -2.5 4.0 A 2.0 2.0 0 1 0 -4.63143522671 4.0 L -4.63143522671 5.01820807131e-14 Z " stroke="#191919" stroke-width="0.35 px" style="stroke-width:0.35;stroke-miterlimit:4;stroke-dasharray:none;fill:#c5b5cc;fill-rule: evenodd "/>
<path id="Fillet" d="M 41.3181137986 2.99760216649e-14 L 41.3181137986 4.0 L 54.3490553585 4.0 L 54.3490553585 2.6645352591e-14 L 41.3181137986 2.99760216649e-14 Z " stroke="#191919" stroke-width="0.35 px" style="stroke-width:0.35;stroke-miterlimit:4;stroke-dasharray:none;fill:#c5b5cc;fill-rule: evenodd "/>
<path id="Fillet" d="M -4.63143522671 4.0 A 2.0 2.0 0 0 1 -2.5 4.0 L -2.5 4.84057238737e-14 A 2.0 2.0 0 0 0 -4.63143522671 4.7517545454e-14 L -4.63143522671 4.0 Z " stroke="#191919" stroke-width="0.35 px" style="stroke-width:0.35;stroke-miterlimit:4;stroke-dasharray:none;fill:#c5b5cc;fill-rule: evenodd "/>
<path id="Fillet" d="M 54.3490553585 2.62664230017e-14 L 54.3490553585 4.0 L 96.0379615315 4.0 L 96.0379615315 2.6645352591e-14 L 54.3490553585 2.62664230017e-14 Z " stroke="#191919" stroke-width="0.35 px" style="stroke-width:0.35;stroke-miterlimit:4;stroke-dasharray:none;fill:#c5b5cc;fill-rule: evenodd "/>
<path id="Fillet" d="M -4.63143522671 4.0 A 1.0 1.0 0 0 1 -5.69715284006 4.0 L -5.69715284006 2.30926389122e-14 A 1.0 1.0 0 0 0 -4.63143522671 4.7517545454e-14 L -4.63143522671 4.0 Z " stroke="#191919" stroke-width="0.35 px" style="stroke-width:0.35;stroke-miterlimit:4;stroke-dasharray:none;fill:#c5b5cc;fill-rule: evenodd "/>
<path id="Fillet" d="M 96.0379615315 2.62664230017e-14 L 96.0379615315 4.0 L 96.2608032938 4.0 L 96.2608032938 2.22044604925e-15 L 96.0379615315 2.62664230017e-14 Z " stroke="#191919" stroke-width="0.35 px" style="stroke-width:0.35;stroke-miterlimit:4;stroke-dasharray:none;fill:#c5b5cc;fill-rule: evenodd "/>
<path id="Fillet" d="M -5.69715284006 5.3290705182e-15 L -5.69715284006 2.30926389122e-14 L -5.69715284006 4.0 L -5.69715284006 4.0 L -5.69715284006 5.3290705182e-15 Z " stroke="#191919" stroke-width="0.35 px" style="stroke-width:0.35;stroke-miterlimit:4;stroke-dasharray:none;fill:#c5b5cc;fill-rule: evenodd "/>
<path id="Fillet" d="M 96.2608032938 2.21551277746e-15 L 96.2608032938 4.0 L 53.8914201169 4.0 L 53.8914201169 2.22044604925e-15 L 96.2608032938 2.21551277746e-15 Z " stroke="#191919" stroke-width="0.35 px" style="stroke-width:0.35;stroke-miterlimit:4;stroke-dasharray:none;fill:#c5b5cc;fill-rule: evenodd "/>
<path id="Fillet" d="M -5.69715284006 4.0 A 1.0 1.0 0 0 1 -4.63143522671 4.0 L -4.63143522671 1.02140518266e-14 A 1.0 1.0 0 0 1 -5.69715284006 5.3290705182e-15 L -5.69715284006 4.0 Z " stroke="#191919" stroke-width="0.35 px" style="stroke-width:0.35;stroke-miterlimit:4;stroke-dasharray:none;fill:#c5b5cc;fill-rule: evenodd "/>
<path id="Fillet" d="M 53.8914201169 2.21551277746e-15 L 53.8914201169 4.0 L 41.3181137986 4.0 L 41.3181137986 -1.7763568394e-15 L 53.8914201169 2.21551277746e-15 Z " stroke="#191919" stroke-width="0.35 px" style="stroke-width:0.35;stroke-miterlimit:4;stroke-dasharray:none;fill:#c5b5cc;fill-rule: evenodd "/>
<path id="Fillet" d="M -4.63143522671 1.02140518266e-14 A 2.0 2.0 0 0 1 -2.5 8.59435678202e-15 L -2.5 4.0 A 2.0 2.0 0 1 0 -4.63143522671 4.0 L -4.63143522671 1.02140518266e-14 Z " stroke="#191919" stroke-width="0.35 px" style="stroke-width:0.35;stroke-miterlimit:4;stroke-dasharray:none;fill:#c5b5cc;fill-rule: evenodd "/>
<path id="Fillet" d="M 41.3181137986 -1.66533453694e-15 L 41.3181137986 4.0 L -5.69715284006 4.0 L -5.69715284006 -1.7763568394e-15 L 41.3181137986 -1.66533453694e-15 Z " stroke="#191919" stroke-width="0.35 px" style="stroke-width:0.35;stroke-miterlimit:4;stroke-dasharray:none;fill:#c5b5cc;fill-rule: evenodd "/>
<path id="Fillet" d="M -4.63143522671 4.0 A 2.0 2.0 0 0 1 -2.5 4.0 L -2.5 8.43769498715e-15 A 2.0 2.0 0 0 0 -4.63143522671 7.54951656745e-15 L -4.63143522671 4.0 Z " stroke="#191919" stroke-width="0.35 px" style="stroke-width:0.35;stroke-miterlimit:4;stroke-dasharray:none;fill:#c5b5cc;fill-rule: evenodd "/>
<path id="Fillet" d="M -5.69715284006 3.10862446895e-15 L -5.69715284006 -1.66533453694e-15 L -5.69715284006 4.0 L -5.69715284006 4.0 L -5.69715284006 3.10862446895e-15 Z " stroke="#191919" stroke-width="0.35 px" style="stroke-width:0.35;stroke-miterlimit:4;stroke-dasharray:none;fill:#c5b5cc;fill-rule: evenodd "/>
<path id="Fillet" d="M -4.63143522671 4.0 A 1.0 1.0 0 0 1 -5.69715284006 4.0 L -5.69715284006 3.10862446895e-15 A 1.0 1.0 0 0 0 -4.63143522671 7.54951656745e-15 L -4.63143522671 4.0 Z " stroke="#191919" stroke-width="0.35 px" style="stroke-width:0.35;stroke-miterlimit:4;stroke-dasharray:none;fill:#c5b5cc;fill-rule: evenodd "/>
<path id="Fillet" d="M 0.0 3.99680288865e-14 L 9.0 3.99680288865e-14 L 9.0 4.0 L 0.0 4.0 L 0.0 3.99680288865e-14 Z " stroke="#191919" stroke-width="0.35 px" style="stroke-width:0.35;stroke-miterlimit:4;stroke-dasharray:none;fill:#c5b5cc;fill-rule: evenodd "/>
<path id="Fillet" d="M 0.0 5.59552404411e-14 L 0.0 3.99680288865e-14 L 0.0 4.0 L 0.0 4.0 L 0.0 5.59552404411e-14 Z " stroke="#191919" stroke-width="0.35 px" style="stroke-width:0.35;stroke-miterlimit:4;stroke-dasharray:none;fill:#c5b5cc;fill-rule: evenodd "/>
<path id="Fillet" d="M 9.0 3.99680288865e-14 L 9.0 5.59552404411e-14 L 9.0 4.0 L 9.0 4.0 L 9.0 3.99680288865e-14 Z " stroke="#191919" stroke-width="0.35 px" style="stroke-width:0.35;stroke-miterlimit:4;stroke-dasharray:none;fill:#c5b5cc;fill-rule: evenodd "/>
<path id="Fillet" d="M 9.0 5.59552404411e-14 L 0.0 5.59552404411e-14 L 0.0 4.0 L 9.0 4.0 L 9.0 5.59552404411e-14 Z " stroke="#191919" stroke-width="0.35 px" style="stroke-width:0.35;stroke-miterlimit:4;stroke-dasharray:none;fill:#c5b5cc;fill-rule: evenodd "/>
<circle cx="13.5" cy="4.85382381132e-14" r="2.0" stroke="#191919" stroke-width="0.35 px" style="stroke-width:0.35;stroke-miterlimit:4;stroke-dasharray:none;fill:#c5b5cc"/>
<path id="Fillet" d="M 9.0 0.0 L 0.0 4.85765871764e-31 L 0.0 4.0 L 9.0 4.0 L 9.0 0.0 Z " stroke="#191919" stroke-width="0.35 px" style="stroke-width:0.35;stroke-miterlimit:4;stroke-dasharray:none;fill:#c5b5cc;fill-rule: evenodd "/>
<path id="Fillet" d="M 9.0 1.59872115546e-14 L 9.0 0.0 L 9.0 4.0 L 9.0 4.0 L 9.0 1.59872115546e-14 Z " stroke="#191919" stroke-width="0.35 px" style="stroke-width:0.35;stroke-miterlimit:4;stroke-dasharray:none;fill:#c5b5cc;fill-rule: evenodd "/>
<path id="Fillet" d="M 0.0 4.85765871764e-31 L 0.0 1.59872115546e-14 L 0.0 4.0 L 0.0 4.0 L 0.0 0.0 Z " stroke="#191919" stroke-width="0.35 px" style="stroke-width:0.35;stroke-miterlimit:4;stroke-dasharray:none;fill:#c5b5cc;fill-rule: evenodd "/>
<path id="Fillet" d="M 0.0 1.59872115546e-14 L 9.0 1.59872115546e-14 L 9.0 4.0 L 0.0 4.0 L 0.0 1.59872115546e-14 Z " stroke="#191919" stroke-width="0.35 px" style="stroke-width:0.35;stroke-miterlimit:4;stroke-dasharray:none;fill:#c5b5cc;fill-rule: evenodd "/>
<circle cx="13.5" cy="8.59435678202e-15" r="2.0" stroke="#191919" stroke-width="0.35 px" style="stroke-width:0.35;stroke-miterlimit:4;stroke-dasharray:none;fill:#c5b5cc"/>
<circle cx="16.0" cy="2.46469511467e-14" r="1.5" stroke="#191919" stroke-width="0.35 px" style="stroke-width:0.35;stroke-miterlimit:4;stroke-dasharray:none;fill:#c5b5cc"/>
<circle cx="16.0" cy="3.13082892944e-14" r="1.5" stroke="#191919" stroke-width="0.35 px" style="stroke-width:0.35;stroke-miterlimit:4;stroke-dasharray:none;fill:#c5b5cc"/>
<circle cx="29.0" cy="3.83026943496e-14" r="1.5" stroke="#191919" stroke-width="0.35 px" style="stroke-width:0.35;stroke-miterlimit:4;stroke-dasharray:none;fill:#c5b5cc"/>
<circle cx="44.5" cy="2.79776202206e-14" r="12.0" stroke="#191919" stroke-width="0.35 px" style="stroke-width:0.35;stroke-miterlimit:4;stroke-dasharray:none;fill:#c5b5cc"/>
<circle cx="60.0" cy="3.83026943496e-14" r="1.5" stroke="#191919" stroke-width="0.35 px" style="stroke-width:0.35;stroke-miterlimit:4;stroke-dasharray:none;fill:#c5b5cc"/>
<circle cx="60.0" cy="1.76525460915e-14" r="1.5" stroke="#191919" stroke-width="0.35 px" style="stroke-width:0.35;stroke-miterlimit:4;stroke-dasharray:none;fill:#c5b5cc"/>
<circle cx="29.0" cy="1.76525460915e-14" r="1.5" stroke="#191919" stroke-width="0.35 px" style="stroke-width:0.35;stroke-miterlimit:4;stroke-dasharray:none;fill:#c5b5cc"/>
<circle cx="80.4024343855" cy="4.46309655899e-14" r="1.5" stroke="#191919" stroke-width="0.35 px" style="stroke-width:0.35;stroke-miterlimit:4;stroke-dasharray:none;fill:#c5b5cc"/>
<circle cx="80.4024343855" cy="1.13242748512e-14" r="1.5" stroke="#191919" stroke-width="0.35 px" style="stroke-width:0.35;stroke-miterlimit:4;stroke-dasharray:none;fill:#c5b5cc"/>
<circle cx="70.4024343855" cy="4.46309655899e-14" r="1.5" stroke="#191919" stroke-width="0.35 px" style="stroke-width:0.35;stroke-miterlimit:4;stroke-dasharray:none;fill:#c5b5cc"/>
<circle cx="70.4024343855" cy="1.13242748512e-14" r="1.5" stroke="#191919" stroke-width="0.35 px" style="stroke-width:0.35;stroke-miterlimit:4;stroke-dasharray:none;fill:#c5b5cc"/>
</g>
</svg>