  0
SECTION
  2
HEADER
  9
$ACADVER
  1
AC1009
  9
$INSBASE
 10
0.0
 20
0.0
 30
0.0
  9
$EXTMIN
 10
0.0
 20
0.0
 30
0.0
  9
$EXTMAX
 10
0.0
 20
0.0
 30
0.0
  0
ENDSEC
  0
SECTION
  2
TABLES
  0
TABLE
  2
VPORT
 70
0
  0
ENDTAB
  0
TABLE
  2
LTYPE
 70
1
  0
LTYPE
  2
CONTINUOUS
 70
0
  3
Solid line
 72
65
 73
0
 40
0.0
  0
ENDTAB
  0
TABLE
  2
LAYER
 70
1
  0
LAYER
  2
0
 70
64
 62
7
  6
continuous
  0
ENDTAB
  0
TABLE
  2
STYLE
 70
1
  0
STYLE
  2
STANDARD
 70
0
 40
0
 41
1.0
 50
0.0
 71
0
 42
1
 3
ARIAL.TTF
 4

  0
ENDTAB
  0
TABLE
  2
VIEW
 70
0
  0
ENDTAB
  0
ENDSEC
  0
SECTION
  2
BLOCKS
  0
BLOCK
  8
0
  2
SKETCH
 70
0
 10
0.0
 20
0.0
 30
0.0
  3
SKETCH
  0
POLYLINE
  8
0
 62
7
 70
1
 66
1
 10
0.0
 20
0.0
 30
0.0
  0
VERTEX
  8
0
 10
0.0
 20
5.3290705182e-15
  0
VERTEX
  8
0
 10
6.0
 20
5.3290705182e-15
  0
VERTEX
  8
0
 10
6.0
 20
0.0
  0
VERTEX
  8
0
 10
0.0
 20
4.23704585834e-32
  0
SEQEND
  8
0
  0
POLYLINE
  8
0
 62
7
 70
1
 66
1
 10
0.0
 20
0.0
 30
0.0
  0
VERTEX
  8
0
 10
0.0
 20
1.33226762955e-14
  0
VERTEX
  8
0
 10
6.0
 20
1.33226762955e-14
  0
VERTEX
  8
0
 10
6.0
 20
1.86517468137e-14
  0
VERTEX
  8
0
 10
0.0
 20
1.86517468137e-14
  0
SEQEND
  8
0
  0
CIRCLE
  8
0
 62
7
 10
12.0
 20
1.61794127044e-14
 30
72.8655970266
 40
2.0
  0
CIRCLE
  8
0
 62
7
 10
-6.0
 20
1.61794127044e-14
 30
72.8655970266
 40
2.0
  0
CIRCLE
  8
0
 62
7
 10
-6.0
 20
2.86482721927e-15
 30
12.9020347972
 40
2.0
  0
CIRCLE
  8
0
 62
7
 10
12.0
 20
2.86482721927e-15
 30
12.9020347972
 40
2.0
  0
ENDBLK
  0
BLOCK
  8
0
  2
SKETCH003
 70
0
 10
0.0
 20
0.0
 30
0.0
  3
SKETCH003
  0
CIRCLE
  8
0
 62
7
 10
70.4024343855
 20
1.487698853e-14
 30
67.0
 40
1.5
  0
CIRCLE
  8
0
 62
7
 10
80.4024343855
 20
1.487698853e-14
 30
67.0
 40
1.5
  0
CIRCLE
  8
0
 62
7
 10
70.4024343855
 20
3.77475828373e-15
 30
17.0
 40
1.5
  0
CIRCLE
  8
0
 62
7
 10
80.4024343855
 20
3.77475828373e-15
 30
17.0
 40
1.5
  0
ENDBLK
  0
BLOCK
  8
0
  2
SKETCH002
 70
0
 10
0.0
 20
0.0
 30
0.0
  3
SKETCH002
  0
CIRCLE
  8
0
 62
7
 10
29.0
 20
1.27675647832e-14
 30
57.5
 40
1.5
  0
CIRCLE
  8
0
 62
7
 10
60.0
 20
1.27675647832e-14
 30
57.5
 40
1.5
  0
CIRCLE
  8
0
 62
7
 10
29.0
 20
5.88418203051e-15
 30
26.5
 40
1.5
  0
CIRCLE
  8
0
 62
7
 10
60.0
 20
5.88418203051e-15
 30
26.5
 40
1.5
  0
CIRCLE
  8
0
 62
7
 10
44.5
 20
9.32587340685e-15
 30
42.0
 40
12.0
  0
ENDBLK
  0
BLOCK
  8
0
  2
SKETCH001
 70
0
 10
0.0
 20
0.0
 30
0.0
  3
SKETCH001
  0
CIRCLE
  8
0
 62
7
 10
16.0
 20
1.04360964315e-14
 30
47.0
 40
1.5
  0
CIRCLE
  8
0
 62
7
 10
16.0
 20
8.21565038223e-15
 30
37.0
 40
1.5
  0
ENDBLK
  0
ENDSEC
  0
SECTION
  2
ENTITIES
  0
POLYLINE
  8
0
 62
7
 70
1
 66
1
 10
0.0
 20
0.0
 30
0.0
  0
VERTEX
  8
0
 10
-7.44739684006
 20
1.99840144433e-14
  0
VERTEX
  8
0
 10
40.8029835068
 20
1.99840144433e-14
  0
VERTEX
  8
0
 10
54.2517894211
 20
1.75285562921e-14
  0
VERTEX
  8
0
 10
96.0379615315
 20
1.75285562921e-14
  0
VERTEX
  8
0
 10
96.2608032938
 20
1.46641445479e-15
  0
VERTEX
  8
0
 10
53.7838329296
 20
1.46641445479e-15
  0
VERTEX
  8
0
 10
40.8029835068
 20
-1.11022302463e-15
  0
VERTEX
  8
0
 10
-7.44739684006
 20
-1.11022302463e-15
  0
SEQEND
  8
0
  0
INSERT
  2
SKETCH
  8
0
 10
0.0
 20
0.0
 30
0.0
  0
INSERT
  2
SKETCH003
  8
0
 10
0.0
 20
0.0
 30
0.0
  0
INSERT
  2
SKETCH002
  8
0
 10
0.0
 20
0.0
 30
0.0
  0
INSERT
  2
SKETCH001
  8
0
 10
0.0
 20
0.0
 30
0.0
  0
ENDSEC
  0
EOF
